<svg xmlns="http://www.w3.org/2000/svg" width="4411" height="2667" viewBox="0 0 4411 2667" fill="none">
<path d="M308.748 2566.27C31.0985 2172.35 -55.9004 1942.25 182.359 1523.33C299.723 1316.99 20.5209 1113.44 204.521 957.467C356.66 828.494 523.991 1002.32 716.991 606.347C1024.8 -25.1865 1415.15 553.614 1815.63 268.8C2426.33 -165.493 3106.89 176.307 3546.03 698.12C3631.19 799.32 3790.64 789.88 3916.16 831.627C4291.81 971.96 4264.41 1223.71 4189.73 1583.6C4157.03 1741.23 4253.53 1792.73 4298.89 1872.97C4438.48 2129.44 4290.44 2374.19 4142.36 2591.08L308.748 2566.27Z" fill="#ebebef"/>
<path d="M2905.87 1997.16L2924.37 2039.39L2700.39 2151.37L2905.87 1997.16Z" fill="#F78937" fill-opacity="0.8"/>
<path d="M2939.15 2089.07L2920.65 2132.11L2710.39 2146.17L2939.15 2089.07Z" fill="#F78937" fill-opacity="0.8"/>
<path d="M2700.39 2151.37L3062.07 2080.53L2948.23 2022.24L2700.39 2151.37Z" fill="#dddddd"/>
<path d="M2905.87 1997.16L2700.39 2151.37L2835.04 1955.23L2905.87 1997.16Z" fill="#dddddd"/>
<path d="M3075.33 1995.32C3071.83 1995.32 3068.72 1992.79 3068.12 1989.2C3067.44 1985.21 3070.13 1981.43 3074.12 1980.75C3088.11 1978.39 3101.76 1976.85 3114.72 1976.21C3118.76 1976.01 3122.2 1979.12 3122.4 1983.17C3122.61 1987.21 3119.49 1990.65 3115.44 1990.85C3103.07 1991.48 3089.99 1992.95 3076.57 1995.21C3076.16 1995.28 3075.75 1995.32 3075.33 1995.32ZM3194.09 2000.13C3193.33 2000.13 3192.56 2000.01 3191.79 1999.76C3180.23 1995.95 3167.59 1993.27 3154.24 1991.83C3150.21 1991.39 3147.31 1987.77 3147.73 1983.75C3148.17 1979.72 3151.79 1976.81 3155.81 1977.24C3170.19 1978.8 3183.84 1981.69 3196.39 1985.84C3200.24 1987.11 3202.32 1991.25 3201.05 1995.09C3200.04 1998.17 3197.17 2000.13 3194.09 2000.13ZM2998.04 2015.61C2995 2015.61 2992.17 2013.72 2991.11 2010.69C2989.79 2006.87 2991.8 2002.68 2995.63 2001.35C3008.71 1996.8 3021.75 1992.8 3034.39 1989.44C3038.31 1988.4 3042.32 1990.73 3043.36 1994.64C3044.4 1998.56 3042.07 2002.57 3038.16 2003.61C3025.87 2006.88 3013.17 2010.77 3000.45 2015.2C2999.65 2015.48 2998.84 2015.61 2998.04 2015.61ZM3259.81 2043.85C3257.75 2043.85 3255.68 2042.99 3254.23 2041.28C3245.96 2031.55 3236.45 2023.11 3225.97 2016.19C3222.6 2013.95 3221.67 2009.4 3223.91 2006.01C3226.13 2002.64 3230.68 2001.72 3234.07 2003.95C3245.69 2011.64 3256.24 2021 3265.4 2031.77C3268.03 2034.85 3267.65 2039.49 3264.56 2042.11C3263.19 2043.28 3261.49 2043.85 3259.81 2043.85ZM2924.37 2046.72C2921.68 2046.72 2919.09 2045.24 2917.81 2042.67C2916 2039.04 2917.48 2034.63 2921.11 2032.83C2933.12 2026.84 2945.49 2021.15 2957.85 2015.92C2961.59 2014.33 2965.89 2016.08 2967.47 2019.81C2969.05 2023.55 2967.31 2027.84 2963.57 2029.43C2951.48 2034.53 2939.4 2040.11 2927.64 2045.96C2926.59 2046.48 2925.48 2046.72 2924.37 2046.72ZM3295.43 2114.72C3292.13 2114.72 3289.13 2112.49 3288.31 2109.15C3285.23 2096.73 3280.77 2084.64 3275.07 2073.2C3273.25 2069.57 3274.73 2065.17 3278.36 2063.36C3281.97 2061.56 3286.39 2063.03 3288.19 2066.65C3294.37 2079.05 3299.2 2092.16 3302.55 2105.61C3303.52 2109.55 3301.12 2113.52 3297.19 2114.51C3296.6 2114.65 3296 2114.72 3295.43 2114.72ZM3297.93 2194.08C3297.52 2194.08 3297.09 2194.05 3296.67 2193.97C3292.68 2193.28 3290 2189.49 3290.69 2185.49C3292.6 2174.53 3293.57 2163.47 3293.57 2152.59C3293.57 2150.77 3293.55 2148.96 3293.49 2147.15C3293.37 2143.11 3296.56 2139.72 3300.6 2139.61C3304.65 2139.49 3308.03 2142.67 3308.15 2146.72C3308.21 2148.68 3308.24 2150.63 3308.24 2152.59C3308.24 2164.31 3307.2 2176.23 3305.15 2188C3304.53 2191.57 3301.44 2194.08 3297.93 2194.08ZM3270.29 2268.69C3269.04 2268.69 3267.77 2268.37 3266.61 2267.71C3263.12 2265.67 3261.93 2261.17 3263.96 2257.68C3270.55 2246.35 3276.12 2234.59 3280.56 2222.72C3281.97 2218.92 3286.2 2216.99 3290 2218.41C3293.79 2219.83 3295.72 2224.05 3294.29 2227.84C3289.57 2240.49 3283.64 2253.01 3276.64 2265.04C3275.28 2267.39 3272.83 2268.69 3270.29 2268.69ZM3220.35 2330.79C3218.39 2330.79 3216.43 2330 3214.99 2328.45C3212.23 2325.49 3212.37 2320.85 3215.33 2318.09C3224.96 2309.11 3233.89 2299.52 3241.89 2289.63C3244.44 2286.48 3249.07 2285.99 3252.21 2288.53C3255.36 2291.08 3255.85 2295.69 3253.31 2298.84C3244.87 2309.28 3235.47 2319.36 3225.35 2328.81C3223.93 2330.13 3222.13 2330.79 3220.35 2330.79ZM3155.75 2377.61C3153.19 2377.61 3150.69 2376.27 3149.35 2373.85C3147.37 2370.33 3148.63 2365.85 3152.16 2363.88C3163.69 2357.41 3174.8 2350.35 3185.16 2342.85C3188.45 2340.49 3193.03 2341.23 3195.4 2344.52C3197.77 2347.8 3197.03 2352.39 3193.75 2354.75C3182.93 2362.56 3171.35 2369.93 3159.33 2376.67C3158.2 2377.31 3156.96 2377.61 3155.75 2377.61ZM3082.48 2409.37C3079.39 2409.37 3076.52 2407.4 3075.51 2404.29C3074.25 2400.44 3076.36 2396.31 3080.21 2395.05C3092.84 2390.96 3105.21 2386.31 3116.99 2381.23C3120.71 2379.61 3125.03 2381.33 3126.63 2385.05C3128.24 2388.77 3126.52 2393.08 3122.8 2394.69C3110.61 2399.95 3097.8 2404.77 3084.75 2409.01C3084 2409.25 3083.23 2409.37 3082.48 2409.37ZM3004.92 2428.81C3001.57 2428.81 2998.55 2426.51 2997.77 2423.11C2996.87 2419.16 2999.35 2415.23 3003.29 2414.32C3013.89 2411.91 3024.73 2409.48 3035.49 2407.13C3037.77 2406.63 3040.04 2406.12 3042.29 2405.59C3046.24 2404.67 3050.19 2407.12 3051.11 2411.07C3052.03 2415.01 3049.57 2418.95 3045.63 2419.87C3043.31 2420.41 3040.97 2420.95 3038.61 2421.45C3027.91 2423.8 3017.12 2426.21 3006.56 2428.63C3006 2428.75 3005.45 2428.81 3004.92 2428.81ZM2927.13 2447.55C2923.85 2447.55 2920.87 2445.33 2920.03 2442.01C2919.03 2438.08 2921.4 2434.09 2925.33 2433.09C2938.08 2429.85 2951.17 2426.63 2964.25 2423.48C2968.2 2422.52 2972.15 2424.95 2973.11 2428.89C2974.05 2432.83 2971.63 2436.79 2967.68 2437.73C2954.67 2440.87 2941.63 2444.09 2928.93 2447.31C2928.33 2447.47 2927.72 2447.55 2927.13 2447.55ZM2849.85 2468.31C2846.67 2468.31 2843.72 2466.2 2842.81 2462.97C2841.69 2459.08 2843.96 2455.03 2847.85 2453.92C2860.43 2450.33 2873.43 2446.75 2886.52 2443.23C2890.44 2442.17 2894.45 2444.51 2895.51 2448.41C2896.56 2452.32 2894.24 2456.35 2890.32 2457.4C2877.31 2460.89 2864.36 2464.47 2851.87 2468.03C2851.2 2468.21 2850.52 2468.31 2849.85 2468.31ZM2773.29 2491.55C2770.21 2491.55 2767.33 2489.57 2766.32 2486.48C2765.08 2482.63 2767.19 2478.49 2771.03 2477.24C2783.32 2473.24 2796.21 2469.2 2809.35 2465.23C2813.23 2464.04 2817.32 2466.24 2818.49 2470.11C2819.67 2473.99 2817.48 2478.08 2813.6 2479.25C2800.56 2483.21 2787.77 2487.23 2775.56 2491.19C2774.81 2491.43 2774.05 2491.55 2773.29 2491.55ZM2697.88 2518.23C2694.93 2518.23 2692.16 2516.45 2691.04 2513.56C2689.57 2509.77 2691.44 2505.53 2695.21 2504.05C2706.99 2499.48 2719.69 2494.79 2732.96 2490.11C2736.77 2488.76 2740.97 2490.77 2742.32 2494.59C2743.67 2498.4 2741.65 2502.6 2737.84 2503.95C2724.72 2508.56 2712.16 2513.2 2700.53 2517.73C2699.65 2518.07 2698.76 2518.23 2697.88 2518.23ZM2625.04 2551.23C2622.47 2551.23 2619.96 2549.87 2618.63 2547.45C2616.65 2543.92 2617.93 2539.45 2621.47 2537.48C2631.79 2531.75 2644.05 2525.71 2657.93 2519.52C2661.64 2517.88 2665.97 2519.53 2667.61 2523.24C2669.27 2526.95 2667.6 2531.28 2663.91 2532.92C2650.41 2538.93 2638.53 2544.77 2628.6 2550.31C2627.47 2550.93 2626.24 2551.23 2625.04 2551.23Z" fill="#F78937" fill-opacity="0.8"/>
<path d="M3962.13 164.787L4036.79 368.347C4039.63 376.107 4035.65 384.68 4027.91 387.52L3674.15 517.28C3666.4 520.12 3657.83 516.147 3654.99 508.387L3580.32 304.827C3577.48 297.08 3581.45 288.493 3589.2 285.653L3942.96 155.907C3950.71 153.053 3959.28 157.027 3962.13 164.787Z" fill="#F78937" fill-opacity="0.8"/>
<path d="M3962.13 164.787L3966.25 176.04L3847.53 350.934C3836.17 368.374 3814.8 376.427 3794.76 370.8L3582.68 311.254L3580.32 304.827C3577.48 297.08 3581.45 288.494 3589.21 285.64L3942.95 155.907C3950.69 153.067 3959.28 157.04 3962.13 164.787Z" fill="#dddddd"/>
<path d="M2655.91 769.8L2558.63 949.773C2554.92 956.64 2546.37 959.187 2539.52 955.48L2226.75 786.427C2219.89 782.72 2217.35 774.173 2221.05 767.307L2318.33 587.347C2322.04 580.48 2330.59 577.933 2337.44 581.64L2650.21 750.693C2657.05 754.4 2659.61 762.947 2655.91 769.8Z" fill="#F78937" fill-opacity="0.8"/>
<path d="M2655.91 769.8L2650.52 779.76L2452.69 805.08C2433.25 807.947 2414.21 797.867 2405.67 780.173L2315.25 593.027L2318.33 587.347C2322.03 580.493 2330.59 577.933 2337.44 581.64L2650.2 750.693C2657.05 754.387 2659.6 762.947 2655.91 769.8Z" fill="#dddddd"/>
<path d="M4161.39 2600.63H243.071C230.617 2600.63 220.523 2590.53 220.523 2578.08C220.523 2565.63 230.617 2555.53 243.071 2555.53H4161.39C4173.84 2555.53 4183.93 2565.63 4183.93 2578.08C4183.93 2590.53 4173.84 2600.63 4161.39 2600.63Z" fill="#EDC1A0"/>
<path d="M2755.09 1443.41L2759.19 1416.24C2759.19 1416.24 2740.16 1413.27 2741.17 1399.89L2761.19 1399.67C2761.19 1399.67 2771.96 1389.79 2759.59 1359.76C2756.73 1331.51 2775.36 1345.68 2777.91 1336.73C2781.65 1323.53 2805.28 1349.99 2806 1377.93C2806.95 1414.09 2787.71 1443.35 2787.71 1443.35L2755.09 1443.41Z" fill="#F37A50"/>
<path d="M2243.49 1725.16L2225.39 1708.73C2225.39 1708.73 2226.56 1675.04 2206.92 1677.39C2201.63 1678.01 2216.6 1696.55 2205.75 1697.6C2203.48 1697.83 2196.08 1689.99 2185.81 1677.39C2178.2 1662.72 2162.75 1662.56 2155.93 1665.35C2143.23 1670.55 2141.61 1695.71 2161.09 1715.77C2186.28 1741.73 2220.65 1748.43 2220.65 1748.43L2243.49 1725.16Z" fill="#F37A50"/>
<path d="M2445.16 2507.17C2418.32 2544.91 2352.43 2521.75 2354.61 2572.8C2454.81 2572.15 2496.45 2572.8 2496.45 2572.8C2496.33 2561.08 2494.35 2533.25 2492.04 2522.36L2445.16 2507.17Z" fill="black"/>
<path d="M2595.08 2508.16C2568.24 2545.91 2502.35 2522.75 2504.53 2573.79C2604.73 2573.13 2646.39 2573.79 2646.39 2573.79C2646.25 2562.07 2644.27 2534.24 2641.96 2523.35L2595.08 2508.16Z" fill="black"/>
<path d="M2398.77 1930.97C2398.77 1930.97 2382.49 2172.88 2389.11 2226.65C2395.72 2280.44 2419.12 2349.39 2416.47 2527.27C2449.13 2535.6 2496.45 2527.27 2496.45 2527.27C2496.45 2527.27 2503.48 2326.12 2468.95 2236.28C2482.99 2149.01 2528.04 1949.15 2528.04 1949.15L2398.77 1930.97Z" fill="#0E6A41"/>
<path d="M2447.32 1937.59C2447.32 1937.59 2480.17 2209.16 2496.25 2260.67C2512.33 2312.17 2539.93 2352.01 2569.05 2527.25C2602.61 2528.97 2649.93 2530.97 2649.93 2530.97C2649.93 2530.97 2633.11 2308.69 2580.83 2258.15C2579.05 2169.64 2589.28 1939.33 2589.28 1939.33L2447.32 1937.59Z" fill="#3F964F"/>
<path d="M2574.08 1611.4C2574.08 1611.4 2576.49 1613.27 2711.84 1589.96C2711.88 1589.95 2711.92 1589.96 2711.95 1589.99L2759.83 1630.8C2759.89 1630.85 2759.89 1630.95 2759.84 1631C2724.16 1670.45 2570.32 1694.6 2570.32 1694.6L2574.08 1611.4Z" fill="#EDC1A0"/>
<path d="M2516.56 1581.73L2469 1574.07L2421.84 1583.88L2470.41 1641.05L2516.56 1581.73Z" fill="#607edb"/>
<path d="M2499.09 1609.52C2480.28 1624.21 2460.37 1630.49 2439.68 1615.61L2436.83 1542.41L2498.87 1541.68L2499.09 1609.52Z" fill="#F37A50"/>
<path d="M2407.84 1608.71L2422.4 1604.04L2421.84 1583.88L2459.07 1618.11L2470.05 1620.61L2480.92 1617.61L2516.56 1581.73L2516.91 1601.89L2529.25 1605.24L2581.55 1612.41V1844.88L2601.07 1952.4C2539.85 1968.32 2448.67 1969.17 2383.44 1955.71L2394.23 1857.73L2371.52 1622.19L2407.84 1608.71Z" fill="#EDC1A0"/>
<path d="M2467.83 1646.52C2467.83 1646.52 2474.36 1788.69 2485.05 1861.47C2481.6 1865.64 2466.01 1884.51 2466.01 1884.51C2466.01 1884.51 2447.08 1866.56 2441.96 1863.32C2430.31 1735.04 2451.31 1647.2 2451.31 1647.2L2467.83 1646.52Z" fill="#e62552"/>
<path d="M2479.77 1621.8L2459.72 1616.63L2445.04 1622.49L2451.31 1647.2L2469.05 1647.15L2479.77 1621.8Z" fill="#c4204a"/>
<path d="M2459.72 1616.63C2459.72 1616.63 2475.87 1638.01 2490.57 1646.49L2528.33 1606.45L2516.72 1581.72L2459.72 1616.63Z" fill="#dddddd"/>
<path d="M2459.72 1616.63C2459.72 1616.63 2446.95 1635.19 2430.31 1647.48L2400.89 1610.63L2421.84 1583.88L2459.72 1616.63Z" fill="#dddddd"/>
<path d="M2792.68 1439.21C2771.16 1434.25 2759.89 1432.17 2743.67 1433.71C2716.2 1551.63 2692.97 1597.28 2707.49 1629C2719.6 1655.44 2749.45 1650.39 2762.21 1628.51C2779.03 1599.63 2786.43 1495.28 2792.68 1439.21Z" fill="#EDC1A0"/>
<path d="M2373.47 1621.93C2341.4 1623.12 2303.81 1773.43 2303.81 1773.43L2241.21 1706.64L2205.75 1755.92C2205.75 1755.92 2297.84 1869.52 2333.17 1858.92C2366.17 1849.01 2383.03 1730.44 2383.03 1730.44L2373.47 1621.93Z" fill="#EDC1A0"/>
<path d="M2518.25 1539.05C2548.79 1542.68 2564.75 1503.68 2564.75 1503.68C2583.44 1500.59 2580.29 1481.96 2580.29 1481.96C2589.16 1479.25 2600.99 1469.72 2597.17 1452.79C2593.96 1438.45 2579.89 1439.13 2578.08 1422.33C2576.63 1408.87 2586.29 1375.84 2543.29 1373.29C2543.29 1373.29 2542.23 1348.25 2516.4 1342.28C2484.73 1334.95 2476.91 1353.97 2463.03 1357.39C2447.52 1361.21 2414.19 1346.96 2409.84 1382.85C2409.84 1382.85 2387.71 1383.37 2377.53 1399.48C2368.07 1414.49 2373.63 1433.67 2380 1440.72C2380 1440.72 2362.25 1446.77 2358.17 1463.59C2355.44 1474.87 2359.84 1489.43 2371.07 1496.51C2378.21 1501 2385 1501.41 2385 1501.41C2392.25 1502.6 2392.71 1522 2399.09 1525.76C2409.35 1531.77 2420.48 1536.03 2431.81 1539.39L2518.25 1539.05Z" fill="#2C2858"/>
<path d="M2400.88 1464.51C2397.36 1517.16 2426.25 1561.97 2465.43 1564.59C2504.6 1567.2 2539.21 1526.64 2542.72 1473.99C2546.24 1421.33 2514.92 1387.32 2475.75 1384.69C2436.59 1382.08 2404.4 1411.84 2400.88 1464.51Z" fill="#F37A50"/>
<path d="M2500.28 1491.59C2504.44 1491.85 2508.04 1488.71 2508.32 1484.55C2508.6 1480.39 2505.45 1476.79 2501.28 1476.51C2497.12 1476.23 2493.52 1479.37 2493.24 1483.55C2492.96 1487.71 2496.11 1491.31 2500.28 1491.59Z" fill="black"/>
<path d="M2440.2 1487.57C2444.36 1487.84 2447.96 1484.69 2448.24 1480.53C2448.52 1476.37 2445.37 1472.77 2441.21 1472.49C2437.05 1472.21 2433.44 1475.36 2433.17 1479.52C2432.89 1483.69 2436.04 1487.29 2440.2 1487.57Z" fill="black"/>
<path d="M2427.88 1472.35C2429.12 1472.43 2430.36 1471.88 2431.12 1470.79C2433.19 1467.77 2435.56 1466.04 2438.19 1465.64C2442.72 1464.95 2446.95 1468.23 2447 1468.27C2448.56 1469.49 2450.84 1469.24 2452.08 1467.68C2453.33 1466.11 2453.08 1463.84 2451.53 1462.6C2451.27 1462.37 2444.88 1457.32 2437.19 1458.45C2432.45 1459.15 2428.41 1461.91 2425.13 1466.68C2424 1468.32 2424.41 1470.59 2426.07 1471.72C2426.63 1472.11 2427.25 1472.31 2427.88 1472.35Z" fill="#2C2858"/>
<path d="M2515.51 1478.57C2516.31 1478.63 2517.12 1478.43 2517.83 1477.93C2519.47 1476.79 2519.87 1474.52 2518.73 1472.88C2514.36 1466.63 2509.32 1463.04 2503.72 1462.23C2496.49 1461.17 2491.2 1465.32 2490.97 1465.51C2489.41 1466.75 2489.16 1469.04 2490.41 1470.6C2491.65 1472.16 2493.92 1472.41 2495.48 1471.19C2495.6 1471.11 2498.73 1468.8 2502.76 1469.41C2506.27 1469.96 2509.64 1472.52 2512.77 1477.03C2513.43 1477.97 2514.45 1478.51 2515.51 1478.57Z" fill="#2C2858"/>
<path d="M2462.8 1491.44C2452.59 1497.83 2449.35 1500.51 2445.44 1502.6C2447.45 1511.48 2460.81 1516.71 2464.76 1515.96C2455.56 1510.64 2454.65 1504.2 2454.65 1504.2L2462.8 1491.44Z" fill="#DE623C"/>
<path d="M2530.07 1482.64C2522.75 1493.56 2523.39 1506.81 2531.48 1512.24C2539.57 1517.65 2552.05 1513.2 2559.37 1502.28C2566.69 1491.36 2566.07 1478.11 2557.97 1472.69C2549.88 1467.27 2537.39 1471.72 2530.07 1482.64Z" fill="#F37A50"/>
<path d="M2537.28 1503.35C2537.6 1503.37 2537.92 1503.33 2538.24 1503.23C2539.49 1502.79 2540.17 1501.4 2539.73 1500.15C2538.28 1495.95 2538.47 1492.67 2540.27 1490.37C2543.05 1486.85 2549.13 1486.11 2553.48 1486.55C2554.8 1486.68 2556 1485.72 2556.12 1484.39C2556.27 1483.05 2555.29 1481.87 2553.96 1481.73C2548.13 1481.15 2540.47 1482.32 2536.47 1487.37C2534.48 1489.89 2532.64 1494.43 2535.16 1501.72C2535.49 1502.67 2536.35 1503.28 2537.28 1503.35Z" fill="#DE623C"/>
<path d="M2492.41 1528.17C2493.63 1526.47 2492.23 1524.15 2490.16 1524.44C2484.91 1525.19 2476.21 1526.24 2467.89 1526.43C2459.59 1526.61 2450.85 1525.95 2445.57 1525.44C2443.49 1525.24 2442.2 1527.61 2443.48 1529.25C2447.43 1534.33 2455.49 1541.97 2468.24 1541.69C2480.99 1541.41 2488.71 1533.41 2492.41 1528.17Z" fill="#dddddd"/>
<path d="M2567.61 1436.49L2483.8 1366.21L2388.91 1412.28L2399.17 1480.27C2402.19 1449.01 2421.17 1459.48 2431.25 1450.52C2441.48 1441.44 2446.15 1427.04 2469.52 1440.31C2469.52 1440.31 2488.96 1427.49 2498.44 1446.29C2505.76 1460.83 2516.15 1458.28 2526.44 1459.23C2538.56 1460.36 2535.44 1472.11 2542.87 1471.87L2567.61 1436.49Z" fill="#2C2858"/>
<path d="M2852.75 1276.05C2868.97 1326.68 2841.09 1380.87 2790.48 1397.11C2739.85 1413.33 2685.67 1385.45 2669.43 1334.83C2653.2 1284.21 2681.08 1230.01 2731.69 1213.79C2782.32 1197.55 2836.52 1225.43 2852.75 1276.05Z" fill="#F78937" fill-opacity="0.9"/>
<path d="M2711.75 1289.48C2720.28 1286.75 2729.4 1291.44 2732.13 1299.96C2734.87 1308.48 2730.17 1317.61 2721.65 1320.33C2713.12 1323.07 2704 1318.37 2701.27 1309.85C2698.53 1301.33 2703.23 1292.21 2711.75 1289.48Z" fill="#dddddd"/>
<path d="M2790.28 1264.29C2798.8 1261.57 2807.93 1266.27 2810.67 1274.79C2813.4 1283.31 2808.71 1292.43 2800.17 1295.16C2791.65 1297.89 2782.53 1293.2 2779.8 1284.68C2777.07 1276.16 2781.76 1267.03 2790.28 1264.29Z" fill="#dddddd"/>
<path d="M2729.59 1342.25C2728.77 1342.51 2727.97 1342.89 2727.24 1343.37C2723.93 1345.57 2723.08 1349.24 2725.32 1351.56C2736.4 1363.01 2756.72 1366.59 2775.88 1360.44C2794.49 1354.48 2808.51 1340.72 2811.57 1325.39C2812.23 1322.19 2809.55 1319.6 2805.6 1319.6C2801.65 1319.6 2797.95 1322.19 2797.29 1325.39C2795.16 1336.05 2785.41 1345.63 2772.47 1349.77C2759.13 1354.05 2745 1351.57 2737.28 1343.6C2735.55 1341.8 2732.44 1341.33 2729.59 1342.25Z" fill="#dddddd"/>
<path d="M2765.63 1401.65C2760.77 1399.84 2757.76 1398.99 2757.05 1391.59C2756.35 1384.2 2756.93 1374.77 2750.76 1377.85C2744.59 1380.92 2740.25 1395.47 2741.29 1401.44C2748.41 1405.73 2765.63 1401.65 2765.63 1401.65Z" fill="#F37A50"/>
<path d="M1284.72 1404.27C1276.43 1410 1264.68 1413.25 1262.77 1422.99L1237.37 1414.8C1237.83 1382.57 1267.37 1353.88 1270.7 1351.44C1279.37 1345.11 1283.06 1341.59 1284.51 1342.39C1285.97 1343.17 1293.14 1349.97 1280.81 1359.6C1265.35 1371.68 1284.48 1378.32 1310.63 1345.17C1317.18 1336.88 1335.61 1331.37 1333.59 1341.04C1331.36 1351.71 1322.45 1378.2 1284.72 1404.27Z" fill="#F37A50"/>
<path d="M1023.05 2492.44C1050.28 2528.75 1117.15 2506.47 1114.93 2555.59C1013.25 2554.96 970.989 2555.59 970.989 2555.59C971.123 2544.31 973.133 2517.53 975.477 2507.04L1023.05 2492.44Z" fill="black"/>
<path d="M870.912 2493.39C898.14 2529.71 965.008 2507.41 962.795 2556.55C861.109 2555.91 818.849 2556.55 818.849 2556.55C818.983 2545.27 820.993 2518.48 823.339 2508L870.912 2493.39Z" fill="black"/>
<path d="M1070.12 1937.96C1070.12 1937.96 1086.63 2170.73 1079.93 2222.49C1073.22 2274.24 1049.47 2340.59 1052.16 2511.77C1019.01 2519.8 970.99 2511.77 970.99 2511.77C970.99 2511.77 963.868 2318.21 998.911 2231.76C984.662 2147.79 938.938 1955.44 938.938 1955.44L1070.12 1937.96Z" fill="#201D40"/>
<path d="M1007.38 1944.32C1007.38 1944.32 974.044 2205.65 957.725 2255.23C941.407 2304.8 921.743 2341.03 892.199 2509.67C858.135 2511.31 811.653 2515.33 811.653 2515.33C811.653 2515.33 818.849 2301.44 871.904 2252.79C873.7 2167.63 863.325 1946 863.325 1946L1007.38 1944.32Z" fill="#2C2858"/>
<path d="M1046.19 1593.33C1046.19 1593.33 1051.27 1591.11 1179.73 1560.05C1179.76 1560.04 1179.8 1560.05 1179.83 1560.07C1179.83 1560.07 1228.5 1596.31 1228.45 1596.37C1196.72 1636.55 1056.69 1679.55 1056.69 1679.55L1046.2 1593.35C1046.2 1593.35 1046.19 1593.33 1046.19 1593.33Z" fill="#201D40"/>
<path d="M987.228 1591.76L941.075 1587.45L896.423 1599.91L946.734 1651.68L987.228 1591.76Z" fill="#EDC1A0"/>
<path d="M971.228 1615.52C952.42 1630.96 931.274 1633.81 908.619 1621L902.625 1559.56L967.673 1554.44L971.228 1615.52Z" fill="#F37A50"/>
<path d="M884.573 1624.64L898.252 1619.23L896.423 1599.91L934.361 1630.37L945.076 1632.08L955.316 1628.49L987.228 1591.76L988.864 1611.09L1000.93 1613.52L1044.46 1620.57L1049.64 1862.13L1066.81 1944.32C1009.06 1963.53 944.473 1968.32 880.984 1959.57L883.117 1877.07L838.019 1640.99L884.573 1624.64Z" fill="#EDC1A0"/>
<path d="M953.419 1656.48L980.683 1840.92L965.585 1861.91L945.903 1846.77L939.207 1658.01L953.419 1656.48Z" fill="#2C2858"/>
<path d="M955.043 1634.71L945.076 1632.08L934.925 1636.51L939.22 1658.39L953.511 1657.09L955.043 1634.71Z" fill="#2C2858"/>
<path d="M987.228 1591.76L994.7 1816.11L1024.19 1959.57C1024.19 1959.57 1080.81 1962.83 1109.46 1935.56L1073.69 1819.27L1046.2 1593.35L987.228 1591.76Z" fill="#2C2858"/>
<path d="M987.228 1591.76L994.661 1813.12L1028.61 1644.67L987.228 1591.76Z" fill="#494C7F"/>
<path d="M892.933 1607.56L952.849 1968.76C952.849 1968.76 858.603 1977.76 825.223 1960.77L846.815 1851.79L835.453 1636.59L892.933 1607.56Z" fill="#2C2858"/>
<path d="M892.933 1607.56L928.327 1819.27L864.949 1659.53L892.933 1607.56Z" fill="#494C7F"/>
<path d="M884.8 2167.77H695.053C690.967 2167.77 687.653 2164.47 687.653 2160.37V2052.08C687.653 2047.99 690.967 2044.68 695.053 2044.68H884.8C888.887 2044.68 892.199 2047.99 892.199 2052.08V2160.37C892.199 2164.47 888.887 2167.77 884.8 2167.77Z" fill="#EDC1A0"/>
<path d="M883.753 2063.08C883.753 2069.09 878.88 2073.96 872.867 2073.96C866.855 2073.96 861.98 2069.09 861.98 2063.08C861.98 2057.07 866.855 2052.19 872.867 2052.19C878.88 2052.19 883.753 2057.07 883.753 2063.08Z" fill="#494C7F"/>
<path d="M869.604 2083.17C871.433 2080.79 874.851 2080.33 877.236 2082.16C879.622 2083.99 880.074 2087.4 878.244 2089.79C876.415 2092.17 872.998 2092.63 870.611 2090.8C868.226 2088.97 867.775 2085.55 869.604 2083.17Z" fill="#494C7F"/>
<path d="M1274.99 1418.11C1254.83 1411.39 1244.22 1408.36 1228.54 1408.36C1191.47 1518.81 1165.06 1560.43 1176.07 1592.15C1185.26 1618.57 1214.33 1616.47 1228.54 1596.65C1247.29 1570.52 1263.89 1471.25 1274.99 1418.11Z" fill="#201D40"/>
<path d="M777.175 2005.81L776.567 2032.24C776.567 2032.24 795.431 2031.68 796.089 2044.56L778.375 2045.12C778.375 2045.12 767.593 2059.04 783.047 2086.21C789.209 2112.83 769.7 2101.57 768.361 2110.41C766.388 2123.47 740.623 2101.09 736.531 2074.49C731.235 2040.09 738.259 2035.96 738.259 2035.96L746.051 2009.83L777.175 2005.81Z" fill="#F37A50"/>
<path d="M836.099 1636.59C805.38 1639.79 716.991 1819.27 716.991 1819.27L734.555 2020.51L784.32 2012.47L799.064 1842.37L847.792 1746.09L836.099 1636.59Z" fill="#201D40"/>
<path d="M871.609 1516.77C889.678 1561.92 933.074 1587.03 968.537 1572.83C1004 1558.64 1018.1 1510.53 1000.03 1465.37C981.962 1420.23 938.565 1395.13 903.102 1409.32C867.64 1423.51 853.538 1471.61 871.609 1516.77Z" fill="#F37A50"/>
<path d="M984.61 1480.2C986.705 1483.21 990.845 1483.95 993.857 1481.85C996.869 1479.76 997.612 1475.63 995.517 1472.61C993.422 1469.6 989.282 1468.85 986.27 1470.95C983.258 1473.05 982.516 1477.19 984.61 1480.2Z" fill="black"/>
<path d="M934.856 1500.51C937.124 1503.76 941.605 1504.57 944.865 1502.31C948.125 1500.04 948.931 1495.56 946.663 1492.29C944.395 1489.04 939.913 1488.23 936.653 1490.49C933.392 1492.76 932.588 1497.24 934.856 1500.51Z" fill="black"/>
<path d="M973.314 1489.21C982.297 1496.29 993.526 1504.83 993.526 1504.83C993.526 1504.83 993.641 1515.65 980.989 1520.35C985.568 1516.2 989.585 1510.67 984.821 1504.29C980.057 1497.92 973.314 1489.21 973.314 1489.21Z" fill="#DE623C"/>
<path d="M921.764 1496.17C923.264 1496.17 924.623 1495.16 924.985 1493.63C925.073 1493.28 927.3 1484.64 934.703 1484.61C936.533 1484.6 938.011 1483.11 938.001 1481.28C937.993 1479.44 936.489 1477.97 934.672 1477.97C924.563 1478.03 919.697 1487.23 918.537 1492.09C918.112 1493.88 919.212 1495.67 920.992 1496.09C921.251 1496.15 921.509 1496.17 921.764 1496.17Z" fill="#2C2858"/>
<path d="M977.655 1466.15C978.597 1466.15 979.515 1465.67 980.031 1464.8C980.083 1464.71 981.868 1461.85 984.829 1461.33C986.917 1460.96 989.279 1461.81 991.845 1463.87C993.037 1464.83 994.775 1464.63 995.728 1463.44C996.681 1462.24 996.488 1460.51 995.297 1459.55C991.405 1456.44 987.532 1455.21 983.785 1455.91C978.3 1456.92 975.395 1461.79 975.275 1461.99C974.503 1463.31 974.944 1465 976.26 1465.77C976.699 1466.03 977.18 1466.15 977.655 1466.15Z" fill="#2C2858"/>
<path d="M882.236 1513.61C882.227 1495.95 897.608 1499.69 899.233 1476.4C900.858 1453.12 903.065 1435.45 925.16 1439.28C947.255 1443.11 954.35 1440.17 961.458 1432.65C968.565 1425.15 996.333 1457.11 996.333 1457.11C996.333 1457.11 1020.23 1422.87 996.708 1404.13C970.636 1383.39 965.556 1400.24 941.825 1385.71C918.094 1371.16 883.973 1381.01 877.05 1395.49C869.752 1410.77 868.461 1421.69 847.792 1432.41C827.124 1443.13 816.803 1460.96 836.099 1483.05C855.395 1505.15 823.636 1521.2 856.021 1541.57C868.584 1549.47 886.227 1551.44 889.683 1546.92C894.309 1540.87 882.243 1524.99 882.236 1513.61Z" fill="#2C2858"/>
<path d="M1006.07 1486.56C1006.07 1486.56 1008.15 1512.72 1004.38 1520.81C1000.45 1510.32 992.021 1521.44 984.103 1522.49C964.967 1525.03 930.447 1518.64 927.025 1547.35C903.641 1554.75 881.739 1504.69 881.739 1504.69C878.815 1563.13 921.315 1592.36 980.201 1583.07C1019 1576.93 1022.6 1522.91 1006.07 1486.56Z" fill="#2C2858"/>
<path d="M995.22 1537.48C996.193 1535.89 994.809 1533.91 992.984 1534.29C988.341 1535.27 980.652 1536.72 973.247 1537.39C965.841 1538.05 958.015 1537.97 953.272 1537.84C951.407 1537.79 950.396 1539.97 951.637 1541.37C955.451 1545.65 963.109 1552 974.46 1550.99C985.811 1549.97 992.224 1542.37 995.22 1537.48Z" fill="#dddddd"/>
<path d="M883.204 1507.59C893.881 1512.67 899.162 1523.87 895 1532.61C890.838 1541.35 878.809 1544.31 868.133 1539.23C857.456 1534.13 852.173 1522.93 856.336 1514.19C860.497 1505.45 872.526 1502.49 883.204 1507.59Z" fill="#F37A50"/>
<path d="M883.337 1532.91C883.64 1532.67 883.892 1532.35 884.066 1531.96C886.54 1526.53 885.717 1521.24 881.864 1517.77C877.917 1514.24 871.888 1513.55 867.525 1516.13C866.297 1516.87 865.892 1518.45 866.622 1519.68C867.351 1520.91 868.938 1521.31 870.166 1520.59C872.556 1519.16 876.177 1519.63 878.409 1521.63C880.555 1523.55 880.892 1526.47 879.36 1529.83C878.767 1531.12 879.34 1532.65 880.639 1533.25C881.561 1533.67 882.6 1533.51 883.337 1532.91Z" fill="#DE623C"/>
<path d="M945.076 1632.08C945.076 1632.08 935.285 1648.91 916.504 1659.39L889.357 1614.2L896.423 1599.91L945.076 1632.08Z" fill="#dddddd"/>
<path d="M945.076 1632.08C945.076 1632.08 962.254 1649.43 978.05 1653.87L996.892 1604.12L987.228 1591.76L945.076 1632.08Z" fill="#dddddd"/>
<path d="M498.001 1621.41C542.236 1632.47 617.841 1735.81 624.919 1813.31C600.648 1818.33 572.917 1798.99 572.917 1798.99L512.824 1712.56L498.001 1621.41Z" fill="#DE623C"/>
<path d="M455.791 1397.85C435.481 1364.44 382.351 1347.72 363.196 1385.03C344.044 1422.32 338.84 1449.37 291.459 1428.76C253.725 1412.36 203.093 1435.65 186.831 1490.93C166.025 1561.65 223.132 1548.55 201.492 1580.15C179.852 1611.73 162.107 1645.01 212.32 1661.04C262.535 1677.07 314.259 1646.29 325.264 1587.07C336.269 1527.84 366.861 1559.77 385.941 1534.49C413.072 1498.55 455.791 1397.85 455.791 1397.85Z" fill="#201D40"/>
<path d="M540.775 2508.08L564.467 2414.76L505.685 2406.67C503.668 2450.8 500.368 2494.25 500.656 2506.03L540.775 2508.08Z" fill="#F37A50"/>
<path d="M400.512 2406.13H339.136C341.153 2420.84 349.203 2500.48 349.203 2500.48C354.389 2512.25 400.128 2509.57 400.128 2502.95C396.669 2488.6 400.223 2407.97 400.512 2406.13Z" fill="#F37A50"/>
<path d="M500.869 2442.61L561.396 2451.55L603.367 2200.56C594.723 2105.31 510.872 1902.67 510.872 1902.67L416.36 1935.76L414.055 2025.13L527.872 2217.84C513.036 2255.11 502.887 2375.6 500.869 2442.61Z" fill="#c4204a"/>
<path d="M454.085 1909.39C453.221 1903.49 452.932 1901.65 448.033 1898.72L357.268 1872.97L335.656 1894.31C315.197 1968.59 327.876 2071.93 344.013 2153.95C320.385 2224.92 329.628 2371.24 339.136 2440.01H403.681C407.427 2394.04 406.252 2308.77 406.541 2267.59C414.897 2234.48 422.965 2199.17 430.168 2162.04C439.389 2114.59 450.916 2068.63 454.085 2025.6C456.967 1984.77 457.831 1941.01 454.085 1909.39Z" fill="#e62552"/>
<path d="M380.941 1489.01C369.488 1537.01 390.757 1583.2 428.447 1592.2C466.137 1601.19 505.975 1569.59 517.428 1521.6C528.881 1473.61 507.612 1427.41 469.923 1418.41C432.233 1409.43 392.395 1441.03 380.941 1489.01Z" fill="#F37A50"/>
<path d="M339.595 1610.09C318.536 1623.91 230.488 1738.47 275.803 1834.08C276.408 1835.36 277.568 1835.17 278.221 1836.44C280.512 1837.72 319.871 1771.49 319.871 1771.49L366.725 1678.73L339.595 1610.09Z" fill="#F37A50"/>
<path d="M384.751 1549.23L441.1 1581.23C441.1 1581.23 446.1 1604.04 448.596 1611.44C453.747 1626.72 434.013 1633.39 417.332 1623.88C400.651 1614.37 389.849 1601.65 389.849 1601.65L384.751 1549.23Z" fill="#F37A50"/>
<path d="M522.925 1506.52C510.115 1502.31 504.177 1482.65 498.8 1467.55C471.951 1521.53 372.939 1513.83 368.748 1503.19C360.063 1440.29 387.583 1394.53 455.236 1396.59C548.007 1399.4 522.925 1506.52 522.925 1506.52Z" fill="#2C2858"/>
<path d="M497.007 1530.01C498.225 1533.52 502.064 1535.39 505.581 1534.17C509.097 1532.95 510.96 1529.11 509.741 1525.6C508.523 1522.08 504.684 1520.21 501.168 1521.44C497.652 1522.65 495.788 1526.49 497.007 1530.01Z" fill="black"/>
<path d="M448.343 1516.21C449.663 1520.01 453.817 1522.03 457.624 1520.71C461.431 1519.39 463.447 1515.24 462.128 1511.43C460.809 1507.63 456.653 1505.61 452.847 1506.93C449.04 1508.24 447.024 1512.4 448.343 1516.21Z" fill="black"/>
<path d="M515.367 1516.72C515.635 1516.67 515.897 1516.57 516.145 1516.43C517.359 1515.73 517.775 1514.17 517.075 1512.96C511.633 1503.55 501.597 1504.08 501.173 1504.11C499.777 1504.2 498.715 1505.4 498.805 1506.8C498.895 1508.2 500.095 1509.25 501.488 1509.17C501.817 1509.15 508.855 1508.88 512.681 1515.51C513.237 1516.47 514.333 1516.92 515.367 1516.72Z" fill="#2C2858"/>
<path d="M483.511 1534.17C484.652 1539.36 485.347 1544.4 487.177 1548.15C487.795 1549.41 487.285 1550.96 486.053 1551.64C480.967 1554.44 471.696 1553.59 466.215 1552.75C465.413 1552.63 465.408 1551.48 466.207 1551.35C472.965 1550.21 476.599 1548.55 478.352 1547.48C479.223 1546.96 479.773 1546.04 479.861 1545.03C480.061 1542.69 480.513 1537.97 481.159 1534.23C481.381 1532.93 483.228 1532.89 483.511 1534.17Z" fill="#DE623C"/>
<path d="M394.333 1512.25C400.343 1522.17 398.631 1534.21 390.509 1539.12C382.388 1544.04 370.933 1539.99 364.924 1530.07C358.915 1520.13 360.627 1508.11 368.748 1503.19C376.869 1498.27 388.325 1502.33 394.333 1512.25Z" fill="#F37A50"/>
<path d="M384.487 1530.69C384.847 1530.57 385.185 1530.36 385.469 1530.07C389.556 1525.88 390.557 1520.71 388.149 1516.24C385.683 1511.65 380.344 1509.03 375.457 1509.96C374.081 1510.23 373.181 1511.56 373.447 1512.93C373.712 1514.31 375.043 1515.21 376.419 1514.95C379.096 1514.43 382.287 1516.05 383.683 1518.64C385.024 1521.13 384.368 1523.93 381.839 1526.52C380.86 1527.53 380.88 1529.13 381.883 1530.11C382.593 1530.8 383.608 1531 384.487 1530.69Z" fill="#DE623C"/>
<path d="M524.897 1917.49C524.897 1917.49 501.645 1945.03 497.719 1947.08L476.895 1924.35L476.747 1924.73L471.807 1937.75L466.031 1952.95C461.2 1952.95 315.992 1920.41 315.992 1920.41C316.289 1907.33 328.596 1864.93 348.515 1819.79C343.684 1781.55 348.327 1741.81 346.815 1719.77C358.541 1660.65 350.175 1637.95 339.595 1610.09L376.437 1599.23L442.752 1622.61L447.677 1606.61C447.677 1606.61 489.256 1616.59 498.001 1621.41L513.709 1686.97L510.308 1826.27C510.308 1826.27 515.531 1882.35 524.897 1917.49Z" fill="#3F964F"/>
<path d="M388.895 1591.84L363.264 1602.88C366.005 1634.08 435.817 1652.72 435.817 1652.72L442.749 1622.61L388.895 1591.84Z" fill="#0E6A41"/>
<path d="M442.749 1622.61L463.305 1645.45C463.305 1645.45 481.08 1627.07 474.647 1615.71C468.215 1604.33 444.653 1596.68 444.653 1596.68L442.749 1622.61Z" fill="#0E6A41"/>
<path d="M458.692 1577.47C457.068 1577.27 455.477 1576.89 453.917 1576.39C442.404 1572.59 437.072 1561.83 436.851 1561.37C436.165 1559.96 436.753 1558.27 438.164 1557.59C439.571 1556.89 441.265 1557.48 441.952 1558.89C441.996 1558.97 446.525 1568 455.748 1571.01C461.756 1572.97 468.548 1572.01 475.936 1568.16C477.324 1567.44 479.039 1567.97 479.764 1569.36C480.489 1570.75 479.951 1572.47 478.561 1573.19C471.568 1576.84 464.907 1578.28 458.692 1577.47Z" fill="#DE623C"/>
<path d="M526.475 2506.57C532.624 2490.43 545.764 2488.63 545.764 2488.63C571.308 2522.71 634.037 2501.8 631.961 2547.88C536.568 2547.29 496.923 2547.88 496.923 2547.88C497.049 2537.29 498.935 2512.17 501.135 2502.33L506.107 2503.23L526.475 2506.57Z" fill="#2C2858"/>
<path d="M626.441 2560.19H502.493C499.417 2560.19 496.923 2557.69 496.923 2554.61V2546.61H632.011V2554.61C632.011 2557.69 629.517 2560.19 626.441 2560.19Z" fill="#dddddd"/>
<path d="M476.747 1924.73L471.807 1937.75C467.328 1907.81 450.633 1782.55 460.053 1747.96C468.892 1715.48 457.84 1681.23 447.139 1648.11C444.533 1640.01 441.82 1631.65 439.5 1623.53L442.752 1622.61L445.991 1621.68C448.285 1629.68 450.971 1637.99 453.561 1646.04C464.56 1680.09 475.923 1715.32 466.557 1749.75C458.433 1779.6 470.889 1882.43 476.747 1924.73Z" fill="#0E6A41"/>
<path d="M411.059 2548.33C411.059 2548.33 403.401 2519.76 402.727 2516.08C401.959 2511.91 399.708 2502.05 399.249 2496.99C399.136 2495.75 385.987 2487.71 375.947 2487.72C362.348 2487.73 349.953 2495.61 349.703 2497.11C348.097 2506.64 348.049 2517.85 345.449 2527.13C343.515 2534.04 338.26 2550.13 338.26 2550.13L411.059 2548.33Z" fill="#2C2858"/>
<path d="M411.057 2546.11C409.273 2551.77 387.255 2545.24 371.187 2545.24C357.696 2545.24 340.243 2550.47 338.259 2548.44C334.887 2554.39 337.664 2566.75 337.664 2566.75C337.664 2566.75 351.723 2567.47 368.583 2566.75C385.444 2566.01 404.929 2567.09 412.269 2564.91C416.9 2557.17 411.057 2546.11 411.057 2546.11Z" fill="#dddddd"/>
<path d="M439.243 1741.23C439.243 1741.23 334.169 1846.56 285.027 1839.51C278.583 1838.57 276.564 1837.57 274.825 1831.12C269.081 1809.81 297.464 1775.67 324.209 1763.44C353.695 1749.97 403.189 1728.73 403.189 1728.73L439.243 1741.23Z" fill="#F37A50"/>
<path d="M463.737 1705.23L509.657 1670.17C510.707 1669.37 512.044 1669.04 513.347 1669.27L547.328 1675.01C548.267 1675.17 548.563 1676.37 547.804 1676.95L515.505 1701.44C515.349 1701.56 515.164 1701.63 514.968 1701.65L464.515 1707.17C463.42 1707.29 462.861 1705.89 463.737 1705.23Z" fill="#f9f93a" fill-opacity="0.75"/>
<path d="M401.929 1729.36L429.06 1715.77C429.06 1715.77 446.261 1697.05 451.645 1691.45C458.517 1689.45 471.889 1683.68 474.616 1683.88C477.343 1684.08 481.948 1685.69 481.948 1685.69L466.245 1697.97C466.245 1697.97 472.645 1700.93 481.624 1697.35C490.604 1693.75 507.34 1682.73 513.785 1686.69C515.839 1689.33 515.839 1689.33 515.839 1689.33C515.839 1689.33 521.501 1684.95 524.905 1687.99C535.432 1697.37 467.528 1737.84 467.528 1737.84L439.243 1741.23L401.929 1729.36Z" fill="#F37A50"/>
<path d="M624.919 1813.31C624.919 1813.31 564.679 1882.2 522.748 1891.93C520.253 1878.13 517.961 1867.56 517.961 1867.56L575.124 1792.31L624.919 1813.31Z" fill="#DE623C"/>
<path d="M515.128 1895.72C515.325 1895.12 515.636 1894.6 515.993 1894.12C515.892 1894.08 515.792 1894.07 515.691 1894.03C509.739 1892.05 506.065 1886.99 507.485 1882.72C507.719 1882.03 508.084 1881.4 508.543 1880.83C505.388 1878.39 503.797 1874.95 504.809 1871.89C505.212 1870.68 505.991 1869.68 507.02 1868.88C503.711 1866.65 502.013 1862.91 503.148 1859.49C504.568 1855.23 509.837 1853.13 514.916 1854.83C519.996 1856.51 522.963 1861.33 521.544 1865.6C521.184 1866.68 520.577 1867.63 519.789 1868.4C524.753 1870.69 527.643 1875.19 526.36 1879.05C526.127 1879.75 525.76 1880.37 525.303 1880.95C528.457 1883.39 530.049 1886.83 529.035 1889.88C528.661 1891 527.965 1891.95 527.044 1892.72C530.071 1894.57 531.663 1897.88 530.664 1900.88C529.465 1904.48 525.016 1906.25 520.725 1904.83C516.436 1903.4 513.929 1899.32 515.128 1895.72Z" fill="#DE623C"/>
<path d="M3943.83 1545.8H3943.79L3913.01 1545.92L3906.05 1618.6L3941.97 1637.56L3980.27 1618.81L3974.08 1545.92L3943.83 1545.8Z" fill="#F37A50"/>
<path d="M4035.41 1504.69C4014.35 1557.33 3963.76 1586.6 3922.4 1570.05C3881.05 1553.51 3864.61 1497.41 3885.68 1444.77C3906.76 1392.13 3957.35 1362.87 3998.69 1379.41C4040.04 1395.96 4056.48 1452.05 4035.41 1504.69Z" fill="#F37A50"/>
<path d="M3903.67 1462.05C3901.23 1465.56 3896.4 1466.43 3892.88 1463.99C3889.37 1461.55 3888.51 1456.72 3890.95 1453.2C3893.39 1449.69 3898.23 1448.83 3901.73 1451.27C3905.24 1453.72 3906.11 1458.53 3903.67 1462.05Z" fill="black"/>
<path d="M3961.68 1485.73C3959.03 1489.53 3953.81 1490.47 3950 1487.83C3946.2 1485.17 3945.27 1479.96 3947.91 1476.16C3950.56 1472.35 3955.77 1471.41 3959.59 1474.05C3963.39 1476.71 3964.32 1481.93 3961.68 1485.73Z" fill="black"/>
<path d="M3915.43 1474.41C3904.96 1482.67 3891.87 1492.63 3891.87 1492.63C3891.87 1492.63 3891.73 1505.25 3906.48 1510.72C3901.15 1505.88 3896.45 1499.44 3902.01 1492C3907.56 1484.56 3915.43 1474.41 3915.43 1474.41Z" fill="#DE623C"/>
<path d="M3976.95 1480.68C3977.24 1480.68 3977.53 1480.65 3977.84 1480.57C3979.92 1480.08 3981.2 1478 3980.71 1475.92C3979.35 1470.25 3973.68 1459.52 3961.89 1459.47C3959.75 1459.48 3958.01 1461.17 3958.01 1463.31C3958 1465.44 3959.72 1467.19 3961.85 1467.19C3970.59 1467.24 3973.16 1477.61 3973.19 1477.72C3973.61 1479.49 3975.19 1480.68 3976.95 1480.68Z" fill="#201D40"/>
<path d="M3911.77 1445.67C3912.33 1445.67 3912.89 1445.52 3913.4 1445.23C3914.93 1444.33 3915.45 1442.36 3914.56 1440.83C3914.41 1440.57 3911.03 1434.91 3904.63 1433.73C3900.27 1432.92 3895.75 1434.35 3891.21 1437.99C3889.81 1439.09 3889.6 1441.12 3890.71 1442.51C3891.81 1443.89 3893.84 1444.12 3895.23 1443.01C3898.24 1440.6 3901.01 1439.61 3903.45 1440.07C3906.93 1440.71 3908.97 1444.04 3909 1444.08C3909.6 1445.09 3910.67 1445.67 3911.77 1445.67Z" fill="#201D40"/>
<path d="M4082 1483.81C4095.17 1431.69 4051.2 1390.93 4051.2 1390.93C4051.2 1390.93 4056.91 1390.36 4063 1387.76C4071.2 1384.25 4068.51 1371.99 4059.59 1372.11C4048.8 1372.24 4035.92 1370.27 4026.47 1363.17C3966.88 1318.48 3918.44 1342.45 3918.44 1367.21C3918.44 1376.03 3863.92 1381.85 3883.76 1449.88C3882.59 1445.85 3905.29 1405.08 3918.2 1402.65C3931.15 1400.21 3919.44 1417.47 3946.41 1421.16C3973.61 1424.91 3993.61 1418.29 4010.24 1433.64C4041.11 1465.37 4010.87 1541.71 4008.89 1545.8C4013.43 1536.41 4067.36 1541.71 4082 1483.81Z" fill="#201D40"/>
<path d="M4014.27 1493.49C4002.64 1500.03 3997.55 1513.03 4002.89 1522.55C4008.24 1532.05 4022 1534.48 4033.63 1527.95C4045.25 1521.41 4050.33 1508.41 4045 1498.89C4039.65 1489.39 4025.89 1486.96 4014.27 1493.49Z" fill="#F37A50"/>
<path d="M4016.04 1522C4015.68 1521.75 4015.37 1521.4 4015.15 1521C4011.96 1515.08 4012.48 1509.04 4016.55 1504.87C4020.72 1500.59 4027.45 1499.35 4032.56 1501.93C4034 1502.67 4034.57 1504.41 4033.84 1505.85C4033.11 1507.28 4031.36 1507.85 4029.92 1507.13C4027.12 1505.72 4023.09 1506.51 4020.73 1508.93C4018.45 1511.27 4018.31 1514.56 4020.28 1518.23C4021.04 1519.64 4020.52 1521.41 4019.11 1522.17C4018.09 1522.72 4016.92 1522.61 4016.04 1522Z" fill="#DE623C"/>
<path d="M3925.33 1537.71C3929.8 1536.64 3934.45 1534.81 3939.28 1532.24C3940.53 1531.57 3941 1530 3940.33 1528.75C3939.67 1527.49 3938.11 1527.03 3936.84 1527.69C3926.15 1533.41 3916.56 1535.04 3908.35 1532.53C3898.2 1529.43 3893.56 1520.88 3893.52 1520.79C3892.85 1519.53 3891.29 1519.05 3890.04 1519.72C3888.79 1520.37 3888.29 1521.92 3888.95 1523.19C3889.17 1523.61 3894.55 1533.65 3906.76 1537.43C3912.49 1539.2 3918.71 1539.28 3925.33 1537.71Z" fill="#DE623C"/>
<path d="M3887.67 2496.61C3860.47 2534.16 3793.65 2511.12 3795.87 2561.89C3897.47 2561.24 3939.69 2561.89 3939.69 2561.89C3939.56 2550.24 3937.56 2522.56 3935.21 2511.72L3887.67 2496.61Z" fill="black"/>
<path d="M4047.89 2496.61C4020.69 2534.16 3953.88 2511.12 3956.09 2561.89C4057.69 2561.24 4099.92 2561.89 4099.92 2561.89C4099.79 2550.24 4097.77 2522.56 4095.44 2511.72L4047.89 2496.61Z" fill="black"/>
<path d="M3841.41 1922.72C3841.41 1922.72 3811.95 2172 3818.65 2225.48C3825.35 2278.97 3862.05 2338.88 3859.36 2515.81C3892.48 2524.09 3940.47 2515.81 3940.47 2515.81C3940.47 2515.81 3947.59 2315.75 3912.57 2226.39C3926.81 2139.6 3972.49 1940.8 3972.49 1940.8L3841.41 1922.72Z" fill="#201D40"/>
<path d="M3903.33 1930.11C3903.33 1930.11 3936.64 2200.21 3952.95 2251.44C3969.25 2302.68 3994.01 2340.51 4023.53 2514.8C4057.57 2516.51 4096.31 2520.29 4096.31 2520.29C4096.31 2520.29 4091.72 2299.2 4038.71 2248.93C4036.91 2160.91 4047.28 1931.84 4047.28 1931.84L3903.33 1930.11Z" fill="#2C2858"/>
<path d="M4063.77 1614.28C4063.77 1614.28 3997.15 1612.05 3978.4 1613.21C3939.29 1648.52 3906.05 1612.57 3906.05 1612.57C3885.03 1607.91 3835.36 1607.91 3835.36 1607.91C3829.07 1691.81 3818.65 1960.16 3818.65 1960.16C3818.65 1960.16 3882.44 1976.88 3942.77 1977.31C4003.11 1976.92 4084.47 1962.95 4084.47 1962.95C4084.47 1962.95 4072.61 1844.99 4069.93 1801.4C4070.8 1752.53 4063.77 1678.68 4063.77 1614.28Z" fill="#3F964F"/>
<path d="M3586.8 1650.27C3587.8 1645.21 3589.96 1640.71 3592.85 1636.8C3615.07 1595.99 3677.85 1611.79 3768.49 1627.64C3783.65 1630.29 3778.55 1610.84 3781.01 1570.85C3782.6 1544.85 3806.75 1509.25 3834.31 1514.73C3879.75 1523.79 3828.92 1550.77 3851.53 1647.01C3863.6 1698.44 3916.85 1681.59 3907.41 1728.95L3885.95 1836.76C3882.28 1855.2 3876.93 1872.56 3850.31 1870.28C3824.49 1868.08 3826.6 1887.13 3790.19 1879.88L3607.89 1843.57C3589.32 1839.87 3577.21 1821.81 3580.89 1803.33C3582.43 1795.67 3586.52 1789.23 3592 1784.44C3582.84 1776.64 3577.92 1764.39 3580.43 1751.83C3581.95 1744.17 3586.03 1737.73 3591.49 1732.96C3582.29 1725.16 3577.37 1712.89 3579.88 1700.31C3581.69 1691.16 3587.07 1683.61 3594.27 1678.75C3587.84 1671.08 3584.71 1660.79 3586.8 1650.27Z" fill="#f9f93a" fill-opacity="0.75"/>
<path d="M3700.71 1707.81L3613.79 1690.49C3601.96 1688.15 3592.12 1679.64 3588.09 1668.31C3586.44 1663.64 3588.91 1658.51 3593.6 1656.87C3598.29 1655.21 3603.44 1657.69 3605.11 1662.36C3607 1667.75 3611.69 1671.77 3617.29 1672.89L3706.31 1690.63C3715.12 1692.37 3723.72 1686.67 3725.47 1677.88C3727.21 1669.11 3721.47 1660.53 3712.64 1658.77L3653.17 1646.93C3648.29 1645.96 3645.11 1641.23 3646.08 1636.37C3647.05 1631.52 3651.8 1628.36 3656.67 1629.33L3716.16 1641.17C3734.72 1644.88 3746.84 1662.92 3743.15 1681.41C3741.11 1691.72 3734.48 1699.88 3725.88 1704.57C3730.88 1711.89 3733.07 1721.11 3731.21 1730.44C3729.15 1740.79 3722.51 1748.97 3713.87 1753.64C3718.83 1760.95 3720.97 1770.13 3719.12 1779.44C3716.88 1790.71 3709.25 1799.52 3699.45 1803.89C3703.57 1810.88 3705.35 1819.25 3703.64 1827.77C3699.96 1846.27 3681.87 1858.29 3663.29 1854.6L3607.89 1843.56C3596.08 1841.21 3586.23 1832.71 3582.2 1821.37C3580.53 1816.71 3583 1811.59 3587.68 1809.93C3592.37 1808.31 3597.53 1810.75 3599.19 1815.41C3601.11 1820.8 3605.8 1824.84 3611.4 1825.96L3666.8 1837C3675.63 1838.75 3684.21 1833.04 3685.97 1824.25C3687.72 1815.48 3681.96 1806.91 3673.15 1805.15L3607.41 1792.05C3595.6 1789.71 3585.73 1781.2 3581.72 1769.87C3580.07 1765.19 3582.52 1760.05 3587.21 1758.43C3591.95 1756.73 3597.07 1759.24 3598.71 1763.91C3600.65 1769.39 3605.23 1773.32 3610.92 1774.45L3682.28 1788.67C3691.09 1790.43 3699.69 1784.71 3701.44 1775.92C3703.19 1767.15 3697.44 1758.57 3688.63 1756.81L3606.88 1740.53C3595.07 1738.19 3585.21 1729.68 3581.19 1718.36C3579.52 1713.68 3581.99 1708.56 3586.67 1706.91C3591.37 1705.28 3596.52 1707.72 3598.17 1712.39C3600.12 1717.85 3604.69 1721.8 3610.39 1722.93L3694.36 1739.67C3703.17 1741.41 3711.77 1735.71 3713.52 1726.92C3715.27 1718.15 3709.53 1709.56 3700.71 1707.81Z" fill="#f7d33c" fill-opacity="0.5"/>
<path d="M3873.83 1883.44L3930.59 1894.73C3938.44 1896.31 3946.09 1891.2 3947.65 1883.33L3981.24 1714.67C3982.81 1706.81 3977.71 1699.17 3969.84 1697.6L3913.08 1686.29C3905.23 1684.73 3897.59 1689.84 3896.01 1697.69L3862.43 1866.36C3860.85 1874.23 3865.96 1881.87 3873.83 1883.44Z" fill="#F78937" fill-opacity="0.9"/>
<path d="M3824.65 1903.72C3836.72 1902.76 3850.12 1896.89 3859.28 1904.51L3876.72 1877.63C3851.85 1847.97 3802.6 1843.65 3797.64 1843.91C3784.77 1844.59 3778.68 1844.11 3777.92 1845.95C3777.16 1847.79 3775.64 1859.55 3794.41 1859.17C3817.97 1858.69 3805.2 1879.37 3755.72 1868.36C3743.33 1865.6 3721.99 1874.44 3731.21 1881.92C3741.37 1890.15 3769.75 1908.05 3824.65 1903.72Z" fill="#F37A50"/>
<path d="M4072.25 1848.84C4090.36 1856.48 4097.01 1915.61 4091.51 1919.72C4009.89 1945.85 3855.55 1903.51 3855.55 1903.51L3844.11 1873.59C3844.11 1873.59 3965.77 1870.88 4072.25 1848.84Z" fill="#F37A50"/>
<path d="M4112.35 1676.21C4120.72 1729.72 4105.09 1905.61 4091.51 1919.72L4031.01 1872.05C4031.01 1872.05 4024.87 1693.89 4024.93 1663.61C4024.93 1611.2 4098.85 1588.83 4112.35 1676.21Z" fill="#F37A50"/>
<path d="M3618.93 1627C3619.67 1626.2 3620.2 1625.28 3620.65 1624.32C3620.79 1624.44 3620.91 1624.57 3621.04 1624.71C3629.11 1632.13 3639.97 1633.47 3645.31 1627.68C3646.19 1626.72 3646.83 1625.63 3647.31 1624.45C3653.72 1627.2 3660.35 1626.72 3664.16 1622.57C3665.67 1620.93 3666.55 1618.89 3666.88 1616.64C3673.12 1619.81 3680.28 1619.23 3684.55 1614.6C3689.87 1608.81 3688.6 1598.96 3681.71 1592.63C3674.83 1586.28 3664.92 1585.84 3659.59 1591.63C3658.24 1593.09 3657.32 1594.83 3656.8 1596.68C3649.08 1591.03 3639.73 1590.43 3634.92 1595.67C3634.04 1596.61 3633.4 1597.71 3632.92 1598.89C3626.51 1596.13 3619.88 1596.63 3616.07 1600.76C3614.67 1602.28 3613.8 1604.16 3613.41 1606.21C3608.01 1603.16 3601.6 1603.52 3597.85 1607.6C3593.36 1612.49 3594.43 1620.8 3600.24 1626.16C3606.07 1631.52 3614.43 1631.89 3618.93 1627Z" fill="#F37A50"/>
<path d="M4072.25 1848.84C4090.36 1856.48 4097.01 1915.61 4091.51 1919.72C4009.89 1945.85 3864.08 1906 3864.08 1906L3874.55 1864.37C3874.55 1864.37 3965.77 1870.88 4072.25 1848.84Z" fill="#0E6A41"/>
<path d="M4113.69 1675.05C4122.59 1729.75 4115.51 1907.39 4091.51 1919.72L4030.53 1873.17C4030.53 1873.17 4023.37 1691.47 4023.31 1660.61C4023.07 1607.19 4099.35 1585.75 4113.69 1675.05Z" fill="#0E6A41"/>
<path d="M296.805 512.507L263.808 566.547L547.836 760.32L296.805 512.507Z" fill="#F78937" fill-opacity="0.8"/>
<path d="M234.524 631.4L251.716 693.373L535.204 751.387L234.524 631.4Z" fill="#F78937" fill-opacity="0.8"/>
<path d="M547.836 760.32L68.8542 597.053L234.519 538.8L547.836 760.32Z" fill="#ebebef"/>
<path d="M296.805 512.507L547.836 760.32L400.911 468.547L296.805 512.507Z" fill="#ebebef"/>
<path d="M1948 1653.65C1980.57 1642.31 2049.77 1607.36 2016.99 1560.24C1984.2 1513.12 1970.27 1532.87 1982.88 1476.21C1995.49 1419.55 1955.6 1374.43 1916.97 1385.31C1878.36 1396.19 1868.19 1427.24 1821.08 1418.84C1773.99 1410.43 1734.28 1454.13 1751.61 1492.6C1768.96 1531.07 1776.35 1549.59 1759.51 1570.59C1742.67 1591.59 1667.57 1613.59 1698.23 1664.68C1728.88 1715.77 1743.23 1712.81 1732.09 1738.72C1720.97 1764.61 1745.65 1794.51 1789.08 1790.93C1832.52 1787.37 1871.97 1771.4 1888.41 1723.12C1904.85 1674.85 1948 1653.65 1948 1653.65Z" fill="#2C2858"/>
<path d="M1874.59 2479.53L1871.89 2507.21L1895.05 2514.24L1913.65 2494.39L1916.71 2482.96L1874.59 2479.53Z" fill="#F37A50"/>
<path d="M1947.65 1921.23C1947.65 1921.23 1982.4 2146.25 1973.03 2242.68C1963.65 2339.12 1916.51 2483.4 1916.51 2483.4H1874.21C1874.21 2483.4 1874.93 2465.95 1876.59 2408.45C1878.69 2335.12 1876.59 2274.92 1908.61 2237.11C1892.03 2165.56 1849.6 1921.23 1849.6 1921.23H1947.65Z" fill="#F37A50"/>
<path d="M1904.71 1959.69C1904.71 1959.69 1893.47 2166.81 1859.32 2257.49C1771.85 2317.12 1692.33 2346.01 1639.4 2366.84C1636.91 2367.83 1626.4 2328.44 1626.4 2328.44C1685.17 2290 1736.76 2220.69 1796.73 2229.6C1786.48 2163.28 1776.55 1992.8 1776.55 1992.8L1904.71 1959.69Z" fill="#F37A50"/>
<path d="M1857.79 1591.52V1676.61C1857.79 1676.61 1886.15 1691.75 1910.73 1676.61C1906.95 1657.71 1904.71 1597.47 1904.71 1597.47L1857.79 1591.52Z" fill="#F37A50"/>
<path d="M1807.04 1637.44H1948.21C1948.21 1637.44 1973.56 1694.35 1970.12 1743.07C1966.68 1791.8 1960.49 1924.39 1960.49 1924.39C1960.49 1924.39 1873.89 1904.73 1818.61 1887.68C1814.23 1787.69 1784.53 1742.11 1786.59 1709.63C1788.63 1677.13 1807.04 1637.44 1807.04 1637.44Z" fill="#F595AD"/>
<path d="M1947.07 1517.04C1947.07 1564.72 1918.32 1603.36 1882.85 1603.36C1847.39 1603.36 1818.64 1564.72 1818.64 1517.04C1818.64 1469.37 1847.39 1430.72 1882.85 1430.72C1918.32 1430.72 1947.07 1469.37 1947.07 1517.04Z" fill="#F37A50"/>
<path d="M1814.37 1517.04C1849.83 1512.51 1882.77 1492.76 1901.4 1467.23C1913.41 1497.07 1947.07 1517.04 1947.07 1517.04C1947.07 1517.04 1972.29 1459.97 1926.43 1429.19C1882.67 1399.83 1778.28 1419.89 1814.37 1517.04Z" fill="#2C2858"/>
<path d="M1855.84 1535.47C1852.08 1535.47 1849.01 1532.4 1849.01 1528.64C1849.01 1524.87 1852.08 1521.81 1855.84 1521.81C1859.61 1521.81 1862.67 1524.87 1862.67 1528.64C1862.67 1532.4 1859.61 1535.47 1855.84 1535.47Z" fill="black"/>
<path d="M1910.23 1535.47C1906.47 1535.47 1903.41 1532.4 1903.41 1528.64C1903.41 1524.87 1906.47 1521.81 1910.23 1521.81C1914 1521.81 1917.05 1524.87 1917.05 1528.64C1917.05 1532.4 1914 1535.47 1910.23 1535.47Z" fill="black"/>
<path d="M1922.25 1522.49C1921.13 1522.49 1920.05 1521.92 1919.44 1520.88C1917.75 1518.04 1915.71 1516.33 1913.36 1515.81C1909.32 1514.92 1905.32 1517.63 1905.28 1517.65C1903.79 1518.67 1901.75 1518.29 1900.72 1516.81C1899.69 1515.33 1900.05 1513.31 1901.53 1512.27C1901.79 1512.09 1907.84 1507.92 1914.71 1509.4C1918.92 1510.31 1922.41 1513.05 1925.07 1517.53C1926 1519.09 1925.48 1521.11 1923.92 1522.03C1923.4 1522.35 1922.83 1522.49 1922.25 1522.49Z" fill="#2C2858"/>
<path d="M1842.89 1522.81C1842.17 1522.81 1841.45 1522.59 1840.85 1522.09C1839.44 1520.97 1839.21 1518.91 1840.35 1517.49C1844.65 1512.12 1849.41 1509.19 1854.51 1508.8C1861.09 1508.28 1865.61 1512.33 1865.8 1512.51C1867.13 1513.73 1867.23 1515.81 1866 1517.15C1864.79 1518.47 1862.73 1518.57 1861.4 1517.37C1861.29 1517.28 1858.61 1515.01 1854.93 1515.33C1851.75 1515.61 1848.56 1517.72 1845.45 1521.59C1844.81 1522.4 1843.85 1522.81 1842.89 1522.81Z" fill="#2C2858"/>
<path d="M1889.63 1537.6C1898.45 1543.96 1901.2 1546.57 1904.61 1548.69C1902.25 1556.57 1889.91 1560.49 1886.39 1559.57C1895 1555.33 1896.2 1549.59 1896.2 1549.59L1889.63 1537.6Z" fill="#DE623C"/>
<path d="M1828.24 1523.71C1835.6 1533.03 1835.96 1545 1829.05 1550.45C1822.15 1555.91 1810.59 1552.77 1803.23 1543.45C1795.87 1534.13 1795.49 1522.16 1802.4 1516.71C1809.31 1511.25 1820.88 1514.39 1828.24 1523.71Z" fill="#F37A50"/>
<path d="M1821.77 1543.84C1821.49 1543.84 1821.2 1543.77 1820.93 1543.67C1819.81 1543.19 1819.29 1541.91 1819.76 1540.8C1821.32 1537.11 1821.36 1534.13 1819.87 1531.96C1817.57 1528.61 1812.13 1527.59 1808.2 1527.72C1806.99 1527.76 1805.97 1526.81 1805.93 1525.61C1805.89 1524.4 1806.84 1523.39 1808.05 1523.35C1813.35 1523.17 1820.17 1524.69 1823.47 1529.49C1825.12 1531.88 1826.51 1536.08 1823.79 1542.51C1823.44 1543.33 1822.63 1543.84 1821.77 1543.84Z" fill="#DE623C"/>
<path d="M1865.83 1571.23C1864.91 1569.73 1866.2 1567.88 1867.92 1568.24C1872.28 1569.16 1879.49 1570.52 1886.45 1571.15C1893.4 1571.77 1900.75 1571.71 1905.2 1571.57C1906.96 1571.52 1907.91 1573.57 1906.73 1574.88C1903.16 1578.91 1895.97 1584.87 1885.31 1583.92C1874.65 1582.96 1868.63 1575.83 1865.83 1571.23Z" fill="#dddddd"/>
<path d="M1895.61 2511.17C1901.36 2496.07 1913.65 2494.39 1913.65 2494.39C1937.55 2526.27 1996.24 2506.71 1994.29 2549.83C1905.05 2549.27 1867.96 2549.83 1867.96 2549.83C1868.08 2539.92 1869.84 2516.41 1871.89 2507.21L1876.55 2508.04L1895.61 2511.17Z" fill="#2C2858"/>
<path d="M1989.13 2561.33H1873.17C1870.29 2561.33 1867.96 2559 1867.96 2556.12V2548.63H1994.35V2556.12C1994.35 2559 1992.01 2561.33 1989.13 2561.33Z" fill="#201D40"/>
<path d="M1630.52 2325.72L1598.97 2341.79L1603.43 2364.84L1628.89 2371.83L1640.87 2366.27L1630.52 2325.72Z" fill="#F37A50"/>
<path d="M1606.32 2363.93C1621.88 2362.03 1628.89 2371.83 1628.89 2371.83C1612.35 2406.79 1655.72 2448.31 1617.83 2466.17C1577.88 2389.29 1560.6 2357.69 1560.6 2357.69C1569.16 2353.32 1590.15 2344.19 1598.97 2341.79L1600.37 2346.15L1606.32 2363.93Z" fill="#2C2858"/>
<path d="M1605.6 2466.95L1553.08 2367.39C1551.79 2364.92 1552.73 2361.85 1555.2 2360.55L1561.63 2357.16L1618.87 2465.68L1612.44 2469.07C1609.97 2470.37 1606.91 2469.43 1605.6 2466.95Z" fill="#201D40"/>
<path d="M1810.61 2169.15C1784.59 2164.44 1759.63 2164.47 1744.97 2164.79C1754.24 2133.79 1751.56 1942.44 1810.29 1876.63H1958.11C2010.43 1966.41 1990.68 2099.44 2023.01 2153.93C2010.39 2160.04 1974.97 2175.32 1928.61 2180C1877.35 2185.17 1854.59 2177.09 1810.61 2169.15Z" fill="#070635"/>
<path d="M1857.79 1637.44L1822.28 1634.47C1822.28 1634.47 1777.75 1540.45 1760.64 1510.05C1748.99 1461.25 1765.55 1332.48 1765.55 1332.48L1713.8 1320.17C1713.8 1320.17 1690.09 1477.35 1698.11 1521.69C1700.23 1533.39 1764.75 1671.01 1764.75 1671.01C1764.75 1671.01 1786.59 1709.63 1756.77 1903.44C1798.85 1913.88 1828.21 1914.51 1828.21 1914.51L1857.79 1637.44Z" fill="#e62552"/>
<path d="M1906.77 1637.44L1934.32 1914.51C1934.32 1914.51 1946.92 1918.77 1994.19 1904.71C1971.29 1789 1977.96 1717.99 1981.2 1695.75C1981.87 1691.15 1983.32 1686.71 1985.51 1682.59C1995.41 1663.91 2028.15 1600.07 2058.31 1517.04C2056.41 1478.37 2028.44 1320.17 2028.44 1320.17L1979.49 1317.56L1994.43 1503.59C1994.43 1503.59 1942.03 1617.84 1935.85 1636.76L1906.77 1637.44Z" fill="#e62552"/>
<path d="M2227.8 1340.85H1527.29C1486.81 1340.85 1454.01 1308.05 1454.01 1267.59V1124.69C1454.01 1084.23 1486.81 1051.41 1527.29 1051.41H2227.8C2268.28 1051.41 2301.08 1084.23 2301.08 1124.69V1267.59C2301.08 1308.05 2268.28 1340.85 2227.8 1340.85Z" fill="#F78937" fill-opacity="0.9"/>
<path d="M1597.53 1262.19L1559.88 1239.57L1522.13 1262.03C1518.47 1264.21 1513.96 1260.92 1514.92 1256.76L1524.79 1213.96L1491.77 1185C1488.56 1182.19 1490.29 1176.89 1494.55 1176.52L1538.29 1172.67L1555.64 1132.32C1557.32 1128.4 1562.89 1128.41 1564.57 1132.35L1581.75 1172.76L1625.48 1176.79C1629.73 1177.17 1631.44 1182.48 1628.21 1185.29L1595.08 1214.11L1604.77 1256.95C1605.71 1261.12 1601.2 1264.39 1597.53 1262.19Z" fill="#f9f93a" fill-opacity="0.75"/>
<path d="M1756.31 1262.19L1718.65 1239.57L1680.91 1262.03C1677.24 1264.21 1672.73 1260.92 1673.69 1256.76L1683.56 1213.96L1650.55 1185C1647.33 1182.19 1649.07 1176.89 1653.32 1176.52L1697.07 1172.67L1714.41 1132.32C1716.09 1128.4 1721.67 1128.41 1723.35 1132.35L1740.52 1172.76L1784.25 1176.79C1788.51 1177.17 1790.21 1182.48 1786.99 1185.29L1753.85 1214.11L1763.55 1256.95C1764.48 1261.12 1759.97 1264.39 1756.31 1262.19Z" fill="#f9f93a" fill-opacity="0.75"/>
<path d="M1915.08 1262.19L1877.43 1239.57L1839.68 1262.03C1836 1264.21 1831.51 1260.92 1832.47 1256.76L1842.33 1213.96L1809.32 1185C1806.11 1182.19 1807.84 1176.89 1812.09 1176.52L1855.84 1172.67L1873.19 1132.32C1874.87 1128.4 1880.44 1128.41 1882.12 1132.35L1899.29 1172.76L1943.03 1176.79C1947.28 1177.17 1948.99 1182.48 1945.76 1185.29L1912.63 1214.11L1922.32 1256.95C1923.25 1261.12 1918.75 1264.39 1915.08 1262.19Z" fill="#f9f93a" fill-opacity="0.75"/>
<path d="M2073.85 1262.19L2036.2 1239.57L1998.45 1262.03C1994.77 1264.21 1990.28 1260.92 1991.24 1256.76L2001.11 1213.96L1968.09 1185C1964.88 1182.19 1966.61 1176.89 1970.87 1176.52L2014.61 1172.67L2031.96 1132.32C2033.64 1128.4 2039.21 1128.41 2040.89 1132.35L2058.07 1172.76L2101.8 1176.79C2106.05 1177.17 2107.76 1182.48 2104.53 1185.29L2071.4 1214.11L2081.09 1256.95C2082.03 1261.12 2077.52 1264.39 2073.85 1262.19Z" fill="#f9f93a" fill-opacity="0.75"/>
<path d="M2232.63 1262.19L2194.97 1239.57L2157.23 1262.03C2153.55 1264.21 2149.05 1260.92 2150.01 1256.76L2159.87 1213.96L2126.87 1185C2123.65 1182.19 2125.37 1176.89 2129.64 1176.52L2173.39 1172.67L2190.73 1132.32C2192.41 1128.4 2197.99 1128.41 2199.67 1132.35L2216.84 1172.76L2260.56 1176.79C2264.83 1177.17 2266.53 1182.48 2263.31 1185.29L2230.17 1214.11L2239.87 1256.95C2240.8 1261.12 2236.29 1264.39 2232.63 1262.19Z" fill="#f9f93a" fill-opacity="0.75"/>
<path d="M695.585 995.307H354.208C313.928 995.307 281.275 1027.96 281.275 1068.24V1205.55C281.275 1245.83 313.928 1278.48 354.208 1278.48H589.672L581.4 1431.77C580.765 1443.53 596.849 1447.51 601.756 1436.8L674.328 1278.48H695.585C735.867 1278.48 768.52 1245.83 768.52 1205.55V1068.24C768.52 1027.96 735.867 995.307 695.585 995.307Z" fill="#F78937" fill-opacity="0.9"/>
<path d="M704.888 1093.25H349.995C336.22 1093.25 325.053 1082.09 325.053 1068.32C325.053 1054.55 336.22 1043.37 349.995 1043.37H704.888C718.663 1043.37 729.829 1054.55 729.829 1068.32C729.829 1082.09 718.663 1093.25 704.888 1093.25Z" fill="#dddddd"/>
<path d="M704.888 1167.17H349.995C336.22 1167.17 325.053 1156.01 325.053 1142.24C325.053 1128.47 336.22 1117.29 349.995 1117.29H704.888C718.663 1117.29 729.829 1128.47 729.829 1142.24C729.829 1156.01 718.663 1167.17 704.888 1167.17Z" fill="#dddddd"/>
<path d="M708.825 1241.09H463.753C452.153 1241.09 442.749 1231.69 442.749 1220.09V1212.21C442.749 1200.61 452.153 1191.21 463.753 1191.21H708.825C720.425 1191.21 729.829 1200.61 729.829 1212.21V1220.09C729.829 1231.69 720.425 1241.09 708.825 1241.09Z" fill="#dddddd"/>
<path d="M3361.52 1415.28C3307.71 1394.85 3193.55 1429.76 3207.93 1633.31C3222.32 1836.87 3369.11 1821.72 3369.11 1821.72C3369.11 1821.72 3437.17 1806.75 3454.35 1679.75C3471.53 1552.75 3452.01 1449.65 3361.52 1415.28Z" fill="#2C2858"/>
<path d="M3153.57 1606.45C3149.08 1619.27 3108.57 1626.37 3105.51 1622.75C3084 1567.55 3106.65 1459.28 3106.65 1459.28L3126.81 1450.12C3126.81 1450.12 3133.85 1533.93 3153.57 1606.45Z" fill="#F37A50"/>
<path d="M3254.41 1714.05C3216.64 1702 3109.68 1634.33 3104.91 1620.81L3149.64 1596.85C3149.64 1596.85 3271.52 1651 3291.31 1660.96C3325.61 1678.15 3316.03 1733.85 3254.41 1714.05Z" fill="#F37A50"/>
<path d="M3082.27 1457.87C3091.48 1459.8 3102.76 1458.36 3107.93 1466.05L3126.84 1449.83C3114.8 1422.24 3079 1408.21 3075.24 1407.32C3065.49 1405 3061.05 1403.29 3060.08 1404.51C3059.12 1405.71 3055.4 1414.16 3069.48 1417.99C3087.16 1422.81 3073.09 1435.43 3038.6 1416.36C3029.96 1411.57 3012.11 1413.49 3017.33 1421.09C3023.11 1429.47 3040.35 1449.05 3082.27 1457.87Z" fill="#F37A50"/>
<path d="M3284.67 1634.91L3335.53 1625.52L3354.6 1650.89L3314.07 1733.99L3254.45 1683.39L3284.67 1634.91Z" fill="#F37A50"/>
<path d="M3222.37 1831.24C3222.37 1798.87 3194.32 1750.37 3207.77 1717.69C3217.56 1691.4 3233.93 1647.27 3253.97 1639.91C3263.43 1636.44 3274.28 1633.68 3286.05 1630.43L3284.67 1634.91C3284.39 1641.21 3285.11 1652.61 3295.11 1653.41C3321.77 1655.55 3335.77 1621.37 3335.77 1621.37C3350.15 1620 3416.08 1641.65 3416.05 1647.07C3415.89 1689.48 3381.44 1751.35 3370.17 1797.2C3365.75 1846.71 3376.32 1873.15 3376.39 1878.79C3376.39 1878.79 3282.77 1910.07 3219.91 1875.45C3219.91 1875.45 3222.37 1853.11 3222.37 1831.24Z" fill="#e62552"/>
<path d="M3297.52 1593.37L3338.81 1587.19L3335.53 1625.52C3335.53 1625.52 3317.88 1649.65 3308.71 1650.84L3284.67 1634.91L3297.52 1593.37Z" fill="#F37A50"/>
<path d="M3377.03 1537.95C3366.36 1582.47 3329.37 1611.77 3294.41 1603.4C3259.44 1595.03 3239.73 1552.15 3250.4 1507.63C3261.05 1463.11 3298.04 1433.8 3333.01 1442.17C3367.99 1450.55 3387.68 1493.43 3377.03 1537.95Z" fill="#F37A50"/>
<path d="M3266.79 1519.32C3265.24 1522.41 3261.49 1523.67 3258.4 1522.13C3255.31 1520.59 3254.05 1516.84 3255.59 1513.75C3257.13 1510.65 3260.88 1509.4 3263.97 1510.93C3267.07 1512.48 3268.32 1516.23 3266.79 1519.32Z" fill="black"/>
<path d="M3315.89 1531.44C3314.23 1534.79 3310.16 1536.15 3306.81 1534.48C3303.48 1532.81 3302.11 1528.75 3303.77 1525.4C3305.44 1522.05 3309.51 1520.69 3312.85 1522.36C3316.2 1524.03 3317.56 1528.09 3315.89 1531.44Z" fill="black"/>
<path d="M3323.39 1525.84C3322.92 1525.6 3322.53 1525.23 3322.29 1524.72C3318.91 1517.4 3309.73 1515.97 3309.64 1515.96C3308.36 1515.77 3307.47 1514.57 3307.65 1513.29C3307.84 1512.01 3309.03 1511.12 3310.31 1511.29C3310.79 1511.36 3322.08 1513.07 3326.56 1522.73C3327.11 1523.92 3326.6 1525.32 3325.43 1525.87C3324.75 1526.17 3324 1526.15 3323.39 1525.84Z" fill="#2C2858"/>
<path d="M3253.15 1510.27C3252.92 1510.15 3252.71 1510 3252.52 1509.81C3251.61 1508.88 3251.61 1507.39 3252.55 1506.48C3259.72 1499.39 3268.57 1502.32 3268.95 1502.45C3270.17 1502.88 3270.83 1504.21 3270.4 1505.44C3269.97 1506.67 3268.64 1507.32 3267.41 1506.91C3267.13 1506.81 3260.89 1504.84 3255.85 1509.83C3255.11 1510.56 3254.03 1510.69 3253.15 1510.27Z" fill="#2C2858"/>
<path d="M3270.8 1532.92C3267.37 1536.45 3264.36 1540.09 3261.09 1542.15C3259.99 1542.85 3259.63 1544.32 3260.27 1545.45C3262.92 1550.15 3270.64 1554.01 3275.39 1556.03C3276.07 1556.32 3276.64 1555.41 3276.08 1554.92C3271.29 1550.72 3269.24 1547.64 3268.37 1545.95C3267.95 1545.09 3267.96 1544.11 3268.39 1543.27C3269.36 1541.32 3271.32 1537.37 3272.64 1534.11C3273.09 1532.97 3271.65 1532.05 3270.8 1532.92Z" fill="#DE623C"/>
<path d="M3360.2 1538.23C3351.71 1544.84 3349.2 1555.84 3354.61 1562.79C3360.01 1569.75 3371.29 1570.03 3379.79 1563.41C3388.28 1556.8 3390.79 1545.8 3385.37 1538.85C3379.97 1531.89 3368.69 1531.63 3360.2 1538.23Z" fill="#F37A50"/>
<path d="M3365.04 1560.77C3364.72 1560.61 3364.43 1560.39 3364.2 1560.08C3360.95 1555.73 3360.64 1550.87 3363.39 1547.04C3366.2 1543.11 3371.43 1541.32 3375.81 1542.77C3377.04 1543.17 3377.72 1544.51 3377.31 1545.75C3376.89 1546.97 3375.57 1547.65 3374.33 1547.24C3371.93 1546.44 3368.8 1547.56 3367.21 1549.77C3365.68 1551.91 3365.95 1554.56 3367.97 1557.25C3368.75 1558.29 3368.55 1559.76 3367.51 1560.55C3366.76 1561.11 3365.81 1561.16 3365.04 1560.77Z" fill="#DE623C"/>
<path d="M3309.45 1568.41C3310.44 1567.09 3309.37 1565.24 3307.73 1565.43C3303.56 1565.93 3296.65 1566.61 3290.07 1566.61C3283.48 1566.61 3276.57 1565.93 3272.4 1565.43C3270.75 1565.24 3269.69 1567.09 3270.67 1568.41C3273.71 1572.51 3279.96 1578.71 3290.07 1578.71C3300.17 1578.71 3306.43 1572.51 3309.45 1568.41Z" fill="#dddddd"/>
<path d="M3377.89 1534.01C3336.15 1528.43 3277.75 1485.89 3272.96 1464.08C3281.04 1437.87 3324.05 1424.69 3348.33 1436.83C3372.63 1448.97 3395.56 1501.03 3377.89 1534.01Z" fill="#2C2858"/>
<path d="M3258.87 2461.28C3261.63 2433.71 3247.4 2223.81 3247.4 2223.81C3207.16 2039.31 3222.96 1907.21 3222.96 1907.21L3292.13 1912.08L3319.39 2016.35L3306.45 2190.48C3306.45 2190.48 3311.31 2203.88 3313.88 2214.6C3327.76 2272.72 3313.93 2342.19 3305.37 2388.49C3301.41 2409.95 3295.25 2455.04 3295.09 2465.29L3312.47 2487.76C3312.47 2487.76 3249.57 2557.36 3239.91 2557.79C3221.11 2558.64 3226.64 2540.01 3226.64 2540.01C3252.49 2513.48 3258.07 2469.17 3258.87 2461.28Z" fill="#F37A50"/>
<path d="M3313.55 2512.41L3310.08 2557.13L3302.04 2557.49L3297.97 2515.97C3276.59 2521.43 3261.25 2560.25 3261.25 2560.25C3246.52 2565.53 3209.07 2569.16 3195.73 2562.29C3192.52 2549.23 3226.69 2540.07 3226.69 2540.07C3229.79 2543.72 3248.03 2546.53 3254.51 2542.61C3278.37 2522.29 3290 2492.76 3295.09 2465.29C3295.09 2465.29 3332.79 2467.92 3313.55 2512.41Z" fill="#201D40"/>
<path d="M3282.25 1920.64L3379.69 1907.21C3416.96 1991.55 3429.11 2138.37 3439.23 2190.68C3479.84 2258.77 3492.75 2465.29 3492.75 2465.29L3510.12 2487.76C3510.12 2487.76 3447.23 2557.36 3437.56 2557.79C3418.76 2558.64 3424.29 2540.01 3424.29 2540.01C3450.15 2513.48 3455.19 2478.21 3456.85 2470.45C3459.37 2458.79 3377.99 2229.69 3377.99 2229.69L3369.31 2207.95C3269.89 2043.77 3253.59 1919.67 3253.59 1919.67L3282.25 1920.64Z" fill="#F37A50"/>
<path d="M3511.2 2512.41L3507.73 2557.13L3499.69 2557.49L3495.63 2515.97C3474.24 2521.43 3458.91 2560.25 3458.91 2560.25C3444.17 2565.53 3406.72 2569.16 3393.39 2562.29C3390.17 2549.23 3424.35 2540.07 3424.35 2540.07C3427.44 2543.72 3445.68 2546.53 3452.16 2542.61C3476.03 2522.29 3487.65 2492.76 3492.75 2465.29C3492.75 2465.29 3530.44 2467.92 3511.2 2512.41Z" fill="#201D40"/>
<path d="M3463.4 2181.09C3453.67 2148.55 3457.69 1919.07 3371.8 1855.71L3224.17 1867.72C3190.01 1923.01 3202.55 2066.89 3214.05 2185.29C3283.56 2210.11 3338.81 2220.07 3463.4 2181.09Z" fill="#e62552"/>
<path d="M3038.91 1656.24C3048.29 1656.81 3059.25 1653.73 3065.48 1660.59L3081.83 1641.77C3065.89 1616.25 3028.43 1607.59 3024.59 1607.25C3014.59 1606.37 3009.95 1605.35 3009.17 1606.68C3008.39 1608.01 3005.95 1616.91 3020.44 1618.65C3038.63 1620.84 3026.56 1635.37 2989.65 1621.53C2980.41 1618.07 2963.01 1622.57 2969.31 1629.32C2976.24 1636.76 2996.15 1653.63 3038.91 1656.24Z" fill="#F37A50"/>
<path d="M3228.8 1711.88C3237.57 1724.39 3217.53 1766.09 3212.21 1766.53C3147.63 1750.04 3063.43 1658.39 3063.43 1658.39L3068.25 1633.96C3068.25 1633.96 3149.53 1682.41 3228.8 1711.88Z" fill="#F37A50"/>
<path d="M3402.41 1713.55C3363.6 1735.53 3225.99 1772.19 3211.16 1765.8L3225.56 1710.55C3225.56 1710.55 3363.39 1651.24 3386.75 1642.51C3427.15 1627.29 3465.85 1677.77 3402.41 1713.55Z" fill="#F37A50"/>
<path d="M2899.31 925.48C2915.11 844.573 2987.28 870.947 2998.97 914.84C3015.24 961.987 2975.95 1059.73 2971.47 1054.92C2753.52 1029.4 2820.73 885.4 2899.31 925.48Z" fill="#F595AD"/>
<path d="M3157.49 1121.61C3210.67 1107.04 3216.31 1158.12 3193.48 1178.17C3170.05 1201.93 3099.81 1207.41 3101.37 1203.29C3051.92 1065.12 3158.17 1062.61 3157.49 1121.61Z" fill="#F595AD"/>
<path d="M3002.65 1118.63C3000 1118.63 2997.48 1117.03 2996.45 1114.41C2991.05 1100.73 2984.88 1089.95 2979.05 1084.05C2976.47 1081.43 2976.49 1077.21 2979.11 1074.63C2981.73 1072.04 2985.96 1072.07 2988.55 1074.68C2995.71 1081.93 3002.72 1093.97 3008.85 1109.52C3010.21 1112.95 3008.52 1116.81 3005.11 1118.16C3004.29 1118.48 3003.47 1118.63 3002.65 1118.63ZM3019.21 1192.31C3015.77 1192.31 3012.84 1189.65 3012.57 1186.15C3011.67 1174.23 3009.81 1161.95 3007.07 1149.65C3006.27 1146.07 3008.53 1142.51 3012.13 1141.69C3015.72 1140.89 3019.28 1143.16 3020.08 1146.76C3022.96 1159.67 3024.91 1172.57 3025.87 1185.13C3026.15 1188.8 3023.4 1192.01 3019.73 1192.29C3019.56 1192.31 3019.39 1192.31 3019.21 1192.31ZM3059.57 1223.79C3058.07 1223.79 3056.56 1223.28 3055.32 1222.25C3045.85 1214.4 3035.55 1209.47 3024.65 1207.56C3021.03 1206.93 3018.6 1203.48 3019.24 1199.85C3019.87 1196.23 3023.32 1193.8 3026.95 1194.43C3040.16 1196.73 3052.56 1202.64 3063.83 1211.99C3066.67 1214.35 3067.05 1218.55 3064.71 1221.37C3063.39 1222.97 3061.48 1223.79 3059.57 1223.79ZM2957.29 1232.27C2955.65 1232.27 2954.01 1231.67 2952.72 1230.45C2950.04 1227.93 2949.91 1223.71 2952.43 1221.03C2961.57 1211.31 2973.57 1203.33 2986.24 1198.59C2989.69 1197.29 2993.53 1199.03 2994.83 1202.48C2996.12 1205.93 2994.37 1209.77 2990.93 1211.07C2980.13 1215.12 2969.92 1221.89 2962.15 1230.16C2960.84 1231.56 2959.07 1232.27 2957.29 1232.27ZM3006.49 1265.64C3005.17 1265.64 3003.85 1265.25 3002.69 1264.44C2999.67 1262.35 2998.92 1258.19 3001.03 1255.16C3006.48 1247.32 3010.16 1236.36 3011.97 1222.59C3012.45 1218.93 3015.8 1216.36 3019.44 1216.84C3023.09 1217.32 3025.67 1220.67 3025.19 1224.32C3023.11 1240.23 3018.65 1253.16 3011.97 1262.77C3010.68 1264.64 3008.6 1265.64 3006.49 1265.64ZM2973.77 1282.56C2971.85 1282.56 2969.88 1282.47 2967.88 1282.27C2944.85 1280.07 2938.67 1267.93 2937.03 1260.91C2936.19 1257.32 2938.43 1253.73 2942.01 1252.89C2945.6 1252.07 2949.17 1254.29 2950.01 1257.88C2951.84 1265.73 2961.43 1268.25 2969.15 1269C2970.72 1269.15 2972.28 1269.23 2973.77 1269.23H2974.32C2978.01 1269.17 2981.03 1272.12 2981.07 1275.8C2981.12 1279.48 2978.17 1282.51 2974.48 1282.56H2973.77ZM3097.27 1287.68C3093.89 1287.68 3090.99 1285.13 3090.64 1281.69C3089.85 1273.89 3087.07 1265.55 3082.37 1256.87C3081 1254.32 3079.57 1251.83 3078.12 1249.47C3076.2 1246.33 3077.19 1242.23 3080.32 1240.31C3083.47 1238.37 3087.56 1239.36 3089.49 1242.51C3091.07 1245.07 3092.61 1247.77 3094.11 1250.52C3099.64 1260.75 3102.93 1270.79 3103.91 1280.35C3104.28 1284.01 3101.61 1287.28 3097.95 1287.65C3097.72 1287.68 3097.49 1287.68 3097.27 1287.68ZM3061.79 1350.51C3059.8 1350.51 3057.84 1349.63 3056.52 1347.93C3054.27 1345.04 3054.77 1340.84 3057.68 1338.59C3068.91 1329.83 3077.01 1321.52 3082.44 1313.16C3084.45 1310.08 3088.59 1309.2 3091.67 1311.21C3094.76 1313.21 3095.63 1317.35 3093.63 1320.43C3087.36 1330.04 3078.29 1339.43 3065.88 1349.09C3064.67 1350.04 3063.23 1350.51 3061.79 1350.51ZM2997.8 1391.13C2995.55 1391.13 2993.33 1389.99 2992.08 1387.89C2990.19 1384.73 2991.21 1380.64 2994.37 1378.75C2998.72 1376.15 3003.12 1373.55 3007.52 1370.95C3013.93 1367.17 3020.55 1363.27 3026.91 1359.37C3030.05 1357.45 3034.15 1358.44 3036.08 1361.59C3038 1364.72 3037 1368.83 3033.87 1370.75C3027.41 1374.69 3020.75 1378.63 3014.31 1382.43C3009.92 1385.01 3005.55 1387.6 3001.23 1390.19C3000.16 1390.83 2998.97 1391.13 2997.8 1391.13ZM2938.87 1437.96C2937.55 1437.96 2936.21 1437.57 2935.05 1436.76C2932.04 1434.65 2931.31 1430.49 2933.41 1427.48C2939.8 1418.35 2949.17 1409.28 2962.07 1399.77C2965.03 1397.59 2969.21 1398.21 2971.39 1401.19C2973.57 1404.15 2972.95 1408.32 2969.99 1410.51C2958.27 1419.15 2949.88 1427.19 2944.33 1435.12C2943.04 1436.97 2940.97 1437.96 2938.87 1437.96ZM2942.73 1509.04C2940.32 1509.04 2938 1507.73 2936.81 1505.45C2931.45 1495.16 2927.31 1484.48 2924.48 1473.68C2923.97 1471.77 2923.57 1469.85 2923.27 1467.96C2922.69 1464.32 2925.17 1460.91 2928.81 1460.33C2932.44 1459.76 2935.87 1462.24 2936.44 1465.87C2936.67 1467.32 2936.99 1468.81 2937.37 1470.29C2939.96 1480.13 2943.75 1489.89 2948.64 1499.29C2950.33 1502.56 2949.07 1506.59 2945.8 1508.28C2944.81 1508.8 2943.76 1509.04 2942.73 1509.04ZM2990.49 1567.24C2988.96 1567.24 2987.43 1566.72 2986.16 1565.64C2975.91 1556.87 2966.67 1547.56 2958.69 1538.01C2956.33 1535.19 2956.71 1530.97 2959.55 1528.63C2962.37 1526.27 2966.57 1526.64 2968.93 1529.47C2976.43 1538.45 2985.13 1547.21 2994.84 1555.51C2997.63 1557.91 2997.96 1562.12 2995.56 1564.91C2994.24 1566.45 2992.37 1567.24 2990.49 1567.24ZM3053.95 1608.44C3052.99 1608.44 3052 1608.23 3051.07 1607.77C3043.27 1604.03 3031.08 1597.69 3017.29 1588.77C3014.2 1586.77 3013.32 1582.64 3015.31 1579.55C3017.31 1576.45 3021.44 1575.57 3024.53 1577.57C3037.73 1586.12 3049.4 1592.17 3056.84 1595.76C3060.16 1597.36 3061.56 1601.33 3059.96 1604.65C3058.81 1607.04 3056.44 1608.44 3053.95 1608.44Z" fill="#2C2858"/>
<path d="M1492.55 914.987C1479.25 981.24 1414.77 1024.17 1348.52 1010.89C1282.27 997.6 1239.33 933.12 1252.62 866.867C1265.91 800.627 1330.39 757.68 1396.64 770.973C1462.89 784.253 1505.83 848.733 1492.55 914.987Z" fill="#F78937" fill-opacity="0.9"/>
<path d="M1327.67 842.693C1338.83 844.92 1346.05 855.773 1343.81 866.933C1341.57 878.08 1330.72 885.307 1319.57 883.08C1308.42 880.84 1301.19 869.987 1303.43 858.827C1305.66 847.68 1316.52 840.453 1327.67 842.693Z" fill="#dddddd"/>
<path d="M1430.45 863.307C1441.6 865.533 1448.83 876.387 1446.6 887.547C1444.36 898.693 1433.51 905.92 1422.35 903.693C1411.2 901.453 1403.97 890.6 1406.21 879.44C1408.44 868.293 1419.29 861.067 1430.45 863.307Z" fill="#dddddd"/>
<path d="M1314.84 912.32C1313.77 912.107 1312.65 912.027 1311.52 912.12C1306.49 912.52 1303.28 916.053 1304.33 920.027C1309.56 939.6 1329.92 956.12 1354.99 961.16C1379.35 966.04 1403.41 959.427 1416.31 944.307C1419 941.16 1417.63 936.627 1413.25 934.187C1408.88 931.747 1403.15 932.32 1400.45 935.48C1391.48 945.987 1374.73 950.587 1357.79 947.2C1340.35 943.693 1326.18 932.2 1322.55 918.573C1321.72 915.493 1318.56 913.067 1314.84 912.32Z" fill="#dddddd"/>
<path d="M1367.59 1067.73C1367.28 1067.73 1366.97 1067.71 1366.67 1067.67C1363.01 1067.16 1360.47 1063.8 1360.97 1060.15C1361.31 1057.72 1361.48 1055.11 1361.48 1052.37C1361.48 1051.2 1361.45 1049.99 1361.39 1048.76C1361.2 1045.08 1364.03 1041.95 1367.71 1041.76C1371.4 1041.57 1374.52 1044.4 1374.71 1048.08C1374.77 1049.53 1374.81 1050.97 1374.81 1052.37C1374.81 1055.71 1374.6 1058.95 1374.19 1061.97C1373.72 1065.32 1370.87 1067.73 1367.59 1067.73ZM1307.28 1109.08C1303.88 1109.08 1300.98 1106.51 1300.65 1103.05C1300.3 1099.39 1302.98 1096.13 1306.65 1095.79C1322.3 1094.28 1334.07 1091.31 1342.63 1086.71C1345.87 1084.96 1349.91 1086.17 1351.65 1089.41C1353.4 1092.65 1352.19 1096.69 1348.95 1098.44C1338.79 1103.91 1325.37 1107.39 1307.92 1109.05C1307.7 1109.08 1307.49 1109.08 1307.28 1109.08ZM1267.31 1110.32C1267.29 1110.32 1267.27 1110.32 1267.24 1110.32C1258.31 1110.23 1249.29 1110 1239.74 1109.75C1235.58 1109.64 1231.39 1109.53 1227.17 1109.44C1223.49 1109.36 1220.57 1106.31 1220.66 1102.63C1220.74 1098.95 1223.79 1096.03 1227.47 1096.11C1231.7 1096.21 1235.91 1096.32 1240.08 1096.43C1249.58 1096.67 1258.55 1096.91 1267.38 1096.99C1271.06 1097.03 1274.02 1100.04 1273.98 1103.73C1273.94 1107.39 1270.96 1110.32 1267.31 1110.32ZM1147.44 1112.13C1144.18 1112.13 1141.33 1109.75 1140.85 1106.43C1140.32 1102.79 1142.84 1099.4 1146.48 1098.87C1147.85 1098.67 1149.23 1098.48 1150.64 1098.32C1161.61 1097.01 1173.56 1096.23 1187.17 1095.92C1190.84 1095.84 1193.9 1098.75 1193.99 1102.44C1194.07 1106.12 1191.15 1109.16 1187.47 1109.25C1174.29 1109.55 1162.76 1110.31 1152.21 1111.56C1150.92 1111.71 1149.66 1111.88 1148.41 1112.05C1148.08 1112.11 1147.76 1112.13 1147.44 1112.13ZM1086.96 1156.16C1086.54 1156.16 1086.11 1156.12 1085.69 1156.04C1082.07 1155.35 1079.71 1151.84 1080.41 1148.23C1083.22 1133.67 1092.17 1121.29 1106.28 1112.47C1109.4 1110.52 1113.52 1111.47 1115.47 1114.59C1117.42 1117.71 1116.47 1121.83 1113.35 1123.77C1102.46 1130.59 1095.59 1139.92 1093.5 1150.76C1092.88 1153.95 1090.09 1156.16 1086.96 1156.16ZM1120.93 1224.32C1119.5 1224.32 1118.05 1223.85 1116.83 1222.89C1104.71 1213.41 1095.27 1202.73 1088.77 1191.17C1086.96 1187.96 1088.1 1183.91 1091.31 1182.09C1094.52 1180.29 1098.59 1181.43 1100.39 1184.64C1105.95 1194.52 1114.47 1204.12 1125.05 1212.4C1127.95 1214.67 1128.46 1218.85 1126.19 1221.76C1124.87 1223.44 1122.91 1224.32 1120.93 1224.32ZM1193.15 1257.72C1192.43 1257.72 1191.69 1257.6 1190.96 1257.35L1188 1256.32C1179.57 1253.39 1171.01 1250.4 1162.44 1247.37C1159.22 1246.24 1156.01 1245.01 1152.92 1243.72C1149.52 1242.31 1147.91 1238.4 1149.33 1235C1150.75 1231.61 1154.65 1230 1158.05 1231.41C1160.92 1232.61 1163.89 1233.75 1166.87 1234.81C1175.43 1237.83 1183.97 1240.8 1192.39 1243.72L1195.35 1244.76C1198.82 1245.96 1200.66 1249.76 1199.45 1253.24C1198.49 1256 1195.91 1257.72 1193.15 1257.72ZM1268.21 1285.49C1267.34 1285.49 1266.46 1285.33 1265.61 1284.97C1255.64 1280.73 1243.89 1276.19 1228.62 1270.64C1225.16 1269.39 1223.37 1265.56 1224.63 1262.11C1225.88 1258.64 1229.71 1256.85 1233.17 1258.11C1248.66 1263.73 1260.63 1268.36 1270.82 1272.69C1274.21 1274.13 1275.79 1278.05 1274.35 1281.44C1273.27 1283.97 1270.8 1285.49 1268.21 1285.49ZM1300.25 1334.31C1297.9 1334.31 1295.61 1333.05 1294.4 1330.83C1292.63 1327.6 1293.82 1323.55 1297.05 1321.79C1303.3 1318.37 1307.02 1314.83 1307.02 1312.29C1307.02 1311.19 1306.28 1308.07 1299.44 1302.83C1296.51 1300.6 1295.95 1296.41 1298.19 1293.49C1300.43 1290.56 1304.61 1290 1307.53 1292.24C1316.16 1298.83 1320.36 1305.39 1320.36 1312.29C1320.36 1320.33 1314.83 1327.27 1303.45 1333.48C1302.43 1334.04 1301.33 1334.31 1300.25 1334.31Z" fill="#2C2858"/>
<path d="M3669.85 1310.39L3637.92 1265.41L3583.19 1272.23C3577.87 1272.89 3574.33 1266.84 3577.55 1262.53L3610.44 1218.28L3587.05 1168.33C3584.77 1163.47 3589.43 1158.25 3594.52 1159.96L3646.79 1177.57L3687.05 1139.89C3690.97 1136.23 3697.37 1139.04 3697.32 1144.41L3696.72 1199.56L3745 1226.21C3749.71 1228.81 3749 1235.77 3743.88 1237.37L3691.24 1253.85L3680.81 1308C3679.8 1313.28 3672.96 1314.76 3669.85 1310.39Z" fill="#F78937" fill-opacity="0.8"/>
<path d="M184.261 2066.32L159.032 2030.79L115.791 2036.17C111.582 2036.69 108.797 2031.92 111.328 2028.51L137.321 1993.55L118.839 1954.08C117.04 1950.24 120.722 1946.11 124.742 1947.47L166.036 1961.39L197.855 1931.61C200.952 1928.71 206.012 1930.95 205.967 1935.17L205.495 1978.75L243.641 1999.81C247.355 2001.87 246.8 2007.36 242.751 2008.63L201.165 2021.65L192.923 2064.44C192.121 2068.6 186.717 2069.77 184.261 2066.32Z" fill="#F78937" fill-opacity="0.8"/>
<path d="M1021.52 947.813L966.616 942.587L936.005 988.467C933.027 992.933 926.147 991.653 924.979 986.413L912.977 932.573L859.888 917.64C854.72 916.187 853.816 909.253 858.439 906.52L905.924 878.467L903.724 823.36C903.511 818 909.831 815 913.855 818.547L955.204 855.04L1006.93 835.92C1011.97 834.053 1016.78 839.147 1014.64 844.067L992.715 894.667L1026.89 937.96C1030.21 942.173 1026.86 948.32 1021.52 947.813Z" fill="#F78937" fill-opacity="0.8"/>
<path d="M1310.51 223.48L1278.01 190.333L1233.42 203.253C1229.08 204.507 1225.35 199.947 1227.44 195.947L1248.91 154.787L1222.85 116.373C1220.31 112.64 1223.49 107.68 1227.95 108.426L1273.73 116.147L1302.21 79.4798C1304.98 75.9065 1310.68 77.3998 1311.34 81.8798L1318.15 127.8L1361.83 143.547C1366.07 145.08 1366.41 150.96 1362.36 152.973L1320.8 173.653L1319.31 220.053C1319.16 224.56 1313.67 226.707 1310.51 223.48Z" fill="#ebebef"/>
<path d="M3210.68 902.253L3164.37 898.947L3139.51 938.147C3137.09 941.96 3131.28 941.013 3130.19 936.627L3119.04 891.573L3074.07 880.04C3069.69 878.92 3068.79 873.093 3072.63 870.707L3112.04 846.173L3109.11 799.84C3108.81 795.333 3114.08 792.68 3117.53 795.587L3153.04 825.493L3196.2 808.387C3200.4 806.72 3204.55 810.893 3202.85 815.08L3185.39 858.107L3215 893.853C3217.88 897.347 3215.19 902.573 3210.68 902.253Z" fill="#F78937" fill-opacity="0.8"/>
<path d="M3174.75 161.16C3230.63 130.24 3250.92 186.2 3230.69 215C3210.81 248.147 3133.24 273.507 3133.87 268.44C3040.45 126.387 3159.4 94.5602 3174.75 161.16Z" fill="#ebebef"/>
<path d="M1560.45 1737.07C1616.33 1706.13 1636.64 1762.09 1616.41 1790.91C1596.53 1824.04 1518.96 1849.4 1519.59 1844.35C1426.17 1702.29 1545.11 1670.45 1560.45 1737.07Z" fill="#F78937" fill-opacity="0.8"/>
<path d="M2013 876.76C2024.21 819.667 2075.13 838.333 2083.36 869.333C2094.8 902.627 2066.99 971.587 2063.83 968.187C1910 950 1957.56 848.4 2013 876.76Z" fill="#F78937" fill-opacity="0.8"/>
<path d="M1389.56 2184.28L1277.44 2220.31C1262.82 2225 1247.1 2216.93 1242.4 2202.31L1206.37 2090.19C1201.67 2075.56 1209.75 2059.84 1224.37 2055.13L1251.13 2046.55C1257.41 2044.52 1264.14 2047.97 1266.16 2054.27C1268.18 2060.55 1264.72 2067.28 1258.44 2069.29L1231.69 2077.89C1229.61 2078.56 1228.46 2080.79 1229.13 2082.87L1265.15 2194.99C1265.82 2197.07 1268.05 2198.21 1270.13 2197.55L1382.25 2161.52C1384.33 2160.85 1385.48 2158.63 1384.81 2156.55L1348.79 2044.43C1348.12 2042.35 1345.88 2041.2 1343.8 2041.87L1318.28 2050.07C1312 2052.08 1305.27 2048.63 1303.25 2042.35C1301.23 2036.07 1304.69 2029.33 1310.97 2027.32L1336.49 2019.11C1351.12 2014.41 1366.84 2022.49 1371.53 2037.11L1407.56 2149.24C1412.27 2163.85 1404.19 2179.57 1389.56 2184.28Z" fill="#F78937" fill-opacity="0.8"/>
<path d="M1302.48 1982.28L1258.86 1953.31C1255.73 1951.24 1251.81 1950.75 1248.27 1952C1244.73 1953.25 1241.99 1956.09 1240.86 1959.67L1225.76 2007.49C1223.78 2013.79 1227.27 2020.51 1233.56 2022.49C1236.01 2023.27 1238.53 2023.2 1240.81 2022.48C1244.37 2021.33 1247.34 2018.53 1248.55 2014.69L1253.31 1999.63L1295.59 2131.21C1297.61 2137.49 1304.34 2140.95 1310.62 2138.93C1316.9 2136.91 1320.36 2130.19 1318.34 2123.89L1276.51 1993.72L1289.26 2002.19C1294.76 2005.84 1302.18 2004.33 1305.83 1998.84C1309.48 1993.33 1307.98 1985.92 1302.48 1982.28Z" fill="#F78937" fill-opacity="0.8"/>
<path d="M2170.28 2334.61C2170.28 2365.52 2145.21 2390.59 2114.29 2390.59C2083.37 2390.59 2058.31 2365.52 2058.31 2334.61C2058.31 2303.69 2083.37 2278.63 2114.29 2278.63C2145.21 2278.63 2170.28 2303.69 2170.28 2334.61Z" fill="#dddddd"/>
<path d="M2690.99 192.52C2690.99 217.72 2670.55 238.16 2645.35 238.16C2620.15 238.16 2599.71 217.72 2599.71 192.52C2599.71 167.32 2620.15 146.88 2645.35 146.88C2670.55 146.88 2690.99 167.32 2690.99 192.52Z" fill="#dddddd"/>
<path d="M2196.51 2211.23C2182.45 2211.23 2171.03 2222.65 2171.03 2236.69C2171.03 2250.75 2182.45 2262.17 2196.51 2262.17C2210.55 2262.17 2221.97 2250.75 2221.97 2236.69C2221.97 2222.65 2210.55 2211.23 2196.51 2211.23ZM2196.51 2277.97C2173.75 2277.97 2155.23 2259.45 2155.23 2236.69C2155.23 2213.95 2173.75 2195.43 2196.51 2195.43C2219.25 2195.43 2237.77 2213.95 2237.77 2236.69C2237.77 2259.45 2219.25 2277.97 2196.51 2277.97Z" fill="#dddddd"/>
<path d="M3829.96 893.24C3807.05 893.24 3788.4 911.88 3788.4 934.8C3788.4 957.72 3807.05 976.36 3829.96 976.36C3852.88 976.36 3871.52 957.72 3871.52 934.8C3871.52 911.88 3852.88 893.24 3829.96 893.24ZM3829.96 1002.15C3792.83 1002.15 3762.61 971.933 3762.61 934.8C3762.61 897.667 3792.83 867.454 3829.96 867.454C3867.09 867.454 3897.31 897.667 3897.31 934.8C3897.31 971.933 3867.09 1002.15 3829.96 1002.15Z" fill="#F78937" fill-opacity="0.8"/>
</svg>