<svg width="500" height="373" viewBox="0 0 500 373" fill="none" xmlns="http://www.w3.org/2000/svg">
<path d="M500 327.4H0V327.65H500V327.4Z" fill="#EBEBEB"/>
<path d="M449.9 343.49H416.78V343.74H449.9V343.49Z" fill="#EBEBEB"/>
<path d="M331.22 346.21H322.53V346.46H331.22V346.21Z" fill="#EBEBEB"/>
<path d="M415.78 334.21H396.59V334.46H415.78V334.21Z" fill="#EBEBEB"/>
<path d="M95.65 335.89H52.46V336.14H95.65V335.89Z" fill="#EBEBEB"/>
<path d="M110.89 335.89H104.56V336.14H110.89V335.89Z" fill="#EBEBEB"/>
<path d="M225.15 340.11H131.47V340.36H225.15V340.11Z" fill="#EBEBEB"/>
<path d="M237 282.8H43.91C42.3973 282.797 40.9475 282.195 39.8788 281.124C38.8102 280.054 38.21 278.603 38.21 277.09V5.66C38.2231 4.15603 38.8292 2.71798 39.8964 1.65822C40.9637 0.598458 42.4059 0.00257639 43.91 0H237C238.514 0 239.967 0.601588 241.038 1.67242C242.108 2.74325 242.71 4.19561 242.71 5.71V277.09C242.71 278.604 242.108 280.057 241.038 281.128C239.967 282.198 238.514 282.8 237 282.8ZM43.91 0.200001C42.4636 0.20265 41.0774 0.779065 40.0556 1.80273C39.0338 2.82639 38.46 4.21365 38.46 5.66V277.09C38.46 278.536 39.0338 279.924 40.0556 280.947C41.0774 281.971 42.4636 282.547 43.91 282.55H237C238.447 282.547 239.834 281.971 240.858 280.948C241.881 279.924 242.457 278.537 242.46 277.09V5.66C242.457 4.21273 241.881 2.82549 240.858 1.80212C239.834 0.77874 238.447 0.202644 237 0.200001H43.91Z" fill="#EBEBEB"/>
<path d="M453.31 282.8H260.21C258.696 282.797 257.246 282.195 256.175 281.125C255.105 280.054 254.503 278.604 254.5 277.09V5.66C254.516 4.15511 255.124 2.71708 256.193 1.65759C257.262 0.598109 258.705 0.00254829 260.21 0H453.31C454.812 0.0052045 456.252 0.602249 457.317 1.66173C458.382 2.72121 458.987 4.15775 459 5.66V277.09C459 278.601 458.401 280.05 457.335 281.121C456.268 282.191 454.821 282.795 453.31 282.8ZM260.21 0.200001C258.763 0.202644 257.375 0.77874 256.352 1.80212C255.329 2.82549 254.753 4.21273 254.75 5.66V277.09C254.753 278.537 255.329 279.924 256.352 280.948C257.375 281.971 258.763 282.547 260.21 282.55H453.31C454.757 282.547 456.145 281.971 457.168 280.948C458.191 279.924 458.767 278.537 458.77 277.09V5.66C458.767 4.21273 458.191 2.82549 457.168 1.80212C456.145 0.77874 454.757 0.202644 453.31 0.200001H260.21Z" fill="#EBEBEB"/>
<path d="M248.86 47.6699H79.3398V237.59H248.86V47.6699Z" fill="#EBEBEB"/>
<path d="M248.86 50.7402H82.6699V234.23H248.86V50.7402Z" fill="#FAFAFA"/>
<path d="M88.8099 148.13V135.24H92.4899V126.64H97.3999V113.75H98.6299V126.64H103.54V135.24H107.22V148.13H113.98V151.81H117.05V165.93H117.66V145.67H119.5V158.56H121.34V127.87H122.57V140.76H127.48V136.47H129.32V118.66H133.01V100.86H134.24V103.31H159.41V95.95H163.7V67.71H165.55V95.95H171.69V103.31H174.14V140.15H187.03V129.1H182.74V127.26H187.03V124.19H199.31V95.95H202.38V91.65H217.11V95.95H218.96V135.24H225.71V153.04H229.39V138.92H232.46V135.24H239.22V122.34H242.9V113.75H247.19V100.86H248.86V234.23H82.6699V148.13H88.8099Z" fill="#F0F0F0"/>
<path d="M150.01 105.24H148.27V106.98H150.01V105.24Z" fill="#FAFAFA"/>
<path d="M150.01 108.15H148.27V109.89H150.01V108.15Z" fill="#FAFAFA"/>
<path d="M150.01 119.82H148.27V121.56H150.01V119.82Z" fill="#FAFAFA"/>
<path d="M150.01 122.73H148.27V124.47H150.01V122.73Z" fill="#FAFAFA"/>
<path d="M150.01 125.65H148.27V127.39H150.01V125.65Z" fill="#FAFAFA"/>
<path d="M150.01 134.4H148.27V136.14H150.01V134.4Z" fill="#FAFAFA"/>
<path d="M150.01 137.31H148.27V139.05H150.01V137.31Z" fill="#FAFAFA"/>
<path d="M152.77 116.9H151.03V118.64H152.77V116.9Z" fill="#FAFAFA"/>
<path d="M152.77 119.82H151.03V121.56H152.77V119.82Z" fill="#FAFAFA"/>
<path d="M152.77 122.73H151.03V124.47H152.77V122.73Z" fill="#FAFAFA"/>
<path d="M152.77 125.65H151.03V127.39H152.77V125.65Z" fill="#FAFAFA"/>
<path d="M152.77 128.57H151.03V130.31H152.77V128.57Z" fill="#FAFAFA"/>
<path d="M152.77 134.4H151.03V136.14H152.77V134.4Z" fill="#FAFAFA"/>
<path d="M152.77 137.31H151.03V139.05H152.77V137.31Z" fill="#FAFAFA"/>
<path d="M155.53 105.24H153.79V106.98H155.53V105.24Z" fill="#FAFAFA"/>
<path d="M155.53 108.15H153.79V109.89H155.53V108.15Z" fill="#FAFAFA"/>
<path d="M155.53 111.07H153.79V112.81H155.53V111.07Z" fill="#FAFAFA"/>
<path d="M155.53 113.99H153.79V115.73H155.53V113.99Z" fill="#FAFAFA"/>
<path d="M155.53 116.9H153.79V118.64H155.53V116.9Z" fill="#FAFAFA"/>
<path d="M155.53 119.82H153.79V121.56H155.53V119.82Z" fill="#FAFAFA"/>
<path d="M155.53 122.73H153.79V124.47H155.53V122.73Z" fill="#FAFAFA"/>
<path d="M155.53 125.65H153.79V127.39H155.53V125.65Z" fill="#FAFAFA"/>
<path d="M155.53 128.57H153.79V130.31H155.53V128.57Z" fill="#FAFAFA"/>
<path d="M155.53 131.48H153.79V133.22H155.53V131.48Z" fill="#FAFAFA"/>
<path d="M155.53 137.31H153.79V139.05H155.53V137.31Z" fill="#FAFAFA"/>
<path d="M158.3 105.24H156.56V106.98H158.3V105.24Z" fill="#FAFAFA"/>
<path d="M158.3 108.15H156.56V109.89H158.3V108.15Z" fill="#FAFAFA"/>
<path d="M158.3 111.07H156.56V112.81H158.3V111.07Z" fill="#FAFAFA"/>
<path d="M158.3 113.99H156.56V115.73H158.3V113.99Z" fill="#FAFAFA"/>
<path d="M158.3 116.9H156.56V118.64H158.3V116.9Z" fill="#FAFAFA"/>
<path d="M158.3 119.82H156.56V121.56H158.3V119.82Z" fill="#FAFAFA"/>
<path d="M158.3 122.73H156.56V124.47H158.3V122.73Z" fill="#FAFAFA"/>
<path d="M158.3 148.98H156.56V150.72H158.3V148.98Z" fill="#FAFAFA"/>
<path d="M161.06 105.24H159.32V106.98H161.06V105.24Z" fill="#FAFAFA"/>
<path d="M161.06 108.15H159.32V109.89H161.06V108.15Z" fill="#FAFAFA"/>
<path d="M161.06 111.07H159.32V112.81H161.06V111.07Z" fill="#FAFAFA"/>
<path d="M161.06 113.99H159.32V115.73H161.06V113.99Z" fill="#FAFAFA"/>
<path d="M161.06 116.9H159.32V118.64H161.06V116.9Z" fill="#FAFAFA"/>
<path d="M161.06 119.82H159.32V121.56H161.06V119.82Z" fill="#FAFAFA"/>
<path d="M161.06 122.73H159.32V124.47H161.06V122.73Z" fill="#FAFAFA"/>
<path d="M161.06 125.65H159.32V127.39H161.06V125.65Z" fill="#FAFAFA"/>
<path d="M161.06 143.15H159.32V144.89H161.06V143.15Z" fill="#FAFAFA"/>
<path d="M161.06 146.06H159.32V147.8H161.06V146.06Z" fill="#FAFAFA"/>
<path d="M161.06 148.98H159.32V150.72H161.06V148.98Z" fill="#FAFAFA"/>
<path d="M161.06 151.9H159.32V153.64H161.06V151.9Z" fill="#FAFAFA"/>
<path d="M161.06 163.56H159.32V165.3H161.06V163.56Z" fill="#FAFAFA"/>
<path d="M163.82 105.24H162.08V106.98H163.82V105.24Z" fill="#FAFAFA"/>
<path d="M163.82 108.15H162.08V109.89H163.82V108.15Z" fill="#FAFAFA"/>
<path d="M163.82 111.07H162.08V112.81H163.82V111.07Z" fill="#FAFAFA"/>
<path d="M163.82 113.99H162.08V115.73H163.82V113.99Z" fill="#FAFAFA"/>
<path d="M163.82 116.9H162.08V118.64H163.82V116.9Z" fill="#FAFAFA"/>
<path d="M163.82 119.82H162.08V121.56H163.82V119.82Z" fill="#FAFAFA"/>
<path d="M163.82 122.73H162.08V124.47H163.82V122.73Z" fill="#FAFAFA"/>
<path d="M163.82 125.65H162.08V127.39H163.82V125.65Z" fill="#FAFAFA"/>
<path d="M163.82 128.57H162.08V130.31H163.82V128.57Z" fill="#FAFAFA"/>
<path d="M163.82 131.48H162.08V133.22H163.82V131.48Z" fill="#FAFAFA"/>
<path d="M163.82 140.23H162.08V141.97H163.82V140.23Z" fill="#FAFAFA"/>
<path d="M163.82 143.15H162.08V144.89H163.82V143.15Z" fill="#FAFAFA"/>
<path d="M163.82 146.06H162.08V147.8H163.82V146.06Z" fill="#FAFAFA"/>
<path d="M163.82 148.98H162.08V150.72H163.82V148.98Z" fill="#FAFAFA"/>
<path d="M163.82 151.9H162.08V153.64H163.82V151.9Z" fill="#FAFAFA"/>
<path d="M163.82 163.56H162.08V165.3H163.82V163.56Z" fill="#FAFAFA"/>
<path d="M166.58 105.24H164.84V106.98H166.58V105.24Z" fill="#FAFAFA"/>
<path d="M166.58 108.15H164.84V109.89H166.58V108.15Z" fill="#FAFAFA"/>
<path d="M166.58 111.07H164.84V112.81H166.58V111.07Z" fill="#FAFAFA"/>
<path d="M166.58 113.99H164.84V115.73H166.58V113.99Z" fill="#FAFAFA"/>
<path d="M166.58 116.9H164.84V118.64H166.58V116.9Z" fill="#FAFAFA"/>
<path d="M166.58 119.82H164.84V121.56H166.58V119.82Z" fill="#FAFAFA"/>
<path d="M166.58 122.73H164.84V124.47H166.58V122.73Z" fill="#FAFAFA"/>
<path d="M166.58 125.65H164.84V127.39H166.58V125.65Z" fill="#FAFAFA"/>
<path d="M166.58 128.57H164.84V130.31H166.58V128.57Z" fill="#FAFAFA"/>
<path d="M166.58 131.48H164.84V133.22H166.58V131.48Z" fill="#FAFAFA"/>
<path d="M166.58 134.4H164.84V136.14H166.58V134.4Z" fill="#FAFAFA"/>
<path d="M166.58 137.31H164.84V139.05H166.58V137.31Z" fill="#FAFAFA"/>
<path d="M166.58 140.23H164.84V141.97H166.58V140.23Z" fill="#FAFAFA"/>
<path d="M166.58 143.15H164.84V144.89H166.58V143.15Z" fill="#FAFAFA"/>
<path d="M166.58 146.06H164.84V147.8H166.58V146.06Z" fill="#FAFAFA"/>
<path d="M166.58 148.98H164.84V150.72H166.58V148.98Z" fill="#FAFAFA"/>
<path d="M166.58 151.9H164.84V153.64H166.58V151.9Z" fill="#FAFAFA"/>
<path d="M166.58 154.81H164.84V156.55H166.58V154.81Z" fill="#FAFAFA"/>
<path d="M169.35 105.24H167.61V106.98H169.35V105.24Z" fill="#FAFAFA"/>
<path d="M169.35 108.15H167.61V109.89H169.35V108.15Z" fill="#FAFAFA"/>
<path d="M169.35 111.07H167.61V112.81H169.35V111.07Z" fill="#FAFAFA"/>
<path d="M169.35 113.99H167.61V115.73H169.35V113.99Z" fill="#FAFAFA"/>
<path d="M169.35 116.9H167.61V118.64H169.35V116.9Z" fill="#FAFAFA"/>
<path d="M169.35 119.82H167.61V121.56H169.35V119.82Z" fill="#FAFAFA"/>
<path d="M169.35 122.73H167.61V124.47H169.35V122.73Z" fill="#FAFAFA"/>
<path d="M169.35 125.65H167.61V127.39H169.35V125.65Z" fill="#FAFAFA"/>
<path d="M169.35 128.57H167.61V130.31H169.35V128.57Z" fill="#FAFAFA"/>
<path d="M169.35 131.48H167.61V133.22H169.35V131.48Z" fill="#FAFAFA"/>
<path d="M169.35 140.23H167.61V141.97H169.35V140.23Z" fill="#FAFAFA"/>
<path d="M169.35 143.15H167.61V144.89H169.35V143.15Z" fill="#FAFAFA"/>
<path d="M169.35 146.06H167.61V147.8H169.35V146.06Z" fill="#FAFAFA"/>
<path d="M169.35 148.98H167.61V150.72H169.35V148.98Z" fill="#FAFAFA"/>
<path d="M172.11 105.24H170.37V106.98H172.11V105.24Z" fill="#FAFAFA"/>
<path d="M172.11 108.15H170.37V109.89H172.11V108.15Z" fill="#FAFAFA"/>
<path d="M172.11 111.07H170.37V112.81H172.11V111.07Z" fill="#FAFAFA"/>
<path d="M172.11 113.99H170.37V115.73H172.11V113.99Z" fill="#FAFAFA"/>
<path d="M172.11 116.9H170.37V118.64H172.11V116.9Z" fill="#FAFAFA"/>
<path d="M172.11 119.82H170.37V121.56H172.11V119.82Z" fill="#FAFAFA"/>
<path d="M172.11 122.73H170.37V124.47H172.11V122.73Z" fill="#FAFAFA"/>
<path d="M172.11 125.65H170.37V127.39H172.11V125.65Z" fill="#FAFAFA"/>
<path d="M172.11 128.57H170.37V130.31H172.11V128.57Z" fill="#FAFAFA"/>
<path d="M172.11 131.48H170.37V133.22H172.11V131.48Z" fill="#FAFAFA"/>
<path d="M172.11 140.23H170.37V141.97H172.11V140.23Z" fill="#FAFAFA"/>
<path d="M172.11 143.15H170.37V144.89H172.11V143.15Z" fill="#FAFAFA"/>
<path d="M172.11 146.06H170.37V147.8H172.11V146.06Z" fill="#FAFAFA"/>
<path d="M203.21 97.6699H201.47V99.4099H203.21V97.6699Z" fill="#FAFAFA"/>
<path d="M203.21 100.58H201.47V102.32H203.21V100.58Z" fill="#FAFAFA"/>
<path d="M203.21 103.5H201.47V105.24H203.21V103.5Z" fill="#FAFAFA"/>
<path d="M203.21 106.41H201.47V108.15H203.21V106.41Z" fill="#FAFAFA"/>
<path d="M203.21 109.33H201.47V111.07H203.21V109.33Z" fill="#FAFAFA"/>
<path d="M203.21 112.25H201.47V113.99H203.21V112.25Z" fill="#FAFAFA"/>
<path d="M203.21 115.16H201.47V116.9H203.21V115.16Z" fill="#FAFAFA"/>
<path d="M203.21 118.08H201.47V119.82H203.21V118.08Z" fill="#FAFAFA"/>
<path d="M203.21 126.83H201.47V128.57H203.21V126.83Z" fill="#FAFAFA"/>
<path d="M203.21 129.74H201.47V131.48H203.21V129.74Z" fill="#FAFAFA"/>
<path d="M205.98 97.6699H204.24V99.4099H205.98V97.6699Z" fill="#FAFAFA"/>
<path d="M205.98 100.58H204.24V102.32H205.98V100.58Z" fill="#FAFAFA"/>
<path d="M205.98 103.5H204.24V105.24H205.98V103.5Z" fill="#FAFAFA"/>
<path d="M205.98 106.41H204.24V108.15H205.98V106.41Z" fill="#FAFAFA"/>
<path d="M205.98 109.33H204.24V111.07H205.98V109.33Z" fill="#FAFAFA"/>
<path d="M205.98 112.25H204.24V113.99H205.98V112.25Z" fill="#FAFAFA"/>
<path d="M205.98 115.16H204.24V116.9H205.98V115.16Z" fill="#FAFAFA"/>
<path d="M205.98 118.08H204.24V119.82H205.98V118.08Z" fill="#FAFAFA"/>
<path d="M205.98 129.74H204.24V131.48H205.98V129.74Z" fill="#FAFAFA"/>
<path d="M208.74 97.6699H207V99.4099H208.74V97.6699Z" fill="#FAFAFA"/>
<path d="M208.74 100.58H207V102.32H208.74V100.58Z" fill="#FAFAFA"/>
<path d="M208.74 103.5H207V105.24H208.74V103.5Z" fill="#FAFAFA"/>
<path d="M208.74 106.41H207V108.15H208.74V106.41Z" fill="#FAFAFA"/>
<path d="M208.74 109.33H207V111.07H208.74V109.33Z" fill="#FAFAFA"/>
<path d="M208.74 112.25H207V113.99H208.74V112.25Z" fill="#FAFAFA"/>
<path d="M208.74 115.16H207V116.9H208.74V115.16Z" fill="#FAFAFA"/>
<path d="M208.74 118.08H207V119.82H208.74V118.08Z" fill="#FAFAFA"/>
<path d="M211.5 97.6699H209.76V99.4099H211.5V97.6699Z" fill="#FAFAFA"/>
<path d="M211.5 100.58H209.76V102.32H211.5V100.58Z" fill="#FAFAFA"/>
<path d="M211.5 103.5H209.76V105.24H211.5V103.5Z" fill="#FAFAFA"/>
<path d="M211.5 106.41H209.76V108.15H211.5V106.41Z" fill="#FAFAFA"/>
<path d="M211.5 109.33H209.76V111.07H211.5V109.33Z" fill="#FAFAFA"/>
<path d="M211.5 112.25H209.76V113.99H211.5V112.25Z" fill="#FAFAFA"/>
<path d="M211.5 118.08H209.76V119.82H211.5V118.08Z" fill="#FAFAFA"/>
<path d="M211.5 121H209.76V122.74H211.5V121Z" fill="#FAFAFA"/>
<path d="M211.5 129.74H209.76V131.48H211.5V129.74Z" fill="#FAFAFA"/>
<path d="M211.5 132.66H209.76V134.4H211.5V132.66Z" fill="#FAFAFA"/>
<path d="M211.5 135.58H209.76V137.32H211.5V135.58Z" fill="#FAFAFA"/>
<path d="M211.5 138.49H209.76V140.23H211.5V138.49Z" fill="#FAFAFA"/>
<path d="M211.5 141.41H209.76V143.15H211.5V141.41Z" fill="#FAFAFA"/>
<path d="M211.5 144.32H209.76V146.06H211.5V144.32Z" fill="#FAFAFA"/>
<path d="M211.5 147.24H209.76V148.98H211.5V147.24Z" fill="#FAFAFA"/>
<path d="M214.26 97.6699H212.52V99.4099H214.26V97.6699Z" fill="#FAFAFA"/>
<path d="M214.26 100.58H212.52V102.32H214.26V100.58Z" fill="#FAFAFA"/>
<path d="M214.26 103.5H212.52V105.24H214.26V103.5Z" fill="#FAFAFA"/>
<path d="M214.26 106.41H212.52V108.15H214.26V106.41Z" fill="#FAFAFA"/>
<path d="M214.26 109.33H212.52V111.07H214.26V109.33Z" fill="#FAFAFA"/>
<path d="M214.26 112.25H212.52V113.99H214.26V112.25Z" fill="#FAFAFA"/>
<path d="M214.26 121H212.52V122.74H214.26V121Z" fill="#FAFAFA"/>
<path d="M214.26 123.91H212.52V125.65H214.26V123.91Z" fill="#FAFAFA"/>
<path d="M214.26 126.83H212.52V128.57H214.26V126.83Z" fill="#FAFAFA"/>
<path d="M214.26 129.74H212.52V131.48H214.26V129.74Z" fill="#FAFAFA"/>
<path d="M214.26 132.66H212.52V134.4H214.26V132.66Z" fill="#FAFAFA"/>
<path d="M214.26 135.58H212.52V137.32H214.26V135.58Z" fill="#FAFAFA"/>
<path d="M214.26 138.49H212.52V140.23H214.26V138.49Z" fill="#FAFAFA"/>
<path d="M214.26 141.41H212.52V143.15H214.26V141.41Z" fill="#FAFAFA"/>
<path d="M214.26 144.32H212.52V146.06H214.26V144.32Z" fill="#FAFAFA"/>
<path d="M214.26 147.24H212.52V148.98H214.26V147.24Z" fill="#FAFAFA"/>
<path d="M214.26 150.16H212.52V151.9H214.26V150.16Z" fill="#FAFAFA"/>
<path d="M214.26 155.99H212.52V157.73H214.26V155.99Z" fill="#FAFAFA"/>
<path d="M217.03 97.6699H215.29V99.4099H217.03V97.6699Z" fill="#FAFAFA"/>
<path d="M217.03 100.58H215.29V102.32H217.03V100.58Z" fill="#FAFAFA"/>
<path d="M217.03 103.5H215.29V105.24H217.03V103.5Z" fill="#FAFAFA"/>
<path d="M217.03 106.41H215.29V108.15H217.03V106.41Z" fill="#FAFAFA"/>
<path d="M217.03 109.33H215.29V111.07H217.03V109.33Z" fill="#FAFAFA"/>
<path d="M217.03 112.25H215.29V113.99H217.03V112.25Z" fill="#FAFAFA"/>
<path d="M217.03 121H215.29V122.74H217.03V121Z" fill="#FAFAFA"/>
<path d="M217.03 123.91H215.29V125.65H217.03V123.91Z" fill="#FAFAFA"/>
<path d="M217.03 126.83H215.29V128.57H217.03V126.83Z" fill="#FAFAFA"/>
<path d="M217.03 129.74H215.29V131.48H217.03V129.74Z" fill="#FAFAFA"/>
<path d="M217.03 138.49H215.29V140.23H217.03V138.49Z" fill="#FAFAFA"/>
<path d="M217.03 141.41H215.29V143.15H217.03V141.41Z" fill="#FAFAFA"/>
<path d="M217.03 144.32H215.29V146.06H217.03V144.32Z" fill="#FAFAFA"/>
<path d="M217.03 147.24H215.29V148.98H217.03V147.24Z" fill="#FAFAFA"/>
<path d="M217.03 150.16H215.29V151.9H217.03V150.16Z" fill="#FAFAFA"/>
<path d="M217.03 155.99H215.29V157.73H217.03V155.99Z" fill="#FAFAFA"/>
<path d="M217.03 158.9H215.29V160.64H217.03V158.9Z" fill="#FAFAFA"/>
<path d="M242.09 124.78H240.35V126.52H242.09V124.78Z" fill="#FAFAFA"/>
<path d="M242.09 127.7H240.35V129.44H242.09V127.7Z" fill="#FAFAFA"/>
<path d="M242.09 130.61H240.35V132.35H242.09V130.61Z" fill="#FAFAFA"/>
<path d="M242.09 133.53H240.35V135.27H242.09V133.53Z" fill="#FAFAFA"/>
<path d="M242.09 136.45H240.35V138.19H242.09V136.45Z" fill="#FAFAFA"/>
<path d="M242.09 139.36H240.35V141.1H242.09V139.36Z" fill="#FAFAFA"/>
<path d="M242.09 142.28H240.35V144.02H242.09V142.28Z" fill="#FAFAFA"/>
<path d="M242.09 151.03H240.35V152.77H242.09V151.03Z" fill="#FAFAFA"/>
<path d="M242.09 153.94H240.35V155.68H242.09V153.94Z" fill="#FAFAFA"/>
<path d="M242.09 156.86H240.35V158.6H242.09V156.86Z" fill="#FAFAFA"/>
<path d="M244.86 124.78H243.12V126.52H244.86V124.78Z" fill="#FAFAFA"/>
<path d="M244.86 127.7H243.12V129.44H244.86V127.7Z" fill="#FAFAFA"/>
<path d="M244.86 130.61H243.12V132.35H244.86V130.61Z" fill="#FAFAFA"/>
<path d="M244.86 133.53H243.12V135.27H244.86V133.53Z" fill="#FAFAFA"/>
<path d="M244.86 136.45H243.12V138.19H244.86V136.45Z" fill="#FAFAFA"/>
<path d="M244.86 139.36H243.12V141.1H244.86V139.36Z" fill="#FAFAFA"/>
<path d="M244.86 142.28H243.12V144.02H244.86V142.28Z" fill="#FAFAFA"/>
<path d="M248.38 124.78H245.88V126.52H248.38V124.78Z" fill="#FAFAFA"/>
<path d="M248.38 127.7H245.88V129.44H248.38V127.7Z" fill="#FAFAFA"/>
<path d="M248.38 130.61H245.88V132.35H248.38V130.61Z" fill="#FAFAFA"/>
<path d="M248.38 133.53H245.88V135.27H248.38V133.53Z" fill="#FAFAFA"/>
<path d="M248.38 136.45H245.88V138.19H248.38V136.45Z" fill="#FAFAFA"/>
<path d="M248.38 139.36H245.88V141.1H248.38V139.36Z" fill="#FAFAFA"/>
<path d="M248.38 142.28H245.88V144.02H248.38V142.28Z" fill="#FAFAFA"/>
<path d="M95.6799 128.57H93.9399V130.31H95.6799V128.57Z" fill="#FAFAFA"/>
<path d="M95.6799 131.48H93.9399V133.22H95.6799V131.48Z" fill="#FAFAFA"/>
<path d="M95.6799 134.4H93.9399V136.14H95.6799V134.4Z" fill="#FAFAFA"/>
<path d="M95.6799 137.31H93.9399V139.05H95.6799V137.31Z" fill="#FAFAFA"/>
<path d="M95.6799 140.23H93.9399V141.97H95.6799V140.23Z" fill="#FAFAFA"/>
<path d="M95.6799 143.15H93.9399V144.89H95.6799V143.15Z" fill="#FAFAFA"/>
<path d="M95.6799 146.06H93.9399V147.8H95.6799V146.06Z" fill="#FAFAFA"/>
<path d="M95.6799 148.98H93.9399V150.72H95.6799V148.98Z" fill="#FAFAFA"/>
<path d="M95.6799 151.9H93.9399V153.64H95.6799V151.9Z" fill="#FAFAFA"/>
<path d="M95.6799 154.81H93.9399V156.55H95.6799V154.81Z" fill="#FAFAFA"/>
<path d="M95.6799 157.73H93.9399V159.47H95.6799V157.73Z" fill="#FAFAFA"/>
<path d="M95.6799 160.64H93.9399V162.38H95.6799V160.64Z" fill="#FAFAFA"/>
<path d="M95.6799 163.56H93.9399V165.3H95.6799V163.56Z" fill="#FAFAFA"/>
<path d="M95.6799 166.48H93.9399V168.22H95.6799V166.48Z" fill="#FAFAFA"/>
<path d="M95.6799 169.39H93.9399V171.13H95.6799V169.39Z" fill="#FAFAFA"/>
<path d="M95.6799 172.31H93.9399V174.05H95.6799V172.31Z" fill="#FAFAFA"/>
<path d="M95.6799 175.22H93.9399V176.96H95.6799V175.22Z" fill="#FAFAFA"/>
<path d="M95.6799 178.14H93.9399V179.88H95.6799V178.14Z" fill="#FAFAFA"/>
<path d="M95.6799 181.06H93.9399V182.8H95.6799V181.06Z" fill="#FAFAFA"/>
<path d="M95.6799 183.97H93.9399V185.71H95.6799V183.97Z" fill="#FAFAFA"/>
<path d="M98.4402 128.57H96.7002V130.31H98.4402V128.57Z" fill="#FAFAFA"/>
<path d="M98.4402 131.48H96.7002V133.22H98.4402V131.48Z" fill="#FAFAFA"/>
<path d="M98.4402 134.4H96.7002V136.14H98.4402V134.4Z" fill="#FAFAFA"/>
<path d="M98.4402 137.31H96.7002V139.05H98.4402V137.31Z" fill="#FAFAFA"/>
<path d="M98.4402 140.23H96.7002V141.97H98.4402V140.23Z" fill="#FAFAFA"/>
<path d="M98.4402 143.15H96.7002V144.89H98.4402V143.15Z" fill="#FAFAFA"/>
<path d="M98.4402 146.06H96.7002V147.8H98.4402V146.06Z" fill="#FAFAFA"/>
<path d="M98.4402 148.98H96.7002V150.72H98.4402V148.98Z" fill="#FAFAFA"/>
<path d="M98.4402 151.9H96.7002V153.64H98.4402V151.9Z" fill="#FAFAFA"/>
<path d="M98.4402 154.81H96.7002V156.55H98.4402V154.81Z" fill="#FAFAFA"/>
<path d="M98.4402 157.73H96.7002V159.47H98.4402V157.73Z" fill="#FAFAFA"/>
<path d="M98.4402 160.64H96.7002V162.38H98.4402V160.64Z" fill="#FAFAFA"/>
<path d="M98.4402 163.56H96.7002V165.3H98.4402V163.56Z" fill="#FAFAFA"/>
<path d="M98.4402 166.48H96.7002V168.22H98.4402V166.48Z" fill="#FAFAFA"/>
<path d="M98.4402 169.39H96.7002V171.13H98.4402V169.39Z" fill="#FAFAFA"/>
<path d="M98.4402 172.31H96.7002V174.05H98.4402V172.31Z" fill="#FAFAFA"/>
<path d="M98.4402 175.22H96.7002V176.96H98.4402V175.22Z" fill="#FAFAFA"/>
<path d="M98.4402 178.14H96.7002V179.88H98.4402V178.14Z" fill="#FAFAFA"/>
<path d="M101.2 128.57H99.46V130.31H101.2V128.57Z" fill="#FAFAFA"/>
<path d="M101.2 131.48H99.46V133.22H101.2V131.48Z" fill="#FAFAFA"/>
<path d="M101.2 134.4H99.46V136.14H101.2V134.4Z" fill="#FAFAFA"/>
<path d="M101.2 137.31H99.46V139.05H101.2V137.31Z" fill="#FAFAFA"/>
<path d="M101.2 140.23H99.46V141.97H101.2V140.23Z" fill="#FAFAFA"/>
<path d="M101.2 143.15H99.46V144.89H101.2V143.15Z" fill="#FAFAFA"/>
<path d="M101.2 146.06H99.46V147.8H101.2V146.06Z" fill="#FAFAFA"/>
<path d="M101.2 148.98H99.46V150.72H101.2V148.98Z" fill="#FAFAFA"/>
<path d="M101.2 151.9H99.46V153.64H101.2V151.9Z" fill="#FAFAFA"/>
<path d="M101.2 154.81H99.46V156.55H101.2V154.81Z" fill="#FAFAFA"/>
<path d="M101.2 157.73H99.46V159.47H101.2V157.73Z" fill="#FAFAFA"/>
<path d="M101.2 160.64H99.46V162.38H101.2V160.64Z" fill="#FAFAFA"/>
<path d="M101.2 163.56H99.46V165.3H101.2V163.56Z" fill="#FAFAFA"/>
<path d="M101.2 166.48H99.46V168.22H101.2V166.48Z" fill="#FAFAFA"/>
<path d="M101.2 169.39H99.46V171.13H101.2V169.39Z" fill="#FAFAFA"/>
<path d="M101.2 172.31H99.46V174.05H101.2V172.31Z" fill="#FAFAFA"/>
<path d="M101.2 175.22H99.46V176.96H101.2V175.22Z" fill="#FAFAFA"/>
<path d="M101.2 178.14H99.46V179.88H101.2V178.14Z" fill="#FAFAFA"/>
<path d="M85.3401 149.85H83.6001V151.59H85.3401V149.85Z" fill="#FAFAFA"/>
<path d="M85.3401 152.77H83.6001V154.51H85.3401V152.77Z" fill="#FAFAFA"/>
<path d="M85.3401 155.68H83.6001V157.42H85.3401V155.68Z" fill="#FAFAFA"/>
<path d="M85.3401 158.6H83.6001V160.34H85.3401V158.6Z" fill="#FAFAFA"/>
<path d="M85.3401 161.51H83.6001V163.25H85.3401V161.51Z" fill="#FAFAFA"/>
<path d="M85.3401 164.43H83.6001V166.17H85.3401V164.43Z" fill="#FAFAFA"/>
<path d="M85.3401 167.35H83.6001V169.09H85.3401V167.35Z" fill="#FAFAFA"/>
<path d="M85.3401 170.26H83.6001V172H85.3401V170.26Z" fill="#FAFAFA"/>
<path d="M85.3401 173.18H83.6001V174.92H85.3401V173.18Z" fill="#FAFAFA"/>
<path d="M85.3401 176.09H83.6001V177.83H85.3401V176.09Z" fill="#FAFAFA"/>
<path d="M85.3401 179.01H83.6001V180.75H85.3401V179.01Z" fill="#FAFAFA"/>
<path d="M85.3401 181.93H83.6001V183.67H85.3401V181.93Z" fill="#FAFAFA"/>
<path d="M85.3401 184.84H83.6001V186.58H85.3401V184.84Z" fill="#FAFAFA"/>
<path d="M88.0999 149.85H86.3599V151.59H88.0999V149.85Z" fill="#FAFAFA"/>
<path d="M88.0999 152.77H86.3599V154.51H88.0999V152.77Z" fill="#FAFAFA"/>
<path d="M88.0999 155.68H86.3599V157.42H88.0999V155.68Z" fill="#FAFAFA"/>
<path d="M88.0999 158.6H86.3599V160.34H88.0999V158.6Z" fill="#FAFAFA"/>
<path d="M88.0999 161.51H86.3599V163.25H88.0999V161.51Z" fill="#FAFAFA"/>
<path d="M88.0999 164.43H86.3599V166.17H88.0999V164.43Z" fill="#FAFAFA"/>
<path d="M88.0999 167.35H86.3599V169.09H88.0999V167.35Z" fill="#FAFAFA"/>
<path d="M88.0999 170.26H86.3599V172H88.0999V170.26Z" fill="#FAFAFA"/>
<path d="M88.0999 173.18H86.3599V174.92H88.0999V173.18Z" fill="#FAFAFA"/>
<path d="M88.0999 176.09H86.3599V177.83H88.0999V176.09Z" fill="#FAFAFA"/>
<path d="M88.0999 179.01H86.3599V180.75H88.0999V179.01Z" fill="#FAFAFA"/>
<path d="M88.0999 181.93H86.3599V183.67H88.0999V181.93Z" fill="#FAFAFA"/>
<path d="M88.0999 184.84H86.3599V186.58H88.0999V184.84Z" fill="#FAFAFA"/>
<path d="M90.8699 149.85H89.1299V151.59H90.8699V149.85Z" fill="#FAFAFA"/>
<path d="M90.8699 152.77H89.1299V154.51H90.8699V152.77Z" fill="#FAFAFA"/>
<path d="M90.8699 155.68H89.1299V157.42H90.8699V155.68Z" fill="#FAFAFA"/>
<path d="M90.8699 158.6H89.1299V160.34H90.8699V158.6Z" fill="#FAFAFA"/>
<path d="M90.8699 161.51H89.1299V163.25H90.8699V161.51Z" fill="#FAFAFA"/>
<path d="M90.8699 164.43H89.1299V166.17H90.8699V164.43Z" fill="#FAFAFA"/>
<path d="M90.8699 167.35H89.1299V169.09H90.8699V167.35Z" fill="#FAFAFA"/>
<path d="M90.8699 170.26H89.1299V172H90.8699V170.26Z" fill="#FAFAFA"/>
<path d="M90.8699 173.18H89.1299V174.92H90.8699V173.18Z" fill="#FAFAFA"/>
<path d="M90.8699 176.09H89.1299V177.83H90.8699V176.09Z" fill="#FAFAFA"/>
<path d="M90.8699 179.01H89.1299V180.75H90.8699V179.01Z" fill="#FAFAFA"/>
<path d="M90.8699 181.93H89.1299V183.67H90.8699V181.93Z" fill="#FAFAFA"/>
<path d="M90.8699 184.84H89.1299V186.58H90.8699V184.84Z" fill="#FAFAFA"/>
<path d="M90.8699 187.76H89.1299V189.5H90.8699V187.76Z" fill="#FAFAFA"/>
<path d="M106.22 150.72H104.48V152.46H106.22V150.72Z" fill="#FAFAFA"/>
<path d="M106.22 153.63H104.48V155.37H106.22V153.63Z" fill="#FAFAFA"/>
<path d="M106.22 156.55H104.48V158.29H106.22V156.55Z" fill="#FAFAFA"/>
<path d="M106.22 159.47H104.48V161.21H106.22V159.47Z" fill="#FAFAFA"/>
<path d="M106.22 162.38H104.48V164.12H106.22V162.38Z" fill="#FAFAFA"/>
<path d="M106.22 165.3H104.48V167.04H106.22V165.3Z" fill="#FAFAFA"/>
<path d="M106.22 168.22H104.48V169.96H106.22V168.22Z" fill="#FAFAFA"/>
<path d="M106.22 171.13H104.48V172.87H106.22V171.13Z" fill="#FAFAFA"/>
<path d="M106.22 174.05H104.48V175.79H106.22V174.05Z" fill="#FAFAFA"/>
<path d="M106.22 176.96H104.48V178.7H106.22V176.96Z" fill="#FAFAFA"/>
<path d="M106.22 185.71H104.48V187.45H106.22V185.71Z" fill="#FAFAFA"/>
<path d="M108.98 150.72H107.24V152.46H108.98V150.72Z" fill="#FAFAFA"/>
<path d="M108.98 153.63H107.24V155.37H108.98V153.63Z" fill="#FAFAFA"/>
<path d="M108.98 156.55H107.24V158.29H108.98V156.55Z" fill="#FAFAFA"/>
<path d="M108.98 159.47H107.24V161.21H108.98V159.47Z" fill="#FAFAFA"/>
<path d="M108.98 162.38H107.24V164.12H108.98V162.38Z" fill="#FAFAFA"/>
<path d="M108.98 165.3H107.24V167.04H108.98V165.3Z" fill="#FAFAFA"/>
<path d="M108.98 168.22H107.24V169.96H108.98V168.22Z" fill="#FAFAFA"/>
<path d="M108.98 171.13H107.24V172.87H108.98V171.13Z" fill="#FAFAFA"/>
<path d="M108.98 174.05H107.24V175.79H108.98V174.05Z" fill="#FAFAFA"/>
<path d="M108.98 182.8H107.24V184.54H108.98V182.8Z" fill="#FAFAFA"/>
<path d="M108.98 185.71H107.24V187.45H108.98V185.71Z" fill="#FAFAFA"/>
<path d="M111.74 150.72H110V152.46H111.74V150.72Z" fill="#FAFAFA"/>
<path d="M111.74 153.63H110V155.37H111.74V153.63Z" fill="#FAFAFA"/>
<path d="M111.74 156.55H110V158.29H111.74V156.55Z" fill="#FAFAFA"/>
<path d="M111.74 159.47H110V161.21H111.74V159.47Z" fill="#FAFAFA"/>
<path d="M111.74 162.38H110V164.12H111.74V162.38Z" fill="#FAFAFA"/>
<path d="M111.74 165.3H110V167.04H111.74V165.3Z" fill="#FAFAFA"/>
<path d="M111.74 168.22H110V169.96H111.74V168.22Z" fill="#FAFAFA"/>
<path d="M111.74 171.13H110V172.87H111.74V171.13Z" fill="#FAFAFA"/>
<path d="M111.74 179.88H110V181.62H111.74V179.88Z" fill="#FAFAFA"/>
<path d="M111.74 182.8H110V184.54H111.74V182.8Z" fill="#FAFAFA"/>
<path d="M111.74 185.71H110V187.45H111.74V185.71Z" fill="#FAFAFA"/>
<path d="M137.42 106.41H135.68V108.15H137.42V106.41Z" fill="#FAFAFA"/>
<path d="M137.42 109.33H135.68V111.07H137.42V109.33Z" fill="#FAFAFA"/>
<path d="M137.42 112.25H135.68V113.99H137.42V112.25Z" fill="#FAFAFA"/>
<path d="M137.42 115.16H135.68V116.9H137.42V115.16Z" fill="#FAFAFA"/>
<path d="M137.42 118.08H135.68V119.82H137.42V118.08Z" fill="#FAFAFA"/>
<path d="M137.42 121H135.68V122.74H137.42V121Z" fill="#FAFAFA"/>
<path d="M137.42 123.91H135.68V125.65H137.42V123.91Z" fill="#FAFAFA"/>
<path d="M137.42 126.83H135.68V128.57H137.42V126.83Z" fill="#FAFAFA"/>
<path d="M137.42 129.74H135.68V131.48H137.42V129.74Z" fill="#FAFAFA"/>
<path d="M137.42 132.66H135.68V134.4H137.42V132.66Z" fill="#FAFAFA"/>
<path d="M137.42 135.58H135.68V137.32H137.42V135.58Z" fill="#FAFAFA"/>
<path d="M137.42 138.49H135.68V140.23H137.42V138.49Z" fill="#FAFAFA"/>
<path d="M137.42 141.41H135.68V143.15H137.42V141.41Z" fill="#FAFAFA"/>
<path d="M137.42 144.32H135.68V146.06H137.42V144.32Z" fill="#FAFAFA"/>
<path d="M137.42 147.24H135.68V148.98H137.42V147.24Z" fill="#FAFAFA"/>
<path d="M137.42 150.16H135.68V151.9H137.42V150.16Z" fill="#FAFAFA"/>
<path d="M137.42 153.07H135.68V154.81H137.42V153.07Z" fill="#FAFAFA"/>
<path d="M137.42 158.9H135.68V160.64H137.42V158.9Z" fill="#FAFAFA"/>
<path d="M137.42 161.82H135.68V163.56H137.42V161.82Z" fill="#FAFAFA"/>
<path d="M137.42 164.74H135.68V166.48H137.42V164.74Z" fill="#FAFAFA"/>
<path d="M137.42 167.65H135.68V169.39H137.42V167.65Z" fill="#FAFAFA"/>
<path d="M137.42 170.57H135.68V172.31H137.42V170.57Z" fill="#FAFAFA"/>
<path d="M140.18 106.41H138.44V108.15H140.18V106.41Z" fill="#FAFAFA"/>
<path d="M140.18 109.33H138.44V111.07H140.18V109.33Z" fill="#FAFAFA"/>
<path d="M140.18 112.25H138.44V113.99H140.18V112.25Z" fill="#FAFAFA"/>
<path d="M140.18 115.16H138.44V116.9H140.18V115.16Z" fill="#FAFAFA"/>
<path d="M140.18 118.08H138.44V119.82H140.18V118.08Z" fill="#FAFAFA"/>
<path d="M140.18 121H138.44V122.74H140.18V121Z" fill="#FAFAFA"/>
<path d="M140.18 123.91H138.44V125.65H140.18V123.91Z" fill="#FAFAFA"/>
<path d="M140.18 126.83H138.44V128.57H140.18V126.83Z" fill="#FAFAFA"/>
<path d="M140.18 129.74H138.44V131.48H140.18V129.74Z" fill="#FAFAFA"/>
<path d="M140.18 132.66H138.44V134.4H140.18V132.66Z" fill="#FAFAFA"/>
<path d="M140.18 135.58H138.44V137.32H140.18V135.58Z" fill="#FAFAFA"/>
<path d="M140.18 138.49H138.44V140.23H140.18V138.49Z" fill="#FAFAFA"/>
<path d="M140.18 141.41H138.44V143.15H140.18V141.41Z" fill="#FAFAFA"/>
<path d="M140.18 144.32H138.44V146.06H140.18V144.32Z" fill="#FAFAFA"/>
<path d="M140.18 147.24H138.44V148.98H140.18V147.24Z" fill="#FAFAFA"/>
<path d="M140.18 150.16H138.44V151.9H140.18V150.16Z" fill="#FAFAFA"/>
<path d="M140.18 167.65H138.44V169.39H140.18V167.65Z" fill="#FAFAFA"/>
<path d="M140.18 170.57H138.44V172.31H140.18V170.57Z" fill="#FAFAFA"/>
<path d="M142.95 106.41H141.21V108.15H142.95V106.41Z" fill="#FAFAFA"/>
<path d="M142.95 109.33H141.21V111.07H142.95V109.33Z" fill="#FAFAFA"/>
<path d="M142.95 112.25H141.21V113.99H142.95V112.25Z" fill="#FAFAFA"/>
<path d="M142.95 115.16H141.21V116.9H142.95V115.16Z" fill="#FAFAFA"/>
<path d="M142.95 118.08H141.21V119.82H142.95V118.08Z" fill="#FAFAFA"/>
<path d="M142.95 121H141.21V122.74H142.95V121Z" fill="#FAFAFA"/>
<path d="M142.95 123.91H141.21V125.65H142.95V123.91Z" fill="#FAFAFA"/>
<path d="M142.95 126.83H141.21V128.57H142.95V126.83Z" fill="#FAFAFA"/>
<path d="M142.95 129.74H141.21V131.48H142.95V129.74Z" fill="#FAFAFA"/>
<path d="M142.95 132.66H141.21V134.4H142.95V132.66Z" fill="#FAFAFA"/>
<path d="M142.95 135.58H141.21V137.32H142.95V135.58Z" fill="#FAFAFA"/>
<path d="M142.95 138.49H141.21V140.23H142.95V138.49Z" fill="#FAFAFA"/>
<path d="M142.95 141.41H141.21V143.15H142.95V141.41Z" fill="#FAFAFA"/>
<path d="M142.95 144.32H141.21V146.06H142.95V144.32Z" fill="#FAFAFA"/>
<path d="M142.95 147.24H141.21V148.98H142.95V147.24Z" fill="#FAFAFA"/>
<path d="M142.95 150.16H141.21V151.9H142.95V150.16Z" fill="#FAFAFA"/>
<path d="M142.95 155.99H141.21V157.73H142.95V155.99Z" fill="#FAFAFA"/>
<path d="M142.95 158.9H141.21V160.64H142.95V158.9Z" fill="#FAFAFA"/>
<path d="M142.95 161.82H141.21V163.56H142.95V161.82Z" fill="#FAFAFA"/>
<path d="M142.95 164.74H141.21V166.48H142.95V164.74Z" fill="#FAFAFA"/>
<path d="M142.95 170.57H141.21V172.31H142.95V170.57Z" fill="#FAFAFA"/>
<path d="M127.39 143.15H125.65V144.89H127.39V143.15Z" fill="#FAFAFA"/>
<path d="M127.39 146.06H125.65V147.8H127.39V146.06Z" fill="#FAFAFA"/>
<path d="M127.39 148.98H125.65V150.72H127.39V148.98Z" fill="#FAFAFA"/>
<path d="M127.39 151.9H125.65V153.64H127.39V151.9Z" fill="#FAFAFA"/>
<path d="M127.39 154.81H125.65V156.55H127.39V154.81Z" fill="#FAFAFA"/>
<path d="M127.39 157.73H125.65V159.47H127.39V157.73Z" fill="#FAFAFA"/>
<path d="M127.39 160.64H125.65V162.38H127.39V160.64Z" fill="#FAFAFA"/>
<path d="M127.39 166.48H125.65V168.22H127.39V166.48Z" fill="#FAFAFA"/>
<path d="M127.39 169.39H125.65V171.13H127.39V169.39Z" fill="#FAFAFA"/>
<path d="M127.39 172.31H125.65V174.05H127.39V172.31Z" fill="#FAFAFA"/>
<path d="M127.39 175.22H125.65V176.96H127.39V175.22Z" fill="#FAFAFA"/>
<path d="M127.39 178.14H125.65V179.88H127.39V178.14Z" fill="#FAFAFA"/>
<path d="M127.39 181.06H125.65V182.8H127.39V181.06Z" fill="#FAFAFA"/>
<path d="M127.39 183.97H125.65V185.71H127.39V183.97Z" fill="#FAFAFA"/>
<path d="M127.39 186.89H125.65V188.63H127.39V186.89Z" fill="#FAFAFA"/>
<path d="M130.16 143.15H128.42V144.89H130.16V143.15Z" fill="#FAFAFA"/>
<path d="M130.16 146.06H128.42V147.8H130.16V146.06Z" fill="#FAFAFA"/>
<path d="M130.16 148.98H128.42V150.72H130.16V148.98Z" fill="#FAFAFA"/>
<path d="M130.16 151.9H128.42V153.64H130.16V151.9Z" fill="#FAFAFA"/>
<path d="M130.16 154.81H128.42V156.55H130.16V154.81Z" fill="#FAFAFA"/>
<path d="M130.16 157.73H128.42V159.47H130.16V157.73Z" fill="#FAFAFA"/>
<path d="M130.16 166.48H128.42V168.22H130.16V166.48Z" fill="#FAFAFA"/>
<path d="M130.16 169.39H128.42V171.13H130.16V169.39Z" fill="#FAFAFA"/>
<path d="M130.16 172.31H128.42V174.05H130.16V172.31Z" fill="#FAFAFA"/>
<path d="M130.16 175.22H128.42V176.96H130.16V175.22Z" fill="#FAFAFA"/>
<path d="M130.16 178.14H128.42V179.88H130.16V178.14Z" fill="#FAFAFA"/>
<path d="M130.16 181.06H128.42V182.8H130.16V181.06Z" fill="#FAFAFA"/>
<path d="M130.16 183.97H128.42V185.71H130.16V183.97Z" fill="#FAFAFA"/>
<path d="M130.16 186.89H128.42V188.63H130.16V186.89Z" fill="#FAFAFA"/>
<path d="M132.92 143.15H131.18V144.89H132.92V143.15Z" fill="#FAFAFA"/>
<path d="M132.92 146.06H131.18V147.8H132.92V146.06Z" fill="#FAFAFA"/>
<path d="M132.92 148.98H131.18V150.72H132.92V148.98Z" fill="#FAFAFA"/>
<path d="M132.92 151.9H131.18V153.64H132.92V151.9Z" fill="#FAFAFA"/>
<path d="M132.92 154.81H131.18V156.55H132.92V154.81Z" fill="#FAFAFA"/>
<path d="M132.92 157.73H131.18V159.47H132.92V157.73Z" fill="#FAFAFA"/>
<path d="M132.92 163.56H131.18V165.3H132.92V163.56Z" fill="#FAFAFA"/>
<path d="M132.92 166.48H131.18V168.22H132.92V166.48Z" fill="#FAFAFA"/>
<path d="M132.92 169.39H131.18V171.13H132.92V169.39Z" fill="#FAFAFA"/>
<path d="M132.92 172.31H131.18V174.05H132.92V172.31Z" fill="#FAFAFA"/>
<path d="M132.92 175.22H131.18V176.96H132.92V175.22Z" fill="#FAFAFA"/>
<path d="M132.92 178.14H131.18V179.88H132.92V178.14Z" fill="#FAFAFA"/>
<path d="M132.92 181.06H131.18V182.8H132.92V181.06Z" fill="#FAFAFA"/>
<path d="M132.92 183.97H131.18V185.71H132.92V183.97Z" fill="#FAFAFA"/>
<path d="M132.92 186.89H131.18V188.63H132.92V186.89Z" fill="#FAFAFA"/>
<path d="M191.14 126.83H189.4V128.57H191.14V126.83Z" fill="#FAFAFA"/>
<path d="M191.14 129.74H189.4V131.48H191.14V129.74Z" fill="#FAFAFA"/>
<path d="M191.14 132.66H189.4V134.4H191.14V132.66Z" fill="#FAFAFA"/>
<path d="M191.14 135.58H189.4V137.32H191.14V135.58Z" fill="#FAFAFA"/>
<path d="M191.14 138.49H189.4V140.23H191.14V138.49Z" fill="#FAFAFA"/>
<path d="M191.14 141.41H189.4V143.15H191.14V141.41Z" fill="#FAFAFA"/>
<path d="M191.14 144.32H189.4V146.06H191.14V144.32Z" fill="#FAFAFA"/>
<path d="M191.14 147.24H189.4V148.98H191.14V147.24Z" fill="#FAFAFA"/>
<path d="M191.14 150.16H189.4V151.9H191.14V150.16Z" fill="#FAFAFA"/>
<path d="M191.14 153.07H189.4V154.81H191.14V153.07Z" fill="#FAFAFA"/>
<path d="M191.14 155.99H189.4V157.73H191.14V155.99Z" fill="#FAFAFA"/>
<path d="M191.14 158.9H189.4V160.64H191.14V158.9Z" fill="#FAFAFA"/>
<path d="M191.14 161.82H189.4V163.56H191.14V161.82Z" fill="#FAFAFA"/>
<path d="M191.14 167.65H189.4V169.39H191.14V167.65Z" fill="#FAFAFA"/>
<path d="M191.14 170.57H189.4V172.31H191.14V170.57Z" fill="#FAFAFA"/>
<path d="M191.14 173.48H189.4V175.22H191.14V173.48Z" fill="#FAFAFA"/>
<path d="M191.14 176.4H189.4V178.14H191.14V176.4Z" fill="#FAFAFA"/>
<path d="M191.14 182.23H189.4V183.97H191.14V182.23Z" fill="#FAFAFA"/>
<path d="M191.14 185.15H189.4V186.89H191.14V185.15Z" fill="#FAFAFA"/>
<path d="M191.14 188.06H189.4V189.8H191.14V188.06Z" fill="#FAFAFA"/>
<path d="M193.9 126.83H192.16V128.57H193.9V126.83Z" fill="#FAFAFA"/>
<path d="M193.9 129.74H192.16V131.48H193.9V129.74Z" fill="#FAFAFA"/>
<path d="M193.9 132.66H192.16V134.4H193.9V132.66Z" fill="#FAFAFA"/>
<path d="M193.9 135.58H192.16V137.32H193.9V135.58Z" fill="#FAFAFA"/>
<path d="M193.9 138.49H192.16V140.23H193.9V138.49Z" fill="#FAFAFA"/>
<path d="M193.9 141.41H192.16V143.15H193.9V141.41Z" fill="#FAFAFA"/>
<path d="M193.9 144.32H192.16V146.06H193.9V144.32Z" fill="#FAFAFA"/>
<path d="M193.9 147.24H192.16V148.98H193.9V147.24Z" fill="#FAFAFA"/>
<path d="M193.9 150.16H192.16V151.9H193.9V150.16Z" fill="#FAFAFA"/>
<path d="M193.9 153.07H192.16V154.81H193.9V153.07Z" fill="#FAFAFA"/>
<path d="M193.9 155.99H192.16V157.73H193.9V155.99Z" fill="#FAFAFA"/>
<path d="M193.9 158.9H192.16V160.64H193.9V158.9Z" fill="#FAFAFA"/>
<path d="M193.9 161.82H192.16V163.56H193.9V161.82Z" fill="#FAFAFA"/>
<path d="M193.9 170.57H192.16V172.31H193.9V170.57Z" fill="#FAFAFA"/>
<path d="M193.9 173.48H192.16V175.22H193.9V173.48Z" fill="#FAFAFA"/>
<path d="M193.9 179.32H192.16V181.06H193.9V179.32Z" fill="#FAFAFA"/>
<path d="M193.9 182.23H192.16V183.97H193.9V182.23Z" fill="#FAFAFA"/>
<path d="M193.9 185.15H192.16V186.89H193.9V185.15Z" fill="#FAFAFA"/>
<path d="M193.9 188.06H192.16V189.8H193.9V188.06Z" fill="#FAFAFA"/>
<path d="M196.66 126.83H194.92V128.57H196.66V126.83Z" fill="#FAFAFA"/>
<path d="M196.66 129.74H194.92V131.48H196.66V129.74Z" fill="#FAFAFA"/>
<path d="M196.66 132.66H194.92V134.4H196.66V132.66Z" fill="#FAFAFA"/>
<path d="M196.66 135.58H194.92V137.32H196.66V135.58Z" fill="#FAFAFA"/>
<path d="M196.66 138.49H194.92V140.23H196.66V138.49Z" fill="#FAFAFA"/>
<path d="M196.66 141.41H194.92V143.15H196.66V141.41Z" fill="#FAFAFA"/>
<path d="M196.66 144.32H194.92V146.06H196.66V144.32Z" fill="#FAFAFA"/>
<path d="M196.66 147.24H194.92V148.98H196.66V147.24Z" fill="#FAFAFA"/>
<path d="M196.66 150.16H194.92V151.9H196.66V150.16Z" fill="#FAFAFA"/>
<path d="M196.66 153.07H194.92V154.81H196.66V153.07Z" fill="#FAFAFA"/>
<path d="M196.66 155.99H194.92V157.73H196.66V155.99Z" fill="#FAFAFA"/>
<path d="M196.66 158.9H194.92V160.64H196.66V158.9Z" fill="#FAFAFA"/>
<path d="M196.66 161.82H194.92V163.56H196.66V161.82Z" fill="#FAFAFA"/>
<path d="M196.66 164.74H194.92V166.48H196.66V164.74Z" fill="#FAFAFA"/>
<path d="M196.66 170.57H194.92V172.31H196.66V170.57Z" fill="#FAFAFA"/>
<path d="M196.66 176.4H194.92V178.14H196.66V176.4Z" fill="#FAFAFA"/>
<path d="M196.66 179.32H194.92V181.06H196.66V179.32Z" fill="#FAFAFA"/>
<path d="M196.66 182.23H194.92V183.97H196.66V182.23Z" fill="#FAFAFA"/>
<path d="M196.66 185.15H194.92V186.89H196.66V185.15Z" fill="#FAFAFA"/>
<path d="M196.66 188.06H194.92V189.8H196.66V188.06Z" fill="#FAFAFA"/>
<path d="M179.88 143.45H178.14V145.19H179.88V143.45Z" fill="#FAFAFA"/>
<path d="M179.88 146.37H178.14V148.11H179.88V146.37Z" fill="#FAFAFA"/>
<path d="M179.88 149.29H178.14V151.03H179.88V149.29Z" fill="#FAFAFA"/>
<path d="M179.88 152.2H178.14V153.94H179.88V152.2Z" fill="#FAFAFA"/>
<path d="M179.88 155.12H178.14V156.86H179.88V155.12Z" fill="#FAFAFA"/>
<path d="M179.88 158.03H178.14V159.77H179.88V158.03Z" fill="#FAFAFA"/>
<path d="M179.88 166.78H178.14V168.52H179.88V166.78Z" fill="#FAFAFA"/>
<path d="M179.88 169.7H178.14V171.44H179.88V169.7Z" fill="#FAFAFA"/>
<path d="M179.88 172.61H178.14V174.35H179.88V172.61Z" fill="#FAFAFA"/>
<path d="M179.88 175.53H178.14V177.27H179.88V175.53Z" fill="#FAFAFA"/>
<path d="M179.88 178.45H178.14V180.19H179.88V178.45Z" fill="#FAFAFA"/>
<path d="M179.88 181.36H178.14V183.1H179.88V181.36Z" fill="#FAFAFA"/>
<path d="M179.88 184.28H178.14V186.02H179.88V184.28Z" fill="#FAFAFA"/>
<path d="M182.65 143.45H180.91V145.19H182.65V143.45Z" fill="#FAFAFA"/>
<path d="M182.65 146.37H180.91V148.11H182.65V146.37Z" fill="#FAFAFA"/>
<path d="M182.65 149.29H180.91V151.03H182.65V149.29Z" fill="#FAFAFA"/>
<path d="M182.65 152.2H180.91V153.94H182.65V152.2Z" fill="#FAFAFA"/>
<path d="M182.65 155.12H180.91V156.86H182.65V155.12Z" fill="#FAFAFA"/>
<path d="M182.65 158.03H180.91V159.77H182.65V158.03Z" fill="#FAFAFA"/>
<path d="M182.65 166.78H180.91V168.52H182.65V166.78Z" fill="#FAFAFA"/>
<path d="M182.65 169.7H180.91V171.44H182.65V169.7Z" fill="#FAFAFA"/>
<path d="M182.65 172.61H180.91V174.35H182.65V172.61Z" fill="#FAFAFA"/>
<path d="M182.65 175.53H180.91V177.27H182.65V175.53Z" fill="#FAFAFA"/>
<path d="M182.65 178.45H180.91V180.19H182.65V178.45Z" fill="#FAFAFA"/>
<path d="M182.65 181.36H180.91V183.1H182.65V181.36Z" fill="#FAFAFA"/>
<path d="M182.65 187.2H180.91V188.94H182.65V187.2Z" fill="#FAFAFA"/>
<path d="M248.85 48.1001H245.4V237.59H248.85V48.1001Z" fill="#EBEBEB"/>
<path d="M193.4 48.1001H190.48V237.59H193.4V48.1001Z" fill="#EBEBEB"/>
<path d="M138.48 48.1001H135.56V237.59H138.48V48.1001Z" fill="#EBEBEB"/>
<path d="M344.9 55.5998C352.726 55.5998 359.07 49.2556 359.07 41.4298C359.07 33.6039 352.726 27.2598 344.9 27.2598C337.074 27.2598 330.73 33.6039 330.73 41.4298C330.73 49.2556 337.074 55.5998 344.9 55.5998Z" fill="#E0E0E0"/>
<path d="M356.94 41.4302C356.94 43.8036 356.236 46.1236 354.918 48.097C353.599 50.0704 351.725 51.6085 349.532 52.5167C347.339 53.425 344.927 53.6626 342.599 53.1996C340.271 52.7366 338.133 51.5937 336.455 49.9155C334.776 48.2372 333.634 46.099 333.171 43.7713C332.707 41.4435 332.945 39.0307 333.853 36.838C334.762 34.6453 336.3 32.7711 338.273 31.4525C340.247 30.134 342.567 29.4302 344.94 29.4302C348.123 29.4302 351.175 30.6945 353.425 32.9449C355.676 35.1953 356.94 38.2476 356.94 41.4302Z" fill="#F0F0F0"/>
<path d="M344.33 33.1699V41.5899L338.75 38.4299" fill="#F0F0F0"/>
<path d="M344.33 42.5899C344.158 42.5894 343.989 42.5446 343.84 42.4599L338.26 39.2999C338.029 39.1673 337.86 38.9485 337.791 38.6916C337.722 38.4346 337.757 38.1607 337.89 37.9299C338.022 37.6992 338.241 37.5306 338.498 37.4612C338.755 37.3918 339.029 37.4273 339.26 37.5599L343.35 39.8799V33.1699C343.35 32.9047 343.455 32.6504 343.643 32.4628C343.83 32.2753 344.085 32.1699 344.35 32.1699C344.615 32.1699 344.869 32.2753 345.057 32.4628C345.244 32.6504 345.35 32.9047 345.35 33.1699V41.5899C345.35 41.7661 345.305 41.9394 345.217 42.0922C345.129 42.245 345.002 42.3718 344.85 42.4599C344.692 42.5498 344.512 42.5947 344.33 42.5899Z" fill="#E0E0E0"/>
<path d="M415.62 64.2998H352.98V146.98H415.62V64.2998Z" fill="#F5F5F5"/>
<path d="M374.29 73.1001V109.45L388.77 108.63L390.43 73.1001H374.29Z" fill="#EBEBEB"/>
<path d="M386.01 80.1299H408.29L408.1 111.95L396.56 112.13L386.01 80.1299Z" fill="#E0E0E0"/>
<path d="M364.32 75.4399H370.18L368.13 103.83L360.8 105.65L364.32 75.4399Z" fill="#E6E6E6"/>
<path d="M281.36 157.07H343.8V81.0898L281.36 81.0898V157.07Z" fill="#E6E6E6"/>
<path d="M295.65 138.25L328.46 106L292.96 100.14L295.65 138.25Z" fill="#E0E0E0"/>
<path d="M327.67 130.6L329.29 105.87L304.59 111.94L302.79 130.86L327.67 130.6Z" fill="#F0F0F0"/>
<path d="M302.396 102.848C306.289 98.9542 306.289 92.6415 302.396 88.748C298.502 84.8545 292.189 84.8545 288.296 88.748C284.402 92.6415 284.402 98.9542 288.296 102.848C292.189 106.741 298.502 106.741 302.396 102.848Z" fill="#FAFAFA"/>
<path d="M324.44 139.42C324.44 138.463 324.724 137.527 325.256 136.731C325.787 135.935 326.543 135.315 327.428 134.949C328.312 134.582 329.285 134.486 330.224 134.673C331.163 134.86 332.025 135.321 332.702 135.998C333.379 136.675 333.84 137.537 334.027 138.476C334.214 139.415 334.118 140.388 333.752 141.272C333.385 142.157 332.765 142.913 331.969 143.444C331.173 143.976 330.237 144.26 329.28 144.26C327.996 144.26 326.765 143.75 325.858 142.842C324.95 141.935 324.44 140.704 324.44 139.42Z" fill="#E0E0E0"/>
<path d="M328.13 147.92L314.16 139.42L325.9 129.75L328.13 147.92Z" fill="#F5F5F5"/>
<path d="M311.64 90.75H308.89V151.42H311.64V90.75Z" fill="#E0E0E0"/>
<path d="M337.94 90.75H334.39V148.74H337.94V90.75Z" fill="#EBEBEB"/>
<path d="M305.78 130.86H287.63V149.01H305.78V130.86Z" fill="#EBEBEB"/>
<path d="M411.39 258.38H345.77V318.01H411.39V258.38Z" fill="#E6E6E6"/>
<path d="M421.42 253.13H413.17V327.18H421.42V253.13Z" fill="#E6E6E6"/>
<path d="M361.6 263.94H356.22V285.33H361.6V263.94Z" fill="#FAFAFA"/>
<path d="M383.89 263.94H378.51V285.33H383.89V263.94Z" fill="#F5F5F5"/>
<path d="M366.97 265.8H361.59V285.34H366.97V265.8Z" fill="#F5F5F5"/>
<path d="M378.51 265.8H373.13V285.34H378.51V265.8Z" fill="#FAFAFA"/>
<path d="M373.13 263.94H369.66V285.33H373.13V263.94Z" fill="#EBEBEB"/>
<path d="M369.66 265.8H366.97V285.34H369.66V265.8Z" fill="#FAFAFA"/>
<path d="M389.27 263.94H383.89V285.33H389.27V263.94Z" fill="#EBEBEB"/>
<path d="M394.65 265.8H389.27V285.34H394.65V265.8Z" fill="#E6E6E6"/>
<path d="M406.19 265.8H400.81V285.34H406.19V265.8Z" fill="#E6E6E6"/>
<path d="M400.8 263.94H397.33V285.33H400.8V263.94Z" fill="#FAFAFA"/>
<path d="M397.33 265.8H394.64V285.34H397.33V265.8Z" fill="#EBEBEB"/>
<path d="M408.87 264.57H406.18V285.34H408.87V264.57Z" fill="#FAFAFA"/>
<path d="M403.5 314.7H408.88V294.31H403.5V314.7Z" fill="#FAFAFA"/>
<path d="M381.2 314.7H386.58V294.31H381.2V314.7Z" fill="#FAFAFA"/>
<path d="M398.11 314.71H403.49V296.17H398.11V314.71Z" fill="#F0F0F0"/>
<path d="M386.57 314.71H391.95V296.17H386.57V314.71Z" fill="#EBEBEB"/>
<path d="M391.96 314.7H395.43V294.31H391.96V314.7Z" fill="#FAFAFA"/>
<path d="M395.43 314.71H398.12V296.17H395.43V314.71Z" fill="#F5F5F5"/>
<path d="M375.82 314.7H381.2V294.31H375.82V314.7Z" fill="#EBEBEB"/>
<path d="M370.44 314.71H375.82V296.17H370.44V314.71Z" fill="#F5F5F5"/>
<path d="M358.9 314.71H364.28V296.17H358.9V314.71Z" fill="#E6E6E6"/>
<path d="M364.29 314.7H367.76V294.31H364.29V314.7Z" fill="#FAFAFA"/>
<path d="M352.75 314.7H356.22V294.31H352.75V314.7Z" fill="#FAFAFA"/>
<path d="M367.75 314.71H370.44V296.17H367.75V314.71Z" fill="#EBEBEB"/>
<path d="M356.21 314.71H358.9V294.94H356.21V314.71Z" fill="#F0F0F0"/>
<path d="M411.06 253.13H343.69V322.41H408.86V327.17H413.26V253.17L411.06 253.13ZM408.86 314.71H347.86V289.76H408.86V314.71ZM408.86 285.36H347.86V260.82H408.86V285.36Z" fill="#F0F0F0"/>
<path d="M280.05 318.01H345.67V258.38H280.05V318.01Z" fill="#E6E6E6"/>
<path d="M282.57 327.17H290.82V321.54H282.57V327.17Z" fill="#E6E6E6"/>
<path d="M338.07 285.33H343.45V263.94H338.07V285.33Z" fill="#FAFAFA"/>
<path d="M315.78 285.33H321.16V263.94H315.78V285.33Z" fill="#F5F5F5"/>
<path d="M332.7 285.33H338.08V265.79H332.7V285.33Z" fill="#F5F5F5"/>
<path d="M321.16 285.33H326.54V265.79H321.16V285.33Z" fill="#FAFAFA"/>
<path d="M326.54 285.33H330.01V263.94H326.54V285.33Z" fill="#EBEBEB"/>
<path d="M330.01 285.33H332.7V265.79H330.01V285.33Z" fill="#FAFAFA"/>
<path d="M313.95 285.33H319.33V263.94H313.95V285.33Z" fill="#EBEBEB"/>
<path d="M308.57 285.33H313.95V265.79H308.57V285.33Z" fill="#E6E6E6"/>
<path d="M297.03 285.33H302.41V265.79H297.03V285.33Z" fill="#E6E6E6"/>
<path d="M302.42 285.33H305.89V263.94H302.42V285.33Z" fill="#FAFAFA"/>
<path d="M305.88 285.33H308.57V265.79H305.88V285.33Z" fill="#EBEBEB"/>
<path d="M294.35 285.33H297.04V264.56H294.35V285.33Z" fill="#F5F5F5"/>
<path d="M297.2 294.32H291.82V314.71H297.2V294.32Z" fill="#FAFAFA"/>
<path d="M319.49 294.32H314.11V314.71H319.49V294.32Z" fill="#FAFAFA"/>
<path d="M302.58 296.17H297.2V314.71H302.58V296.17Z" fill="#F5F5F5"/>
<path d="M314.12 296.17H308.74V314.71H314.12V296.17Z" fill="#EBEBEB"/>
<path d="M308.73 294.32H305.26V314.71H308.73V294.32Z" fill="#FAFAFA"/>
<path d="M305.26 296.17H302.57V314.71H305.26V296.17Z" fill="#F5F5F5"/>
<path d="M321.33 294.32H315.95V314.71H321.33V294.32Z" fill="#EBEBEB"/>
<path d="M326.7 296.17H321.32V314.71H326.7V296.17Z" fill="#F5F5F5"/>
<path d="M338.24 296.17H332.86V314.71H338.24V296.17Z" fill="#E6E6E6"/>
<path d="M332.86 294.32H329.39V314.71H332.86V294.32Z" fill="#FAFAFA"/>
<path d="M343.69 294.32H340.22V314.71H343.69V294.32Z" fill="#FAFAFA"/>
<path d="M329.39 296.17H326.7V314.71H329.39V296.17Z" fill="#EBEBEB"/>
<path d="M340.93 294.94H338.24V314.71H340.93V294.94Z" fill="#EBEBEB"/>
<path d="M278.17 253.13V327.13H282.57V322.37H347.74V253.13H278.17ZM282.57 289.76H343.57V314.71H282.57V289.76ZM282.57 260.82H343.57V285.36H282.57V260.82Z" fill="#F0F0F0"/>
<path d="M250 372.56C357.082 372.56 443.89 367.492 443.89 361.24C443.89 354.988 357.082 349.92 250 349.92C142.917 349.92 56.1099 354.988 56.1099 361.24C56.1099 367.492 142.917 372.56 250 372.56Z" fill="#F5F5F5"/>
<path d="M382.05 317.62C382.05 317.62 374.29 308.4 369.33 312.7C364.37 317 366.88 326.13 372.6 326.43C375.993 326.613 379.341 325.589 382.05 323.54V317.62Z" fill="#F97B23"/>
<path opacity="0.2" d="M382.05 317.62C382.05 317.62 374.29 308.4 369.33 312.7C364.37 317 366.88 326.13 372.6 326.43C375.993 326.613 379.341 325.589 382.05 323.54V317.62Z" fill="white"/>
<path d="M413.681 294.22C413.681 294.22 420.191 287.4 424.221 288.56C428.251 289.72 427.841 306.01 415.331 299.41L413.681 294.22Z" fill="#F97B23"/>
<path opacity="0.3" d="M413.681 294.22C413.681 294.22 420.191 287.4 424.221 288.56C428.251 289.72 427.841 306.01 415.331 299.41L413.681 294.22Z" fill="white"/>
<path d="M390.42 345.11C390.42 345.11 369.02 315.84 386.42 309.91C403.82 303.98 406.89 333.46 401.93 341.67C396.97 349.88 390.42 345.11 390.42 345.11Z" fill="#F97B23"/>
<path d="M400.34 285.18C400.34 285.18 413.62 254.36 393.96 253.43C374.3 252.5 372.15 283.99 394.78 288.56L400.34 285.18Z" fill="#F97B23"/>
<path opacity="0.3" d="M390.42 345.11C390.42 345.11 369.02 315.84 386.42 309.91C403.82 303.98 406.89 333.46 401.93 341.67C396.97 349.88 390.42 345.11 390.42 345.11Z" fill="white"/>
<path opacity="0.3" d="M400.34 285.18C400.34 285.18 413.62 254.36 393.96 253.43C374.3 252.5 372.15 283.99 394.78 288.56L400.34 285.18Z" fill="white"/>
<path d="M395.63 310.41C395.63 310.41 389.18 283.2 401.63 281.03C414.08 278.86 426.28 303.45 400.63 315.81C400.57 315.81 396.17 313.08 395.63 310.41Z" fill="#F97B23"/>
<path opacity="0.2" d="M395.63 310.41C395.63 310.41 389.18 283.2 401.63 281.03C414.08 278.86 426.28 303.45 400.63 315.81C400.57 315.81 396.17 313.08 395.63 310.41Z" fill="white"/>
<path d="M375.02 340.96H410.94L407.94 363.95H378.02L375.02 340.96Z" fill="#263238"/>
<path d="M393.7 283C386.3 277.59 381.17 267.13 385.54 258.32C385.36 259.14 385.14 260.03 384.94 260.85C383.48 269.2 388.06 277.17 393.7 283Z" fill="#F97B23"/>
<path d="M389 256.53C397.53 258.26 401.3 267.31 400.31 275.28C400.12 276.41 399.96 277.52 399.73 278.63C399.842 276.397 399.818 274.16 399.66 271.93C399.13 265.36 395.51 258.93 389 256.53Z" fill="#F97B23"/>
<path d="M404 283C408.79 284.69 411.79 289.95 411.8 294.93C411.8 299.27 409.4 303.21 406.72 306.45C404.767 308.803 402.534 310.908 400.07 312.72C402.246 310.633 404.252 308.376 406.07 305.97C408.3 302.97 410.26 299.72 410.75 296.02C411.17 290.88 408.66 285.4 403.95 283.02L404 283Z" fill="#F97B23"/>
<path d="M400.34 285.18C401.62 289.18 402.76 293.93 400.68 297.85C398.94 300.39 398.76 303.71 398.68 306.74C398.68 307.8 398.68 308.85 398.75 309.91C398.239 307.833 398.007 305.698 398.06 303.56C398.026 301.357 398.627 299.191 399.79 297.32C401.71 293.66 400.79 289.13 400.3 285.18H400.34Z" fill="#F97B23"/>
<path d="M391.62 312.7C396.62 315.27 398.62 332.53 398.43 337.96C398.28 336.86 398.11 335.77 397.9 334.68C396.95 329.24 395.96 323.78 394.52 318.45C393.85 316.45 393.42 313.99 391.62 312.7Z" fill="#F97B23"/>
<path d="M385.54 313.65C384.336 317.568 384.152 321.729 385.006 325.739C385.86 329.748 387.723 333.473 390.42 336.56C389.627 335.88 388.875 335.152 388.17 334.38C385.754 331.56 384.217 328.093 383.75 324.409C383.282 320.725 383.905 316.984 385.54 313.65Z" fill="#F97B23"/>
<path d="M418.73 297.54C421.01 296.93 422.95 296.38 424.61 294.7C424.2 297.25 420.96 298.45 418.73 297.54Z" fill="#F97B23"/>
<path d="M417.4 293.05C418.47 290.87 422.13 289.51 423.68 291.88C421.49 290.93 419.36 292.12 417.4 293.05Z" fill="#F97B23"/>
<path d="M378.51 319C376.01 317.24 373.42 314.24 370.19 315.81C372.82 312.69 377.24 316.18 378.51 319Z" fill="#F97B23"/>
<path d="M378.51 323.54C375.24 324.74 368.71 324.83 368.31 320.26C370.18 323.99 374.95 323.17 378.51 323.54Z" fill="#F97B23"/>
<path d="M181.28 93.2599H152.55C150.203 93.2599 147.952 94.1923 146.292 95.852C144.633 97.5117 143.7 99.7627 143.7 102.11V127.11C143.7 129.457 144.633 131.708 146.292 133.368C147.952 135.027 150.203 135.96 152.55 135.96H160.93L153.93 149.85L166.93 135.96H181.32C182.482 135.96 183.632 135.731 184.705 135.286C185.779 134.841 186.754 134.189 187.575 133.367C188.396 132.545 189.047 131.57 189.49 130.496C189.934 129.422 190.162 128.272 190.16 127.11V102.11C190.162 100.945 189.933 99.7909 189.486 98.7146C189.04 97.6383 188.386 96.6608 187.56 95.8384C186.735 95.0159 185.756 94.3647 184.678 93.9222C183.6 93.4797 182.445 93.2546 181.28 93.2599Z" fill="#F97B23"/>
<path opacity="0.7" d="M181.28 93.2599H152.55C150.203 93.2599 147.952 94.1923 146.292 95.852C144.633 97.5117 143.7 99.7627 143.7 102.11V127.11C143.7 129.457 144.633 131.708 146.292 133.368C147.952 135.027 150.203 135.96 152.55 135.96H160.93L153.93 149.85L166.93 135.96H181.32C182.482 135.96 183.632 135.731 184.705 135.286C185.779 134.841 186.754 134.189 187.575 133.367C188.396 132.545 189.047 131.57 189.49 130.496C189.934 129.422 190.162 128.272 190.16 127.11V102.11C190.162 100.945 189.933 99.7909 189.486 98.7146C189.04 97.6383 188.386 96.6608 187.56 95.8384C186.735 95.0159 185.756 94.3647 184.678 93.9222C183.6 93.4797 182.445 93.2546 181.28 93.2599Z" fill="white"/>
<path d="M165.42 120.87C165.23 120.87 165.042 120.829 164.87 120.75C164.697 120.671 164.544 120.555 164.42 120.41L158.82 113.82C158.709 113.689 158.624 113.537 158.571 113.373C158.518 113.208 158.498 113.036 158.512 112.864C158.526 112.692 158.574 112.525 158.652 112.371C158.731 112.218 158.839 112.082 158.97 111.97C159.235 111.744 159.579 111.634 159.926 111.662C160.098 111.676 160.265 111.723 160.419 111.802C160.572 111.881 160.709 111.989 160.82 112.12L165.42 117.54L173 108.59C173.112 108.459 173.248 108.351 173.402 108.272C173.555 108.193 173.722 108.146 173.894 108.132C174.066 108.118 174.239 108.138 174.403 108.191C174.567 108.244 174.719 108.328 174.85 108.44C174.982 108.552 175.09 108.688 175.168 108.841C175.247 108.995 175.294 109.162 175.308 109.334C175.322 109.506 175.302 109.678 175.249 109.843C175.197 110.007 175.112 110.159 175 110.29L166.41 120.41C166.289 120.554 166.137 120.67 165.966 120.75C165.795 120.829 165.609 120.87 165.42 120.87Z" fill="white"/>
<path d="M176.991 124.585C182.56 119.016 182.56 109.987 176.991 104.418C171.422 98.8492 162.393 98.8492 156.825 104.418C151.256 109.987 151.256 119.016 156.825 124.585C162.393 130.154 171.422 130.154 176.991 124.585Z" fill="#F97B23"/>
<path d="M205 362.12H263.2C263.505 362.12 263.798 361.999 264.013 361.783C264.229 361.567 264.35 361.275 264.35 360.97V357.26C264.347 356.957 264.225 356.667 264.01 356.453C263.794 356.24 263.503 356.12 263.2 356.12H208V237.3H262.26C262.813 237.3 263.343 237.081 263.734 236.691C264.126 236.301 264.347 235.772 264.35 235.22V231.3H205C204.204 231.3 203.441 231.616 202.879 232.178C202.316 232.741 202 233.504 202 234.3V359.12C202 359.915 202.316 360.679 202.879 361.241C203.441 361.804 204.204 362.12 205 362.12Z" fill="#263238"/>
<g opacity="0.3">
<path d="M202 234.3V359.11C202 359.905 202.316 360.669 202.879 361.231C203.441 361.794 204.204 362.11 205 362.11H263.2C263.502 362.11 263.792 361.99 264.006 361.776C264.22 361.562 264.34 361.272 264.34 360.97V357.26C264.34 356.957 264.22 356.666 264.007 356.45C263.793 356.235 263.503 356.112 263.2 356.11H208V237.3H262.26C262.813 237.297 263.342 237.076 263.731 236.684C264.121 236.292 264.34 235.762 264.34 235.21V231.3H205C204.204 231.3 203.441 231.616 202.879 232.178C202.316 232.741 202 233.504 202 234.3Z" fill="white"/>
</g>
<path opacity="0.2" d="M202 234.3V266.13C204 266.636 206 267.126 208 267.6V237.3H262.26C262.813 237.297 263.342 237.076 263.731 236.684C264.121 236.292 264.34 235.762 264.34 235.21V231.3H205C204.204 231.3 203.441 231.616 202.879 232.178C202.316 232.741 202 233.504 202 234.3Z" fill="black"/>
<path d="M96.75 345.37L120.61 343.29V312H129V343.33L153 345.37C154.019 345.469 154.964 345.944 155.651 346.702C156.339 347.46 156.72 348.447 156.72 349.47V352.65H93V349.47C93.0008 348.442 93.386 347.451 94.0798 346.693C94.7737 345.934 95.7261 345.462 96.75 345.37Z" fill="#263238"/>
<path opacity="0.1" d="M96.75 345.37L120.61 343.29V312H129V343.33L153 345.37C154.019 345.469 154.964 345.944 155.651 346.702C156.339 347.46 156.72 348.447 156.72 349.47V352.65H93V349.47C93.0008 348.442 93.386 347.451 94.0798 346.693C94.7737 345.934 95.7261 345.462 96.75 345.37Z" fill="white"/>
<path d="M148.94 356.6C148.94 357.686 149.262 358.747 149.865 359.65C150.468 360.553 151.326 361.256 152.329 361.672C153.332 362.088 154.436 362.196 155.501 361.984C156.566 361.773 157.544 361.25 158.312 360.482C159.08 359.714 159.603 358.736 159.814 357.671C160.026 356.606 159.918 355.502 159.502 354.499C159.087 353.496 158.383 352.638 157.48 352.035C156.577 351.432 155.516 351.11 154.43 351.11C153.709 351.109 152.994 351.25 152.327 351.525C151.661 351.801 151.055 352.205 150.545 352.715C150.035 353.225 149.631 353.831 149.355 354.497C149.08 355.164 148.939 355.879 148.94 356.6Z" fill="#263238"/>
<path d="M100.75 356.6C100.75 357.686 100.428 358.748 99.8241 359.651C99.2204 360.554 98.3624 361.258 97.3586 361.673C96.3549 362.088 95.2505 362.196 94.1853 361.984C93.1201 361.771 92.1419 361.247 91.3745 360.478C90.6071 359.71 90.085 358.73 89.8743 357.665C89.6636 356.599 89.7737 355.495 90.1908 354.492C90.6079 353.489 91.3131 352.632 92.2172 352.03C93.1214 351.428 94.1838 351.108 95.27 351.11C95.9905 351.11 96.7039 351.252 97.3694 351.528C98.035 351.804 98.6395 352.209 99.1485 352.718C99.6575 353.228 100.061 353.834 100.336 354.5C100.611 355.166 100.751 355.879 100.75 356.6Z" fill="#263238"/>
<path d="M126.73 318.35H122.88C121.896 318.35 120.952 317.959 120.257 317.263C119.561 316.568 119.17 315.624 119.17 314.64V287.64H130.44V314.64C130.44 315.624 130.049 316.568 129.353 317.263C128.658 317.959 127.714 318.35 126.73 318.35Z" fill="#263238"/>
<path opacity="0.2" d="M126.73 318.35H122.88C121.896 318.35 120.952 317.959 120.257 317.263C119.561 316.568 119.17 315.624 119.17 314.64V287.64H130.44V314.64C130.44 315.624 130.049 316.568 129.353 317.263C128.658 317.959 127.714 318.35 126.73 318.35Z" fill="white"/>
<path d="M100.06 225.66C100.06 225.66 102.64 277.49 113.8 286.41H101.86C101.86 286.41 91.2202 268.75 90.4302 225.66H100.06Z" fill="#263238"/>
<path opacity="0.1" d="M100.06 225.66C100.06 225.66 102.64 277.49 113.8 286.41H101.86C101.86 286.41 91.2202 268.75 90.4302 225.66H100.06Z" fill="white"/>
<path d="M99.0898 282.11H152C153.191 282.11 154.333 282.583 155.175 283.425C156.017 284.267 156.49 285.409 156.49 286.6V290.7H94.5898V286.6C94.5898 286.009 94.7063 285.425 94.9326 284.879C95.1588 284.334 95.4905 283.838 95.9085 283.421C96.3265 283.004 96.8226 282.674 97.3685 282.449C97.9144 282.224 98.4994 282.109 99.0898 282.11Z" fill="#F97B23"/>
<path d="M157.05 286.41H94.0502C93.0506 286.41 92.2402 287.221 92.2402 288.22V288.89C92.2402 289.89 93.0506 290.7 94.0502 290.7H157.05C158.05 290.7 158.86 289.89 158.86 288.89V288.22C158.86 287.221 158.05 286.41 157.05 286.41Z" fill="#263238"/>
<path opacity="0.6" d="M157.05 286.41H94.0502C93.0506 286.41 92.2402 287.221 92.2402 288.22V288.89C92.2402 289.89 93.0506 290.7 94.0502 290.7H157.05C158.05 290.7 158.86 289.89 158.86 288.89V288.22C158.86 287.221 158.05 286.41 157.05 286.41Z" fill="white"/>
<path d="M88.3301 237H107.46C113.06 237 117.1 232 116.46 225.75L115.65 217.47C115.03 211.26 110 206.22 104.4 206.22H85.3001C79.7001 206.22 75.6601 211.22 76.3001 217.47L77.1101 225.75C77.6901 232 82.7301 237 88.3301 237Z" fill="#F97B23"/>
<path d="M151.46 192.29C152.65 196.06 154.05 199.99 155.59 203.59C156.89 206.59 158.74 210.41 160.85 212.42C162.77 214.13 167.34 214.78 170.31 215.17C174.31 215.68 178.57 215.87 182.72 216.04L183.46 221.64C179.06 222.821 174.549 223.535 170 223.77C164.92 223.95 159 223.77 154.6 220.65C148.21 215.65 145.43 208.99 142.6 201.96C141.8 199.73 141.08 197.69 140.47 195.35L151.47 192.29H151.46Z" fill="#B65B52"/>
<path d="M146.55 187C149.7 188.08 152.55 192.61 160.48 210.78C160.48 210.78 161.77 213 168.2 214.39L167.61 224.59C167.61 224.59 158.43 224.19 156.3 222.72C154.17 221.25 141.4 200.24 141.4 200.24L146.55 187Z" fill="#263238"/>
<path opacity="0.2" d="M168.2 214.41L167.61 224.61C167.61 224.61 160.25 224.29 157.18 223.16C156.87 223.056 156.575 222.915 156.3 222.74C155.07 221.88 150.3 214.49 146.45 208.41C143.66 203.99 141.45 200.26 141.45 200.26L146.55 187C149.7 188.08 152.55 192.61 160.49 210.77C160.49 210.79 161.77 213 168.2 214.41Z" fill="white"/>
<path opacity="0.2" d="M157.18 223.16C156.87 223.056 156.575 222.915 156.3 222.74C155.07 221.88 150.3 214.49 146.45 208.41C147.452 204.963 148.637 201.571 150 198.25C150 198.25 157.32 212.92 157.18 223.16Z" fill="black"/>
<path d="M180.54 216.55L187.71 213.97L186.83 223.57C186.83 223.57 180.25 224.41 179.44 220.95L180.54 216.55Z" fill="#B55B52"/>
<path d="M193.65 215.91L192.55 223.82L186.83 223.57L187.71 213.97L193.65 215.91Z" fill="#B55B52"/>
<path d="M168.25 213.97L171.91 215.07L170.57 224.99L166.91 225.62L168.25 213.97Z" fill="#263238"/>
<path d="M151.74 250.09C151.74 250.09 200.13 269.18 211.38 277.16C222.63 285.14 251 338.94 251 338.94L239.27 347.94C239.27 347.94 205.43 298.8 201.27 295.47C197.11 292.14 143.27 275.61 143.27 275.61L151.74 250.09Z" fill="#F97B23"/>
<path opacity="0.4" d="M251 338.94L239.27 347.94C239.27 347.94 231.37 336.47 222.74 324.24C213.51 311.15 203.44 297.24 201.3 295.47C198.3 293.03 168.65 283.53 152.94 278.61C147.16 276.79 143.27 275.61 143.27 275.61L151.73 250.06C151.73 250.06 200.11 269.15 211.37 277.13C222.63 285.11 251 338.94 251 338.94Z" fill="white"/>
<path d="M253.15 358.19L258.8 352.51L249.56 338.22L243.92 343.9L253.15 358.19Z" fill="#B55B52"/>
<path opacity="0.2" d="M243.92 343.9L249.56 338.23L254.84 346.4L249 351.78L243.92 343.9Z" fill="black"/>
<path d="M259.78 351.89C259.78 351.89 259.78 351.89 259.85 351.89C260.515 351.646 261.152 351.33 261.75 350.95C262.216 350.701 262.572 350.287 262.75 349.79C262.787 349.603 262.77 349.41 262.7 349.233C262.631 349.056 262.513 348.902 262.36 348.79C262.277 348.704 262.175 348.641 262.061 348.606C261.947 348.571 261.826 348.565 261.71 348.59C261.16 348.72 260.62 349.5 260.21 350.25C260.296 349.55 260.134 348.842 259.75 348.25C259.638 348.137 259.491 348.065 259.333 348.047C259.174 348.029 259.015 348.065 258.88 348.15C258.754 348.209 258.645 348.297 258.559 348.406C258.474 348.516 258.416 348.644 258.39 348.78C258.16 349.86 259.61 351.6 259.68 351.7L259.78 351.6L259.69 351.71C259.69 351.71 259.62 351.82 259.62 351.83C259.635 351.858 259.659 351.879 259.689 351.89C259.718 351.901 259.751 351.901 259.78 351.89ZM259.83 351.15C259.83 351.21 259.78 351.27 259.76 351.32C259.32 350.7 258.67 349.61 258.81 348.97C258.822 348.895 258.849 348.823 258.89 348.759C258.932 348.696 258.986 348.641 259.05 348.6H259.12C259.36 348.48 259.49 348.55 259.57 348.6C259.953 349.393 260.045 350.296 259.83 351.15ZM260.17 351.39C260.61 350.39 261.34 349.09 261.89 348.97C261.947 348.955 262.008 348.957 262.064 348.975C262.121 348.992 262.171 349.025 262.21 349.07C262.303 349.142 262.376 349.237 262.422 349.346C262.468 349.454 262.484 349.573 262.47 349.69C262.36 350.21 261.51 350.83 260.17 351.39Z" fill="#F97B23"/>
<path d="M258.69 351.38L251.23 356.38C251.165 356.418 251.109 356.469 251.064 356.529C251.02 356.589 250.988 356.657 250.97 356.73C250.952 356.803 250.949 356.878 250.961 356.952C250.973 357.026 251 357.097 251.04 357.16L254.64 363.31C254.846 363.621 255.167 363.838 255.532 363.913C255.898 363.988 256.278 363.915 256.59 363.71C259.16 361.92 260.3 360.94 263.59 358.71C266.585 356.868 269.449 354.82 272.16 352.58C274.62 350.29 272.29 347.92 271.05 348.67C268.05 350.44 262.97 351.2 260.11 350.99C259.605 350.951 259.103 351.089 258.69 351.38Z" fill="#263238"/>
<path d="M239.82 351.91L254.47 342.16L251.09 335.27L235.22 346.28L239.82 351.91Z" fill="#F97B23"/>
<path opacity="0.2" d="M239.82 351.91L254.47 342.16L251.09 335.27L235.22 346.28L239.82 351.91Z" fill="white"/>
<path opacity="0.2" d="M222.76 324.28C213.53 311.19 203.46 297.28 201.32 295.51C198.32 293.07 168.67 283.57 152.96 278.65L151.13 259.65L156.87 258.65L157.52 260.11C157.52 260.11 193.38 268.24 203.52 273.32C210.05 276.53 218.82 308.61 222.76 324.28Z" fill="black"/>
<path d="M220.61 353.79C220.621 353.795 220.633 353.797 220.645 353.797C220.657 353.797 220.669 353.795 220.68 353.79C221.39 353.782 222.097 353.698 222.79 353.54C223.319 353.465 223.801 353.194 224.14 352.78C224.239 352.621 224.292 352.437 224.292 352.25C224.292 352.062 224.239 351.879 224.14 351.72C224.09 351.611 224.014 351.516 223.917 351.444C223.821 351.372 223.709 351.326 223.59 351.31C223.03 351.24 222.26 351.81 221.59 352.38C221.896 351.76 221.97 351.05 221.8 350.38C221.733 350.236 221.62 350.119 221.478 350.049C221.336 349.978 221.175 349.957 221.02 349.99C220.883 350.01 220.752 350.059 220.635 350.133C220.517 350.207 220.417 350.305 220.34 350.42C219.77 351.37 220.56 353.49 220.6 353.61L220.72 353.54L220.6 353.62C220.6 353.62 220.49 353.7 220.5 353.71L220.61 353.79ZM220.91 353.1L220.78 353.24C220.469 352.428 220.427 351.538 220.66 350.7C220.697 350.635 220.748 350.578 220.808 350.534C220.868 350.489 220.937 350.457 221.01 350.44H221.1C221.36 350.44 221.46 350.52 221.5 350.62C221.6 351.49 221.392 352.368 220.91 353.1ZM221.14 353.44C221.89 352.64 223.01 351.66 223.57 351.73C223.628 351.736 223.685 351.758 223.732 351.793C223.78 351.828 223.817 351.875 223.84 351.93C223.896 352.033 223.925 352.148 223.925 352.265C223.925 352.382 223.896 352.497 223.84 352.6C223.6 353.05 222.6 353.36 221.14 353.44Z" fill="#F97B23"/>
<path d="M212.27 357.53L219.48 354.04L215.19 336.86L207.99 340.35L212.27 357.53Z" fill="#B55B52"/>
<path opacity="0.2" d="M207.99 340.35L215.19 336.87L217.64 346.69L210.34 349.82L207.99 340.35Z" fill="black"/>
<path d="M219.75 352.94L211.05 355.19C210.976 355.204 210.907 355.233 210.845 355.274C210.783 355.316 210.73 355.37 210.689 355.432C210.648 355.495 210.619 355.565 210.606 355.638C210.592 355.711 210.594 355.787 210.61 355.86L211.97 362.86C212.068 363.216 212.302 363.52 212.622 363.707C212.941 363.894 213.321 363.949 213.68 363.86C216.68 363.02 218.1 362.47 221.92 361.45C225.344 360.719 228.713 359.746 232 358.54C235.08 357.2 233.67 354.19 232.25 354.49C228.87 355.18 223.78 354.19 221.16 353.04C220.713 352.857 220.218 352.822 219.75 352.94Z" fill="#263238"/>
<path d="M218.7 340.12C218.7 340.12 206.5 278.91 204 275.27C199.94 269.27 151.12 259.6 151.12 259.6L156.85 258.6L150.23 241L106.76 242.71C106.76 242.71 107.67 271.43 112.09 279.13C116.51 286.83 181.9 290.37 186.15 292.13C190.4 293.89 203.37 341.9 203.37 341.9L218.7 340.12Z" fill="#F97B23"/>
<path opacity="0.4" d="M218.7 340.12C218.7 340.12 206.5 278.91 204 275.27C199.94 269.27 151.12 259.6 151.12 259.6L156.85 258.6L150.23 241L106.76 242.71C106.76 242.71 107.67 271.43 112.09 279.13C116.51 286.83 181.9 290.37 186.15 292.13C190.4 293.89 203.37 341.9 203.37 341.9L218.7 340.12Z" fill="white"/>
<path d="M203.63 347.32L220.69 342.98L219.78 335.36L201.16 340.49L203.63 347.32Z" fill="#F97B23"/>
<path opacity="0.2" d="M203.63 347.32L220.69 342.98L219.78 335.36L201.16 340.49L203.63 347.32Z" fill="white"/>
<path d="M120.52 243.38L107.92 243.17L107.65 246.98L121.06 247.3L120.52 243.38Z" fill="#263238"/>
<path d="M122.46 243.31L123.01 247.27L151.13 246.87L150.22 243.26L122.46 243.31Z" fill="#263238"/>
<path d="M136 244L136.36 246.61C136.412 246.929 136.577 247.218 136.825 247.426C137.073 247.633 137.387 247.745 137.71 247.74L142.21 247.6C142.359 247.603 142.506 247.572 142.642 247.511C142.778 247.449 142.898 247.358 142.994 247.244C143.089 247.13 143.159 246.996 143.196 246.851C143.233 246.707 143.238 246.556 143.21 246.41L142.84 243.79C142.787 243.472 142.621 243.184 142.373 242.979C142.125 242.773 141.812 242.663 141.49 242.67L137 242.81C136.851 242.807 136.703 242.838 136.567 242.9C136.432 242.961 136.312 243.053 136.216 243.167C136.12 243.281 136.051 243.415 136.013 243.559C135.976 243.703 135.971 243.854 136 244Z" fill="white"/>
<path d="M107.86 242.61H149.16C149.654 242.613 150.132 242.433 150.502 242.104C150.871 241.775 151.105 241.322 151.16 240.83C156.26 200.83 146.52 187.02 146.52 187.02C142.811 185.961 139.027 185.189 135.2 184.71C129.608 184.27 123.995 184.15 118.39 184.35C114.571 184.453 110.764 184.831 107 185.48C105 186.35 102.93 195.26 105 223.02C105.54 230.29 105.62 236.57 105.57 240.25C105.562 240.866 105.798 241.461 106.227 241.903C106.657 242.345 107.244 242.6 107.86 242.61Z" fill="#263238"/>
<path d="M140.76 201.17H148.72L149.32 210.67L145.05 213.44L140.76 211.32V201.17Z" fill="#263238"/>
<path opacity="0.2" d="M151.19 240.83C151.136 241.322 150.901 241.775 150.532 242.104C150.163 242.433 149.685 242.613 149.19 242.61H107.89C107.581 242.611 107.274 242.551 106.988 242.433C106.703 242.314 106.443 242.14 106.225 241.921C106.008 241.701 105.836 241.44 105.72 241.153C105.604 240.866 105.546 240.559 105.55 240.25C105.55 236.57 105.55 230.25 104.99 223.02C104.703 219.02 104.493 215.407 104.36 212.18C104.034 206.277 104.067 200.359 104.46 194.46C104.96 188.46 105.99 185.93 107.03 185.46C110.808 184.809 114.628 184.431 118.46 184.33C124.062 184.13 129.672 184.25 135.26 184.69C139.077 185.17 142.851 185.943 146.55 187C146.55 187 156.29 200.87 151.19 240.83Z" fill="white"/>
<path d="M118.8 183.94L132.14 188.49L132.68 184.67C131.38 182.39 131.05 180.95 132.15 178.3L123.25 168.07C123.48 173.31 122.53 180.47 118.8 183.94Z" fill="#B55B52"/>
<path d="M127.24 190.47L129.86 191.56L132.14 192.99C132.14 192.99 135.19 210.45 134.34 225.19L136.9 227.29L139.6 225.12C139.6 225.12 136.24 198.05 135.03 192.78L135.56 191.51L136.79 188.89L134.52 187.7L130.91 188.49H128.39L127.24 190.47Z" fill="white"/>
<path opacity="0.2" d="M126.87 172.24L132.14 178.3C131.744 179.229 131.426 180.189 131.19 181.17C128.96 180.5 126.19 177.53 126.32 175.11C126.327 174.128 126.514 173.156 126.87 172.24Z" fill="black"/>
<path d="M119.63 181.52C123.395 184.027 127.418 186.122 131.63 187.77C132.09 185.908 132.09 183.962 131.63 182.1L137.52 185.04C137.52 185.04 138.01 189.61 136.66 192.04L132.33 188.87L127.47 192.87C127.47 192.87 118.27 189.32 116.83 184.5L119.63 181.52Z" fill="#263238"/>
<path opacity="0.2" d="M149.64 217L136 228C116.42 232.36 107.81 220.15 104.35 212.15C104.024 206.247 104.057 200.329 104.45 194.43C109.15 194.21 115 194.21 116.58 195.43C119.33 197.54 128.91 212.33 130.34 213.43C131.77 214.53 149.64 217 149.64 217Z" fill="black"/>
<path d="M157.4 216.48L164.57 213.89L163.69 223.49C163.69 223.49 157.11 224.33 156.3 220.87L157.4 216.48Z" fill="#B55B52"/>
<path d="M170.5 215.83L169.41 223.74L163.69 223.49L164.57 213.89L170.5 215.83Z" fill="#B55B52"/>
<path d="M115.69 197.11C117.805 201.288 120.142 205.351 122.69 209.28C124.258 211.849 126.222 214.154 128.51 216.11C128.683 216.26 128.883 216.376 129.1 216.45C131.604 217.112 134.19 217.415 136.78 217.35C144.04 217.42 151.43 216.75 158.72 216.13L159.91 221.65C155.026 223.241 150.046 224.52 145 225.48C139.53 226.48 134.54 227.23 128.72 226.67C126.842 226.473 125.02 225.92 123.35 225.04C116.87 221.25 112.9 215.12 109.14 209.04C107.79 206.68 106.56 204.48 105.42 201.96L115.72 197.09L115.69 197.11Z" fill="#B65B52"/>
<path d="M107 185.48C94.0999 190.13 110.83 222.27 117.87 225.87C124.91 229.47 136.79 228 136.79 228L137.63 216.83C137.63 216.83 131.47 216.08 129.63 215.64C126.7 214.94 120.78 202 116.79 194.97C114.588 190.869 111.167 187.554 107 185.48Z" fill="#263238"/>
<path opacity="0.2" d="M107 185.48C94.0999 190.13 110.83 222.27 117.87 225.87C124.91 229.47 136.79 228 136.79 228L137.63 216.83C137.63 216.83 131.47 216.08 129.63 215.64C126.7 214.94 120.78 202 116.79 194.97C114.588 190.869 111.167 187.554 107 185.48Z" fill="white"/>
<path d="M135.97 215.99L134.93 228.96L138.63 228.27L139.6 216.68L135.97 215.99Z" fill="#263238"/>
<path d="M146.18 157.53C146.69 160.53 145.4 166.35 141.65 163.89C137.9 161.43 145.29 152.39 146.18 157.53Z" fill="#263238"/>
<path d="M125 158.6C123.56 165.92 122.34 170.13 125 174.75C129 181.69 138.83 180.63 142.44 173.88C145.69 167.79 147.5 156.88 141.17 152.21C139.768 151.188 138.13 150.537 136.409 150.318C134.688 150.099 132.94 150.318 131.326 150.955C129.713 151.593 128.287 152.628 127.181 153.965C126.075 155.301 125.324 156.896 125 158.6Z" fill="#B55B52"/>
<path d="M121.48 150.53L129.77 150.15L129.99 154.91L129.5 154.64C129.5 154.64 128.98 161.64 125.01 163.97C119.64 159.87 118.06 153.16 121.48 150.53Z" fill="#263238"/>
<path d="M120.62 163.88C120.671 164.803 120.906 165.708 121.309 166.54C121.713 167.373 122.277 168.117 122.97 168.73C124.84 170.36 126.86 168.95 127.25 166.63C127.6 164.54 127.05 161.17 124.74 160.43C124.23 160.28 123.691 160.259 123.17 160.368C122.65 160.476 122.164 160.712 121.757 161.053C121.349 161.394 121.032 161.831 120.834 162.324C120.636 162.817 120.562 163.351 120.62 163.88Z" fill="#B55B52"/>
<path d="M135.42 163.37C135.26 163.96 135.42 164.51 135.84 164.61C136.26 164.71 136.66 164.31 136.84 163.72C137.02 163.13 136.84 162.58 136.42 162.49C136 162.4 135.57 162.79 135.42 163.37Z" fill="#263238"/>
<path d="M142.07 165.05C141.92 165.63 142.07 166.19 142.49 166.28C142.91 166.37 143.32 165.98 143.49 165.4C143.66 164.82 143.49 164.26 143.07 164.16C142.65 164.06 142.23 164.46 142.07 165.05Z" fill="#263238"/>
<path d="M139.88 164.81C140.151 166.726 140.689 168.594 141.48 170.36C141.003 170.529 140.495 170.596 139.99 170.557C139.486 170.517 138.995 170.372 138.55 170.13L139.88 164.81Z" fill="#A02724"/>
<path d="M134.81 171.58C135.053 171.683 135.304 171.766 135.56 171.83C135.606 171.84 135.655 171.832 135.695 171.808C135.736 171.784 135.766 171.745 135.78 171.7C135.786 171.677 135.787 171.653 135.784 171.63C135.781 171.606 135.773 171.584 135.761 171.563C135.749 171.543 135.733 171.525 135.714 171.511C135.695 171.496 135.673 171.486 135.65 171.48C134.916 171.316 134.232 170.98 133.654 170.498C133.077 170.016 132.623 169.403 132.33 168.71C132.312 168.667 132.279 168.631 132.236 168.611C132.194 168.591 132.145 168.587 132.1 168.6C132.077 168.607 132.055 168.618 132.037 168.634C132.019 168.649 132.004 168.669 131.993 168.69C131.983 168.712 131.977 168.736 131.977 168.76C131.976 168.784 131.981 168.808 131.99 168.83C132.244 169.459 132.626 170.028 133.112 170.501C133.597 170.974 134.175 171.342 134.81 171.58Z" fill="#263238"/>
<path d="M133.93 160.72C133.988 160.742 134.051 160.748 134.113 160.738C134.175 160.727 134.232 160.7 134.28 160.66C134.625 160.373 135.033 160.17 135.47 160.067C135.907 159.965 136.363 159.966 136.8 160.07C136.844 160.085 136.892 160.092 136.939 160.088C136.986 160.085 137.032 160.072 137.074 160.051C137.116 160.029 137.153 160 137.183 159.963C137.214 159.927 137.236 159.885 137.25 159.84C137.265 159.797 137.272 159.751 137.269 159.705C137.267 159.659 137.255 159.614 137.234 159.573C137.213 159.532 137.185 159.495 137.15 159.466C137.114 159.436 137.074 159.413 137.03 159.4C136.48 159.253 135.903 159.241 135.348 159.365C134.793 159.488 134.275 159.744 133.84 160.11C133.802 160.138 133.771 160.174 133.748 160.215C133.724 160.256 133.709 160.301 133.704 160.347C133.698 160.394 133.702 160.441 133.715 160.486C133.728 160.531 133.75 160.574 133.78 160.61C133.821 160.657 133.872 160.695 133.93 160.72Z" fill="#263238"/>
<path d="M145.54 163.49C145.601 163.512 145.666 163.518 145.73 163.506C145.793 163.495 145.853 163.467 145.902 163.426C145.952 163.384 145.99 163.331 146.012 163.27C146.034 163.209 146.041 163.144 146.03 163.08C145.924 162.525 145.688 162.003 145.34 161.558C144.992 161.113 144.543 160.757 144.03 160.52C143.941 160.487 143.842 160.489 143.755 160.526C143.667 160.563 143.597 160.633 143.56 160.72C143.527 160.808 143.529 160.905 143.566 160.991C143.604 161.077 143.673 161.145 143.76 161.18C144.158 161.366 144.506 161.644 144.774 161.992C145.042 162.34 145.222 162.748 145.3 163.18C145.308 163.249 145.334 163.314 145.377 163.369C145.419 163.423 145.475 163.465 145.54 163.49Z" fill="#263238"/>
<path d="M126.94 156.42C127.099 156.555 127.269 156.675 127.45 156.78C127.93 157.067 128.474 157.229 129.033 157.252C129.592 157.275 130.148 157.157 130.65 156.91C132.71 155.91 133.36 150.03 139.22 153.02C139.863 152.865 140.538 152.899 141.163 153.119C141.788 153.339 142.335 153.736 142.74 154.26C144.25 156.11 143.21 162.86 146.43 161.93C149.65 161 149.09 160 149.09 160C149.09 160 148.19 160.57 147.66 160.12C148.137 159.718 148.477 159.178 148.633 158.574C148.789 157.97 148.753 157.332 148.53 156.75C148.53 156.75 147.75 157.68 147.23 157.5C147.767 154.769 147.456 151.939 146.34 149.39C144.47 144.73 133.03 145.77 133.03 145.77C133.03 145.77 131.59 143.36 126.42 145.04C121.25 146.72 118.89 152.95 119.71 155.66" fill="#263238"/>
<path d="M195.2 222.74L194.46 219.95H164.13L150.17 221.34L149.64 222.74H195.2Z" fill="#263238"/>
<path opacity="0.5" d="M195.2 222.74L194.46 219.95H164.13L150.17 221.34L149.64 222.74H195.2Z" fill="white"/>
<path opacity="0.2" d="M164.13 219.95V222.74H195.2L194.46 219.95H164.13Z" fill="black"/>
<path d="M174.39 206.59C174.35 206.928 174.383 207.271 174.486 207.596C174.59 207.92 174.761 208.219 174.989 208.472C175.218 208.725 175.497 208.926 175.809 209.062C176.122 209.198 176.459 209.265 176.8 209.26H223.26C223.986 209.243 224.681 208.963 225.216 208.472C225.751 207.981 226.09 207.312 226.17 206.59L228.93 176.85C228.956 176.562 228.936 176.272 228.87 175.99C228.743 175.466 228.44 175.001 228.013 174.672C227.586 174.343 227.059 174.169 226.52 174.18H180.06C179.334 174.198 178.639 174.478 178.104 174.969C177.569 175.46 177.23 176.128 177.15 176.85L174.39 206.59Z" fill="#263238"/>
<path opacity="0.5" d="M174.39 206.59C174.35 206.928 174.383 207.271 174.486 207.596C174.59 207.92 174.761 208.219 174.989 208.472C175.218 208.725 175.497 208.926 175.809 209.062C176.122 209.198 176.459 209.265 176.8 209.26H223.26C223.986 209.243 224.681 208.963 225.216 208.472C225.751 207.981 226.09 207.312 226.17 206.59L228.93 176.85C228.956 176.562 228.936 176.272 228.87 175.99C228.743 175.466 228.44 175.001 228.013 174.672C227.586 174.343 227.059 174.169 226.52 174.18H180.06C179.334 174.198 178.639 174.478 178.104 174.969C177.569 175.46 177.23 176.128 177.15 176.85L174.39 206.59Z" fill="white"/>
<path opacity="0.1" d="M177 209.26H223.29C224.016 209.243 224.711 208.963 225.246 208.472C225.782 207.981 226.12 207.312 226.2 206.59L228.96 176.85C228.986 176.562 228.966 176.272 228.9 175.99H182.6C181.876 176.01 181.183 176.291 180.65 176.782C180.117 177.273 179.78 177.94 179.7 178.66L176.94 208.4C176.909 208.688 176.929 208.979 177 209.26Z" fill="black"/>
<path d="M208.88 191.02H199.27L201.83 218.54L186.64 220.82V222.74H218.65V220.82L212.09 218.54L208.88 191.02Z" fill="#263238"/>
<path opacity="0.5" d="M208.88 191.02H199.27L201.83 218.54L186.64 220.82V222.74H218.65V220.82L212.09 218.54L208.88 191.02Z" fill="white"/>
<path opacity="0.2" d="M199.27 191.02L206.39 222.3L212.09 222.13L208.88 191.02H199.27Z" fill="white"/>
<path d="M119.94 362.12H178.14C178.29 362.12 178.44 362.09 178.579 362.032C178.717 361.974 178.844 361.889 178.95 361.782C179.056 361.675 179.139 361.549 179.196 361.409C179.253 361.27 179.281 361.12 179.28 360.97V357.26C179.28 356.957 179.16 356.667 178.946 356.454C178.732 356.24 178.442 356.12 178.14 356.12H122.94V237.3H177.2C177.752 237.3 178.281 237.081 178.671 236.691C179.061 236.301 179.28 235.771 179.28 235.22V231.3H119.94C119.144 231.3 118.381 231.616 117.819 232.178C117.256 232.741 116.94 233.504 116.94 234.3V359.12C116.94 359.915 117.256 360.679 117.819 361.241C118.381 361.804 119.144 362.12 119.94 362.12Z" fill="#263238"/>
<g opacity="0.4">
<path d="M119.94 362.12H178.14C178.29 362.12 178.44 362.09 178.579 362.032C178.717 361.974 178.844 361.889 178.95 361.782C179.056 361.675 179.139 361.549 179.196 361.409C179.253 361.27 179.281 361.12 179.28 360.97V357.26C179.28 356.957 179.16 356.667 178.946 356.454C178.732 356.24 178.442 356.12 178.14 356.12H122.94V237.3H177.2C177.752 237.3 178.281 237.081 178.671 236.691C179.061 236.301 179.28 235.771 179.28 235.22V231.3H119.94C119.144 231.3 118.381 231.616 117.819 232.178C117.256 232.741 116.94 233.504 116.94 234.3V359.12C116.94 359.915 117.256 360.679 117.819 361.241C118.381 361.804 119.144 362.12 119.94 362.12Z" fill="white"/>
</g>
<path d="M265.9 232.3L112.48 232.3C111.965 232.3 111.472 232.096 111.108 231.732C110.744 231.368 110.54 230.875 110.54 230.36V225.64L267.84 225.64V230.37C267.837 230.883 267.632 231.374 267.268 231.736C266.905 232.097 266.413 232.3 265.9 232.3Z" fill="#F97B23"/>
<path opacity="0.2" d="M110.54 228.96L267.84 228.96V225.63L110.54 225.63V228.96Z" fill="black"/>
<path d="M107.25 226.49H271.15C271.647 226.49 272.124 226.294 272.476 225.943C272.828 225.593 273.027 225.117 273.03 224.62C273.03 224.122 272.832 223.643 272.479 223.291C272.127 222.938 271.649 222.74 271.15 222.74H107.25C106.752 222.74 106.273 222.938 105.921 223.291C105.568 223.643 105.37 224.122 105.37 224.62C105.373 225.117 105.572 225.593 105.924 225.943C106.277 226.294 106.753 226.49 107.25 226.49Z" fill="#F97B23"/>
</svg>
