<svg width="4096" height="4096" viewBox="0 0 4096 4096" fill="none" xmlns="http://www.w3.org/2000/svg">
<path d="M714.119 779.605C721.534 779.615 728.949 779.607 736.364 779.598C750.214 779.583 764.063 779.582 777.913 779.588C791.924 779.595 805.935 779.595 819.946 779.587C820.835 779.587 821.724 779.586 822.64 779.586C826.261 779.584 829.882 779.582 833.503 779.58C870.151 779.558 906.799 779.556 943.447 779.562C948.5 779.563 953.553 779.563 958.606 779.564C959.61 779.564 960.614 779.564 961.648 779.564C983.939 779.567 1006.23 779.564 1028.52 779.56C1031.57 779.56 1034.63 779.559 1037.68 779.558C1045.87 779.557 1054.06 779.555 1062.25 779.554C1119.37 779.543 1176.49 779.538 1233.61 779.546C1235.22 779.546 1235.22 779.546 1236.87 779.547C1248.86 779.548 1260.85 779.55 1272.84 779.552C1274.46 779.552 1274.46 779.552 1276.12 779.552C1284.9 779.554 1284.9 779.554 1289.25 779.554C1358.54 779.565 1427.83 779.557 1497.12 779.533C1514.59 779.527 1532.06 779.522 1549.53 779.516C1550.61 779.516 1551.68 779.515 1552.79 779.515C1585.95 779.504 1619.11 779.499 1652.27 779.498C1653.84 779.498 1653.84 779.498 1655.43 779.498C1678.28 779.498 1701.13 779.499 1723.99 779.501C1732.16 779.502 1740.34 779.503 1748.52 779.503C1750.55 779.503 1752.59 779.504 1754.62 779.504C1787.01 779.507 1819.4 779.498 1851.8 779.484C1885.32 779.47 1918.83 779.47 1952.35 779.487C1955.96 779.489 1959.56 779.491 1963.16 779.493C1964.04 779.493 1964.92 779.493 1965.83 779.494C1979.81 779.5 1993.79 779.493 2007.77 779.48C2021.52 779.468 2035.27 779.47 2049.03 779.488C2057.08 779.497 2065.14 779.496 2073.2 779.479C2079.19 779.467 2085.18 779.476 2091.17 779.494C2093.57 779.497 2095.97 779.494 2098.37 779.484C2130.85 779.351 2161.33 786.784 2186 809C2186.83 809.683 2187.65 810.366 2188.5 811.07C2211.74 830.751 2225.09 861.305 2227.59 891.237C2230 925.832 2218.11 956.988 2195.64 982.972C2176.3 1004.66 2147.87 1018.37 2119 1021C2115.59 1021.13 2112.18 1021.14 2108.76 1021.13C2107.75 1021.13 2106.74 1021.13 2105.7 1021.13C2102.3 1021.14 2098.9 1021.14 2095.5 1021.13C2093.03 1021.13 2090.56 1021.14 2088.09 1021.14C2082.7 1021.14 2077.31 1021.15 2071.93 1021.15C2063.86 1021.14 2055.79 1021.15 2047.72 1021.15C2033.97 1021.16 2020.22 1021.17 2006.47 1021.17C1992.53 1021.17 1978.6 1021.18 1964.66 1021.18C1963.78 1021.18 1962.9 1021.18 1961.99 1021.18C1957.51 1021.19 1953.02 1021.19 1948.53 1021.19C1939.33 1021.2 1930.14 1021.2 1920.94 1021.2C1920.01 1021.2 1919.08 1021.21 1918.13 1021.21C1896.77 1021.22 1875.42 1021.22 1854.06 1021.23C1820.87 1021.24 1787.67 1021.25 1754.48 1021.27C1752.98 1021.27 1752.98 1021.27 1751.45 1021.27C1739.26 1021.28 1727.06 1021.28 1714.87 1021.29C1696.27 1021.3 1677.67 1021.31 1659.07 1021.32C1656.98 1021.32 1654.89 1021.32 1652.81 1021.32C1603.58 1021.35 1554.35 1021.37 1505.13 1021.39C1501.86 1021.39 1498.59 1021.39 1495.33 1021.4C1445.03 1021.42 1394.73 1021.44 1344.42 1021.46C1342.24 1021.46 1340.05 1021.46 1337.87 1021.46C1328.05 1021.46 1318.24 1021.47 1308.42 1021.47C1304.07 1021.47 1299.71 1021.47 1295.36 1021.48C1292.09 1021.48 1288.83 1021.48 1285.57 1021.48C1236.42 1021.5 1187.27 1021.52 1138.11 1021.54C1137.08 1021.54 1136.05 1021.54 1134.98 1021.54C1113.31 1021.56 1091.64 1021.57 1069.97 1021.58C1059.82 1021.59 1049.67 1021.59 1039.53 1021.6C1038.53 1021.6 1037.53 1021.6 1036.5 1021.6C1004.33 1021.62 972.16 1021.63 939.99 1021.63C907.58 1021.64 875.17 1021.66 842.76 1021.68C838.277 1021.68 833.794 1021.68 829.312 1021.69C828.433 1021.69 827.554 1021.69 826.649 1021.69C812.758 1021.7 798.867 1021.7 784.976 1021.7C771.304 1021.7 757.631 1021.7 743.959 1021.72C735.952 1021.73 727.946 1021.73 719.939 1021.72C713.979 1021.72 708.019 1021.73 702.059 1021.74C699.675 1021.74 697.29 1021.74 694.906 1021.73C675.967 1021.7 657.009 1022.42 638.313 1025.69C637.345 1025.85 636.377 1026.02 635.379 1026.19C581.563 1035.88 530.837 1058.65 489 1094C487.935 1094.88 486.87 1095.76 485.805 1096.63C472.311 1107.85 459.781 1120.14 449 1134C447.564 1135.71 446.127 1137.42 444.688 1139.12C403.856 1189.15 377.733 1256.61 377.873 1321.4C377.87 1323.05 377.87 1323.05 377.868 1324.73C377.863 1328.42 377.866 1332.1 377.869 1335.78C377.867 1338.47 377.865 1341.15 377.863 1343.83C377.858 1349.67 377.857 1355.52 377.858 1361.36C377.86 1370.11 377.857 1378.87 377.852 1387.62C377.844 1402.53 377.841 1417.45 377.841 1432.36C377.84 1447.48 377.837 1462.6 377.832 1477.71C377.832 1479.14 377.832 1479.14 377.831 1480.61C377.83 1484.49 377.828 1488.38 377.827 1492.27C377.811 1538.3 377.804 1584.34 377.8 1630.37C377.797 1653.29 377.794 1676.22 377.79 1699.14C377.777 1772.68 377.766 1846.22 377.763 1919.76C377.763 1923.27 377.762 1926.79 377.762 1930.3C377.762 1937.35 377.762 1944.4 377.761 1951.45C377.761 1959.7 377.761 1967.96 377.76 1976.21C377.76 1978.57 377.76 1980.93 377.76 1983.29C377.756 2059.14 377.741 2134.99 377.718 2210.83C377.701 2265.33 377.686 2319.83 377.681 2374.33C377.681 2375.46 377.681 2376.58 377.681 2377.73C377.679 2402.35 377.678 2426.96 377.677 2451.58C377.677 2460.38 377.677 2469.19 377.677 2478C377.677 2480.19 377.677 2482.38 377.677 2484.57C377.676 2519.47 377.666 2554.36 377.651 2589.26C377.636 2624.41 377.631 2659.57 377.64 2694.73C377.641 2699.59 377.642 2704.45 377.643 2709.32C377.643 2710.27 377.643 2711.22 377.643 2712.2C377.646 2727.27 377.639 2742.34 377.627 2757.4C377.616 2772.24 377.615 2787.07 377.626 2801.9C377.632 2810.58 377.63 2819.27 377.616 2827.95C377.607 2833.73 377.61 2839.52 377.621 2845.3C377.627 2848.57 377.627 2851.84 377.616 2855.1C377.358 2941.17 412.36 3019.04 472.5 3079.69C479.054 3086.23 485.593 3092.43 493 3098C494.208 3098.94 495.415 3099.87 496.621 3100.81C554.052 3145.02 622.715 3166.18 694.898 3166.14C697.216 3166.14 699.533 3166.14 701.851 3166.15C708.192 3166.15 714.533 3166.16 720.874 3166.16C727.02 3166.16 733.165 3166.16 739.31 3166.17C751.107 3166.18 762.905 3166.19 774.703 3166.2C793.435 3166.21 812.167 3166.23 830.9 3166.25C838.117 3166.26 845.334 3166.27 852.551 3166.27C853.353 3166.28 854.155 3166.28 854.981 3166.28C874.047 3166.3 893.114 3166.32 912.18 3166.34C913.014 3166.34 913.847 3166.34 914.706 3166.34C934.157 3166.36 953.608 3166.38 973.058 3166.39C973.895 3166.39 974.731 3166.39 975.593 3166.39C982.336 3166.39 989.079 3166.4 995.822 3166.4C1023.65 3166.42 1051.48 3166.45 1079.31 3166.49C1083.24 3166.49 1087.18 3166.5 1091.11 3166.5C1091.89 3166.5 1092.66 3166.5 1093.46 3166.51C1105.89 3166.52 1118.32 3166.53 1130.75 3166.53C1143.25 3166.53 1155.76 3166.54 1168.26 3166.56C1175.02 3166.58 1181.79 3166.58 1188.56 3166.58C1194.76 3166.57 1200.96 3166.58 1207.17 3166.6C1209.4 3166.61 1211.64 3166.6 1213.87 3166.6C1250.97 3166.51 1282.22 3177.3 1309.5 3203.12C1332.45 3226.82 1343.28 3257.31 1343.14 3289.9C1343.14 3290.56 1343.14 3291.23 1343.13 3291.92C1343.09 3307.96 1342.56 3323.97 1341.99 3340C1341.83 3344.24 1341.69 3348.49 1341.54 3352.74C1341.29 3360.06 1341.04 3367.38 1340.78 3374.7C1340.4 3385.3 1340.04 3395.89 1339.67 3406.49C1339.08 3423.72 1338.48 3440.94 1337.87 3458.16C1337.29 3474.84 1336.71 3491.51 1336.13 3508.19C1336.07 3509.73 1336.07 3509.73 1336.02 3511.31C1335.63 3522.56 1335.24 3533.82 1334.85 3545.07C1334.79 3546.56 1334.79 3546.56 1334.74 3548.07C1334.6 3552.03 1334.47 3555.98 1334.33 3559.94C1333.93 3571.49 1333.53 3583.04 1333.12 3594.59C1332.87 3601.82 1332.62 3609.06 1332.37 3616.29C1332.22 3620.45 1332.08 3624.62 1331.93 3628.79C1331.79 3632.61 1331.66 3636.43 1331.53 3640.25C1331.46 3642.27 1331.39 3644.29 1331.31 3646.31C1331.11 3652.22 1330.95 3658.13 1330.87 3664.05C1330.86 3665.06 1330.84 3666.07 1330.83 3667.1C1331.32 3675.28 1335.14 3683.3 1341 3689C1347.85 3694.01 1354.66 3697.27 1363.25 3697.37C1364.8 3697.42 1364.8 3697.42 1366.39 3697.46C1375.82 3696.26 1382.67 3691.44 1389.94 3685.62C1391.79 3684.18 1393.64 3682.73 1395.5 3681.29C1396.42 3680.57 1397.34 3679.84 1398.29 3679.1C1402.31 3675.99 1406.4 3672.99 1410.5 3670C1417.23 3665.08 1423.88 3660.07 1430.5 3655C1437.12 3649.93 1443.78 3644.93 1450.5 3640C1459.18 3633.64 1467.73 3627.14 1476.28 3620.61C1480.75 3617.19 1485.24 3613.81 1489.75 3610.45C1493.3 3607.79 1496.82 3605.09 1500.34 3602.39C1508.78 3595.94 1517.27 3589.57 1525.83 3583.29C1531.78 3578.93 1537.65 3574.48 1543.5 3570C1550.89 3564.35 1558.33 3558.79 1565.84 3553.29C1572.68 3548.27 1579.42 3543.12 1586.16 3537.97C1591.95 3533.54 1597.8 3529.18 1603.69 3524.87C1609.87 3520.35 1615.97 3515.73 1622 3511C1628.8 3505.67 1635.71 3500.49 1642.68 3495.39C1648.68 3491 1654.6 3486.52 1660.5 3482C1667.89 3476.35 1675.33 3470.79 1682.84 3465.29C1689.67 3460.27 1696.41 3455.13 1703.15 3449.97C1709.05 3445.46 1715.01 3441.02 1721 3436.62C1727.78 3431.65 1734.47 3426.6 1741.12 3421.45C1752.59 3412.6 1764.14 3403.85 1775.83 3395.29C1781.78 3390.93 1787.65 3386.48 1793.5 3382C1800.89 3376.35 1808.33 3370.79 1815.84 3365.29C1822.68 3360.27 1829.42 3355.12 1836.16 3349.97C1841.95 3345.54 1847.8 3341.18 1853.69 3336.87C1859.87 3332.35 1865.97 3327.73 1872 3323C1878.8 3317.67 1885.71 3312.49 1892.68 3307.39C1898.68 3303 1904.6 3298.52 1910.5 3294C1917.89 3288.35 1925.33 3282.79 1932.84 3277.29C1939.68 3272.27 1946.42 3267.12 1953.16 3261.97C1958.95 3257.54 1964.8 3253.18 1970.69 3248.87C1976.87 3244.35 1982.97 3239.73 1989 3235C1995.8 3229.67 2002.7 3224.49 2009.68 3219.39C2015.7 3214.98 2021.64 3210.48 2027.56 3205.94C2031.04 3203.29 2034.52 3200.64 2038 3198C2038.79 3197.4 2039.59 3196.79 2040.4 3196.17C2053.43 3186.33 2066.54 3177.94 2082.06 3172.62C2082.72 3172.4 2083.38 3172.17 2084.06 3171.94C2086.36 3171.21 2088.67 3170.6 2091 3170C2091.94 3169.75 2092.88 3169.49 2093.85 3169.23C2107.93 3166.02 2122.3 3166.57 2136.65 3166.61C2140.72 3166.62 2144.79 3166.61 2148.86 3166.6C2155.99 3166.59 2163.11 3166.59 2170.24 3166.59C2180.84 3166.6 2191.43 3166.59 2202.03 3166.58C2219.86 3166.56 2237.7 3166.56 2255.53 3166.56C2273.2 3166.56 2290.87 3166.56 2308.53 3166.54C2309.63 3166.54 2310.73 3166.54 2311.87 3166.54C2317.46 3166.53 2323.04 3166.53 2328.63 3166.52C2340 3166.51 2351.36 3166.51 2362.72 3166.5C2363.86 3166.5 2365 3166.5 2366.17 3166.49C2393.23 3166.47 2420.29 3166.46 2447.35 3166.46C2449.12 3166.46 2449.12 3166.46 2450.94 3166.46C2460.52 3166.45 2470.11 3166.45 2479.7 3166.45C2507.29 3166.44 2534.89 3166.43 2562.48 3166.41C2563.66 3166.41 2564.84 3166.41 2566.06 3166.41C2593.05 3166.4 2620.05 3166.39 2647.05 3166.37C2648.18 3166.36 2649.32 3166.36 2650.49 3166.36C2661.83 3166.36 2673.18 3166.35 2684.52 3166.34C2708.85 3166.32 2733.18 3166.31 2757.52 3166.3C2775.26 3166.3 2793.01 3166.3 2810.75 3166.28C2821.28 3166.27 2831.81 3166.27 2842.34 3166.28C2849.39 3166.28 2856.44 3166.28 2863.48 3166.27C2867.49 3166.26 2871.5 3166.26 2875.5 3166.26C2898.25 3166.3 2920.99 3165.89 2943.44 3161.81C2944.64 3161.6 2945.84 3161.38 2947.08 3161.16C2997.34 3151.83 3043.84 3130.48 3084 3099C3084.98 3098.23 3085.96 3097.46 3086.98 3096.67C3103.04 3083.8 3118.34 3069.24 3131 3053C3131.83 3051.99 3132.65 3050.98 3133.5 3049.95C3146.1 3034.47 3156.73 3017.64 3166 3000C3166.34 2999.36 3166.68 2998.73 3167.04 2998.07C3180.37 2973.23 3189.43 2946.07 3195.31 2918.56C3195.54 2917.51 3195.77 2916.45 3196.01 2915.36C3201.04 2890.43 3201.44 2865.56 3201.38 2840.25C3201.38 2835.33 3201.39 2830.41 3201.39 2825.49C3201.4 2816.89 3201.4 2808.29 3201.39 2799.69C3201.38 2786.91 3201.39 2774.12 3201.4 2761.34C3201.41 2739.82 3201.42 2718.3 3201.41 2696.78C3201.41 2675.48 3201.41 2654.17 3201.42 2632.87C3201.42 2632.21 3201.42 2631.54 3201.42 2630.86C3201.43 2623.45 3201.43 2616.03 3201.43 2608.62C3201.44 2594.91 3201.45 2581.2 3201.46 2567.49C3201.46 2566.81 3201.46 2566.12 3201.46 2565.41C3201.48 2532.82 3201.48 2500.23 3201.49 2467.64C3201.49 2465.48 3201.49 2463.32 3201.49 2461.16C3201.49 2438.73 3201.5 2416.31 3201.5 2393.89C3201.5 2372.18 3201.51 2350.48 3201.51 2328.77C3201.51 2326.61 3201.51 2324.45 3201.51 2322.29C3201.52 2289.71 3201.53 2257.13 3201.54 2224.55C3201.54 2223.86 3201.54 2223.18 3201.54 2222.47C3201.55 2208.78 3201.56 2195.09 3201.57 2181.4C3201.57 2174 3201.58 2166.6 3201.58 2159.19C3201.58 2158.53 3201.58 2157.87 3201.58 2157.19C3201.59 2135.23 3201.59 2113.27 3201.59 2091.31C3201.58 2069.92 3201.59 2048.53 3201.6 2027.13C3201.61 2014.43 3201.61 2001.73 3201.6 1989.03C3201.6 1980.54 3201.6 1972.04 3201.61 1963.55C3201.62 1958.72 3201.62 1953.89 3201.61 1949.05C3201.52 1905.58 3207.25 1869.16 3239 1837C3259.83 1816.14 3289.6 1804 3319 1803.62C3354.59 1803.67 3385.04 1815.1 3410.53 1840.47C3429.24 1859.96 3443.12 1888.67 3443.13 1915.98C3443.13 1917 3443.13 1917 3443.13 1918.05C3443.14 1920.34 3443.13 1922.63 3443.13 1924.92C3443.13 1926.58 3443.14 1928.25 3443.14 1929.91C3443.14 1934.5 3443.14 1939.1 3443.14 1943.69C3443.14 1948.68 3443.15 1953.68 3443.15 1958.67C3443.16 1968.57 3443.16 1978.48 3443.16 1988.39C3443.16 2000.26 3443.17 2012.12 3443.17 2023.99C3443.19 2052 3443.2 2080.01 3443.2 2108.02C3443.2 2122.28 3443.21 2136.54 3443.21 2150.8C3443.22 2196.56 3443.23 2242.33 3443.24 2288.09C3443.24 2290.28 3443.24 2292.47 3443.24 2294.65C3443.24 2299.04 3443.24 2303.43 3443.24 2307.82C3443.24 2312.95 3443.24 2318.09 3443.24 2323.23C3443.24 2324.7 3443.24 2326.17 3443.24 2327.64C3443.24 2374.8 3443.26 2421.96 3443.28 2469.12C3443.3 2503 3443.31 2536.88 3443.32 2570.77C3443.32 2571.81 3443.32 2571.81 3443.32 2572.88C3443.32 2588.21 3443.32 2603.54 3443.32 2618.87C3443.32 2624.35 3443.32 2629.84 3443.32 2635.33C3443.32 2636.69 3443.32 2638.05 3443.32 2639.42C3443.32 2661.11 3443.33 2682.79 3443.35 2704.48C3443.36 2726.96 3443.37 2749.45 3443.36 2771.93C3443.36 2784.87 3443.36 2797.81 3443.38 2810.76C3443.39 2819.43 3443.38 2828.1 3443.37 2836.77C3443.37 2841.69 3443.37 2846.61 3443.38 2851.54C3443.61 2947.44 3420.35 3040.84 3316 3209C3315.52 3209.57 3315.05 3210.15 3314.56 3210.74C3306.03 3221.04 3297.14 3231.03 3287.57 3240.39C3285.81 3242.19 3284.19 3244.08 3282.56 3246C3279.64 3249.39 3276.51 3252.27 3273.1 3255.15C3270.8 3257.18 3268.65 3259.31 3266.5 3261.5C3262.49 3265.55 3258.34 3269.31 3254 3273C3253.08 3273.8 3252.16 3274.6 3251.21 3275.42C3242.43 3283 3233.27 3290.04 3224 3297C3223.24 3297.57 3222.49 3298.14 3221.71 3298.73C3149.89 3352.98 3063.59 3389.21 2965 3403.81C2964.28 3403.91 2963.57 3404.01 2962.83 3404.11C2939.07 3407.36 2915.35 3408.3 2891.4 3408.18C2887.51 3408.16 2883.62 3408.16 2879.74 3408.15C2872.95 3408.14 2866.16 3408.12 2859.38 3408.1C2849.29 3408.07 2839.2 3408.04 2829.11 3408.02C2824.28 3408.01 2819.45 3408 2814.62 3407.99C2813.65 3407.99 2812.67 3407.99 2811.67 3407.99C2804.63 3407.97 2797.58 3407.96 2790.54 3407.94C2762.13 3407.87 2733.72 3407.82 2705.32 3407.8C2702.09 3407.8 2698.85 3407.79 2695.62 3407.79C2684.7 3407.78 2673.78 3407.77 2662.87 3407.76C2640.41 3407.74 2617.95 3407.72 2595.49 3407.7C2593.8 3407.7 2593.8 3407.7 2592.07 3407.7C2555.53 3407.66 2518.99 3407.57 2482.45 3407.47C2444.83 3407.36 2407.21 3407.3 2369.58 3407.31C2364.27 3407.31 2358.95 3407.31 2353.64 3407.31C2352.59 3407.31 2351.55 3407.31 2350.47 3407.31C2333.66 3407.31 2316.86 3407.25 2300.06 3407.17C2283.17 3407.09 2266.28 3407.07 2249.39 3407.11C2239.36 3407.13 2229.34 3407.11 2219.32 3407.02C2212.61 3406.96 2205.91 3406.97 2199.2 3407.02C2195.38 3407.05 2191.57 3407.05 2187.76 3406.98C2168.49 3406.65 2156.51 3409.41 2142.27 3422.93C2138.42 3426.44 2134.21 3429.44 2130 3432.5C2128.34 3433.74 2126.69 3434.97 2125.04 3436.21C2124.21 3436.83 2123.39 3437.45 2122.54 3438.09C2118.15 3441.39 2113.8 3444.73 2109.44 3448.06C2102.07 3453.69 2094.64 3459.23 2087.16 3464.71C2081.22 3469.07 2075.35 3473.52 2069.5 3478C2062.88 3483.07 2056.23 3488.07 2049.5 3493C2040.82 3499.36 2032.27 3505.86 2023.72 3512.39C2019.26 3515.81 2014.76 3519.19 2010.25 3522.55C2006.7 3525.21 2003.18 3527.91 1999.66 3530.61C1991.22 3537.06 1982.73 3543.43 1974.17 3549.71C1968.22 3554.07 1962.35 3558.52 1956.5 3563C1949.11 3568.65 1941.67 3574.21 1934.16 3579.71C1927.32 3584.73 1920.58 3589.88 1913.84 3595.03C1908.05 3599.46 1902.2 3603.82 1896.31 3608.12C1890.13 3612.65 1884.03 3617.27 1878 3622C1871.2 3627.33 1864.29 3632.51 1857.32 3637.61C1851.32 3642 1845.4 3646.48 1839.5 3651C1832.11 3656.65 1824.67 3662.21 1817.16 3667.71C1810.33 3672.73 1803.58 3677.88 1796.84 3683.03C1791.02 3687.48 1785.16 3691.86 1779.25 3696.19C1771.18 3702.11 1763.21 3708.15 1755.27 3714.25C1743.65 3723.18 1731.99 3732.05 1720.16 3740.71C1714.22 3745.07 1708.35 3749.52 1702.5 3754C1695.11 3759.65 1687.67 3765.21 1680.16 3770.71C1673.32 3775.73 1666.58 3780.88 1659.84 3786.03C1654.05 3790.46 1648.2 3794.82 1642.31 3799.12C1636.13 3803.65 1630.03 3808.27 1624 3813C1617.2 3818.33 1610.29 3823.51 1603.32 3828.61C1597.32 3833 1591.4 3837.48 1585.5 3842C1578.11 3847.65 1570.67 3853.21 1563.17 3858.71C1557.2 3863.09 1551.31 3867.56 1545.44 3872.06C1481.01 3921.28 1408.65 3947.68 1326.96 3937.63C1276.95 3930.86 1230.55 3910.02 1191 3879C1189.98 3878.21 1188.97 3877.42 1187.92 3876.61C1171.73 3863.47 1156.11 3847.98 1144 3831C1143.14 3829.83 1142.28 3828.67 1141.41 3827.5C1135.85 3819.92 1130.74 3812.12 1126 3804C1125.42 3803.02 1125.42 3803.02 1124.83 3802.02C1105.57 3769.24 1094.39 3732.67 1090 3695C1089.91 3694.25 1089.82 3693.5 1089.73 3692.72C1088.83 3684.07 1088.82 3675.43 1088.83 3666.74C1088.83 3665.88 1088.83 3665.03 1088.83 3664.15C1088.87 3640.42 1089.74 3616.71 1090.58 3592.99C1090.81 3586.58 1091.03 3580.17 1091.25 3573.75C1091.61 3563.03 1091.99 3552.32 1092.36 3541.6C1092.75 3530.59 1093.13 3519.58 1093.51 3508.58C1093.96 3495.21 1094.42 3481.85 1094.89 3468.49C1095.06 3463.41 1095.24 3458.33 1095.41 3453.25C1095.62 3447.3 1095.82 3441.35 1096.04 3435.4C1096.11 3433.22 1096.19 3431.03 1096.26 3428.85C1096.36 3425.88 1096.47 3422.91 1096.58 3419.94C1096.6 3419.07 1096.63 3418.2 1096.66 3417.3C1096.79 3413.98 1096.95 3411.17 1098 3408C1097.08 3408 1096.16 3408 1095.22 3408C1040.69 3408.07 986.158 3408.12 931.627 3408.15C925.063 3408.16 918.499 3408.16 911.935 3408.16C910.628 3408.17 909.321 3408.17 907.975 3408.17C886.885 3408.18 865.796 3408.2 844.706 3408.23C823.027 3408.26 801.347 3408.28 779.668 3408.28C766.317 3408.29 752.966 3408.3 739.615 3408.32C730.43 3408.34 721.244 3408.34 712.058 3408.34C706.778 3408.34 701.498 3408.34 696.218 3408.36C608.255 3408.62 523.394 3390.65 386 3319C384.943 3318.32 383.886 3317.64 382.797 3316.93C368.677 3307.69 355.14 3297.58 342 3287C340.536 3285.83 340.536 3285.83 339.043 3284.63C333.652 3280.27 328.437 3275.77 323.313 3271.1C321.336 3269.3 319.336 3267.55 317.313 3265.81C304.942 3255.02 292.594 3243.72 281.934 3231.21C279.902 3228.89 277.807 3226.63 275.698 3224.37C269.858 3218.12 264.305 3211.72 259 3205C258.493 3204.36 257.985 3203.72 257.462 3203.06C201.447 3132.26 163.034 3050.82 134.741 2812.04C134.748 2804.19 134.743 2796.34 134.738 2788.49C134.729 2773.83 134.729 2759.17 134.735 2744.51C134.74 2729.67 134.742 2714.84 134.737 2700C134.737 2699.06 134.737 2698.12 134.737 2697.15C134.736 2693.32 134.734 2689.49 134.733 2685.65C134.723 2650.04 134.722 2614.44 134.728 2578.83C134.733 2544.52 134.735 2510.21 134.733 2475.9C134.732 2473.74 134.732 2471.58 134.732 2469.42C134.731 2460.75 134.731 2452.07 134.73 2443.4C134.728 2419.15 134.727 2394.91 134.727 2370.66C134.727 2369.56 134.727 2368.45 134.727 2367.31C134.726 2332.16 134.728 2297 134.732 2261.85C134.732 2260.14 134.732 2260.14 134.733 2258.4C134.735 2239.89 134.737 2221.39 134.74 2202.89C134.75 2129.51 134.749 2056.14 134.739 1982.76C134.737 1964.27 134.735 1945.78 134.732 1927.28C134.732 1926.15 134.732 1925.01 134.732 1923.83C134.728 1888.71 134.726 1853.6 134.727 1818.48C134.727 1817.37 134.727 1816.27 134.727 1815.13C134.727 1790.91 134.729 1766.69 134.73 1742.47C134.731 1733.8 134.732 1725.14 134.732 1716.47C134.732 1714.31 134.733 1712.16 134.733 1710C134.735 1675.71 134.732 1641.42 134.727 1607.13C134.722 1571.61 134.724 1536.1 134.734 1500.59C134.735 1496.77 134.736 1492.95 134.737 1489.13C134.738 1488.19 134.738 1487.25 134.738 1486.29C134.742 1471.5 134.739 1456.71 134.734 1441.92C134.729 1427.35 134.731 1412.77 134.74 1398.2C134.745 1390.41 134.747 1382.63 134.739 1374.85C134.647 1272.79 148.143 1178.86 276.77 963.476C277.967 962.147 279.158 960.812 280.311 959.444C286.004 952.743 292.256 946.594 298.479 940.391C300.433 938.442 302.382 936.488 304.33 934.533C310.383 928.477 316.437 922.509 323 917C324.084 916.051 325.166 915.101 326.246 914.148C334.518 906.934 343.09 900.196 351.865 893.607C353.954 892.035 356.033 890.451 358.11 888.863C366.848 882.207 375.772 875.956 385 870C385.705 869.541 386.409 869.083 387.134 868.611C450.774 827.271 522.17 799.561 597 787C598.717 786.711 598.717 786.711 600.469 786.415C638.295 780.202 675.884 779.552 714.119 779.605Z" fill="#F97316"/>
<path d="M3326.86 212.422C3332.02 216.962 3336.6 221.731 3341 227C3341.71 227.79 3342.43 228.58 3343.16 229.394C3350.92 238.216 3356.97 248.034 3363.14 258.003C3364.99 260.979 3366.84 263.947 3368.7 266.914C3371.85 271.927 3374.98 276.947 3378.11 281.968C3381.24 286.981 3384.37 291.99 3387.5 297C3388.75 299 3390 301 3391.25 303C3391.87 303.99 3392.49 304.98 3393.13 306C3440.94 382.5 3440.94 382.5 3488.75 459C3489.37 459.991 3489.99 460.983 3490.63 462.004C3491.87 463.989 3493.11 465.973 3494.35 467.958C3497.62 473.203 3500.91 478.44 3504.21 483.668C3504.89 484.759 3505.58 485.85 3506.29 486.974C3507.61 489.068 3508.93 491.159 3510.25 493.248C3510.85 494.191 3511.44 495.134 3512.05 496.105C3512.83 497.345 3512.83 497.345 3513.63 498.61C3515.01 501.013 3516.04 503.408 3517 506C3518.1 506.113 3519.2 506.225 3520.34 506.341C3525.54 506.996 3530.54 508.25 3535.62 509.534C3536.66 509.795 3537.71 510.055 3538.79 510.324C3542.28 511.196 3545.77 512.074 3549.27 512.953C3551.78 513.581 3554.29 514.209 3556.8 514.836C3562.21 516.187 3567.61 517.542 3573.02 518.899C3580.87 520.87 3588.72 522.835 3596.57 524.799C3609.36 527.998 3622.14 531.201 3634.93 534.407C3647.27 537.5 3659.6 540.592 3671.94 543.68C3672.7 543.87 3673.45 544.059 3674.23 544.254C3678.03 545.205 3681.83 546.156 3685.63 547.108C3693.08 548.973 3700.54 550.839 3707.99 552.705C3708.71 552.886 3709.44 553.067 3710.18 553.254C3720.77 555.904 3731.35 558.556 3741.94 561.209C3742.6 561.376 3743.27 561.543 3743.96 561.715C3750.99 563.478 3758.03 565.241 3765.06 567.005C3775.19 569.546 3785.32 572.084 3795.46 574.599C3796.98 574.975 3798.49 575.351 3800 575.727C3802.6 576.373 3805.2 577.015 3807.8 577.655C3859.34 590.452 3903.55 621.658 3931.54 667.046C3935.79 674.15 3939.5 681.5 3943 689C3943.53 690.126 3944.07 691.253 3944.62 692.414C3965.5 738.625 3966.17 793.111 3949.13 840.543C3938.39 868.823 3921.79 891.931 3902.06 914.476C3898.72 918.307 3895.51 922.24 3892.31 926.191C3889.59 929.503 3886.8 932.753 3884 936C3880.45 940.124 3876.93 944.272 3873.5 948.5C3869.57 953.346 3865.52 958.081 3861.44 962.808C3858.41 966.333 3855.43 969.89 3852.5 973.5C3848.57 978.346 3844.52 983.081 3840.44 987.808C3837.41 991.333 3834.43 994.89 3831.5 998.5C3827.57 1003.35 3823.52 1008.08 3819.44 1012.81C3816.41 1016.33 3813.43 1019.89 3810.5 1023.5C3807.07 1027.73 3803.55 1031.88 3800 1036C3795.68 1041.02 3791.45 1046.09 3787.27 1051.23C3782.45 1057.11 3777.51 1062.88 3772.58 1068.67C3767.86 1074.22 3763.16 1079.78 3758.56 1085.44C3754.6 1090.3 3750.53 1095.06 3746.44 1099.81C3742.71 1104.15 3739.05 1108.53 3735.51 1113.03C3733.7 1115.17 3731.96 1117.03 3729.94 1118.95C3724.67 1124.13 3720.39 1128.74 3720.01 1136.38C3720.07 1140.43 3720.42 1144.43 3720.81 1148.45C3720.94 1150.27 3721.07 1152.09 3721.19 1153.91C3721.53 1158.85 3721.95 1163.78 3722.38 1168.71C3722.83 1173.99 3723.2 1179.28 3723.59 1184.56C3724.33 1194.67 3725.14 1204.77 3725.98 1214.88C3726.89 1225.97 3727.74 1237.07 3728.57 1248.17C3729.82 1264.65 3731.09 1281.13 3732.39 1297.6C3734.54 1324.83 3736.6 1352.08 3738.54 1379.33C3738.85 1383.62 3739.16 1387.92 3739.48 1392.21C3744.52 1460.99 3739.42 1521.6 3693 1576.19C3685.04 1585.4 3676.58 1593.48 3667 1601C3666.12 1601.71 3665.24 1602.42 3664.34 1603.14C3638.37 1623.44 3607.45 1636.59 3575 1642C3573.71 1642.22 3572.43 1642.45 3571.1 1642.68C3522.63 1649.74 3480.23 1635.25 3436.24 1617.07C3425.2 1612.51 3414.14 1608.04 3403.05 1603.61C3402.35 1603.32 3401.65 1603.04 3400.92 1602.76C3393.85 1599.93 3386.78 1597.11 3379.71 1594.29C3366.28 1588.95 3352.88 1583.56 3339.54 1578.02C3329.38 1573.79 3319.19 1569.64 3308.97 1565.56C3308.29 1565.29 3307.62 1565.02 3306.92 1564.75C3302.12 1562.83 3297.31 1560.91 3292.5 1559C3271.94 1550.82 3251.43 1542.51 3231 1534C3224.71 1531.38 3218.42 1528.77 3212.11 1526.2C3210.41 1525.51 3208.72 1524.81 3207.02 1524.1C3204.49 1523.05 3201.96 1522.01 3199.41 1520.98C3198.67 1520.66 3197.92 1520.35 3197.15 1520.02C3188.33 1516.5 3181.6 1519.72 3173.26 1523.21C3172.21 1523.64 3171.16 1524.07 3170.07 1524.52C3167.8 1525.45 3165.53 1526.39 3163.26 1527.33C3157.77 1529.61 3152.28 1531.86 3146.79 1534.11C3144.9 1534.89 3143.01 1535.67 3141.11 1536.45C3129.01 1541.42 3116.85 1546.28 3104.69 1551.12C3087.24 1558.08 3069.83 1565.13 3052.45 1572.25C3035.96 1579 3019.43 1585.65 3002.88 1592.24C2988.14 1598.12 2973.43 1604.08 2958.75 1610.1C2950.76 1613.37 2942.76 1616.63 2934.76 1619.88C2932.96 1620.61 2931.15 1621.35 2929.34 1622.08C2891.86 1637.34 2891.86 1637.34 2872 1641C2871.08 1641.17 2870.16 1641.34 2869.22 1641.52C2819.25 1650.33 2765.75 1639.38 2723.79 1610.68C2714.1 1603.88 2705 1596.55 2696.43 1588.36C2695.05 1587.05 2693.66 1585.75 2692.26 1584.46C2658.43 1552.09 2637.13 1503.25 2635.75 1456.55C2635.28 1427.12 2637.73 1397.82 2639.87 1368.49C2640.44 1360.67 2641 1352.85 2641.55 1345.03C2642.54 1331.08 2643.54 1317.13 2644.54 1303.18C2645.52 1289.68 2646.49 1276.19 2647.46 1262.69C2647.51 1261.86 2647.57 1261.02 2647.64 1260.16C2648.29 1251.04 2648.94 1241.91 2649.59 1232.78C2649.65 1231.98 2649.71 1231.17 2649.76 1230.35C2649.99 1227.14 2650.22 1223.93 2650.45 1220.72C2651.12 1211.36 2651.79 1202.01 2652.46 1192.66C2652.89 1186.8 2653.31 1180.95 2653.72 1175.1C2653.96 1171.73 2654.21 1168.37 2654.45 1165C2654.72 1161.34 2654.98 1157.68 2655.24 1154.02C2655.32 1152.97 2655.4 1151.92 2655.48 1150.84C2656.96 1138.55 2656.96 1138.55 2654.45 1126.91C2653.36 1125.78 2653.36 1125.78 2652.25 1124.62C2651.43 1123.73 2650.61 1122.84 2649.77 1121.91C2649.1 1121.21 2649.1 1121.21 2648.41 1120.5C2645.83 1117.76 2643.43 1114.87 2641 1112C2639.97 1110.8 2638.94 1109.6 2637.91 1108.41C2634.65 1104.61 2631.5 1100.73 2628.34 1096.84C2625.61 1093.52 2622.81 1090.26 2620 1087C2615.7 1082.01 2611.5 1076.96 2607.34 1071.84C2604.61 1068.52 2601.81 1065.26 2599 1062C2594.7 1057.01 2590.5 1051.96 2586.34 1046.84C2583.61 1043.52 2580.81 1040.26 2578 1037C2573.7 1032.01 2569.5 1026.96 2565.34 1021.84C2562.61 1018.52 2559.81 1015.26 2557 1012C2552.7 1007.01 2548.5 1001.96 2544.34 996.844C2541.61 993.523 2538.81 990.259 2536 987C2531.7 982.01 2527.5 976.958 2523.34 971.844C2520.61 968.523 2517.81 965.259 2515 962C2510.7 957.01 2506.5 951.958 2502.34 946.844C2499.61 943.523 2496.81 940.259 2494 937C2489.7 932.007 2485.49 926.951 2481.34 921.832C2478.65 918.573 2475.89 915.381 2473.13 912.187C2445.86 880.577 2425.92 845.65 2419 804C2418.78 802.702 2418.55 801.404 2418.32 800.066C2411.27 751.356 2423.28 698.128 2452 658C2453.11 656.439 2453.11 656.439 2454.24 654.848C2458.48 649.033 2463 643.588 2467.89 638.301C2469.8 636.222 2471.62 634.096 2473.44 631.937C2496.76 605.307 2531.85 587.695 2565.56 578.794C2566.67 578.497 2567.79 578.201 2568.93 577.895C2583.16 574.128 2597.45 570.569 2611.73 567.008C2615.81 565.991 2619.88 564.973 2623.95 563.954C2630.84 562.234 2637.72 560.515 2644.6 558.798C2651.49 557.079 2658.38 555.358 2665.27 553.636C2688 547.953 2710.74 542.282 2733.48 536.628C2736.02 535.996 2738.56 535.364 2741.1 534.732C2751.07 532.25 2761.05 529.774 2771.03 527.304C2774.1 526.545 2777.16 525.784 2780.22 525.022C2802.59 519.462 2825 514.231 2847.59 509.669C2855.71 507.82 2860.64 505.335 2865.38 498.349C2867.36 495.054 2869.15 491.7 2870.86 488.258C2872.36 485.29 2874.11 482.525 2875.93 479.738C2877.06 477.93 2878.18 476.121 2879.31 474.312C2880.59 472.267 2881.87 470.221 2883.14 468.176C2883.78 467.154 2884.42 466.133 2885.08 465.08C2888.22 460.052 2891.36 455.026 2894.5 450C2895.75 448 2897 446 2898.25 444C2930.75 392 2963.25 340 2995.75 288C2996.37 287.009 2996.99 286.019 2997.63 284.998C2998.87 283.004 3000.12 281.01 3001.37 279.017C3004.55 273.931 3007.72 268.835 3010.86 263.719C3040.43 215.608 3079.92 181.855 3135.73 167.846C3203.58 151.756 3273.63 167.392 3326.86 212.422ZM3188 436C3186.81 437.546 3186.81 437.546 3185.67 439.601C3184.98 440.784 3184.98 440.784 3184.27 441.991C3183.77 442.86 3183.27 443.729 3182.75 444.625C3178.36 452.089 3173.86 459.461 3169.19 466.75C3164.2 474.534 3159.27 482.344 3154.38 490.187C3149.94 497.304 3145.49 504.413 3141 511.5C3134.6 521.614 3128.26 531.766 3121.92 541.919C3118.78 546.947 3115.64 551.974 3112.5 557C3111.25 559 3110 561 3108.75 563C3096.25 583 3083.75 603 3071.25 623C3070.63 623.99 3070.01 624.981 3069.37 626.002C3068.13 627.996 3066.88 629.99 3065.63 631.984C3062.45 637.069 3059.28 642.156 3056.11 647.246C3052.42 653.171 3048.71 659.088 3045 665C3044.48 665.832 3043.96 666.665 3043.42 667.522C3037.8 676.485 3032.08 685.095 3025 693C3024.33 693.753 3023.66 694.505 3022.97 695.281C3014.39 704.374 3004.08 711.749 2992.94 717.375C2992.35 717.672 2991.76 717.969 2991.16 718.275C2980.25 723.514 2968.59 726.824 2956.89 729.729C2955.53 730.07 2954.18 730.412 2952.83 730.754C2949.18 731.676 2945.52 732.589 2941.87 733.5C2937.95 734.48 2934.03 735.468 2930.11 736.455C2922.61 738.342 2915.11 740.221 2907.61 742.097C2901.79 743.551 2895.98 745.008 2890.16 746.466C2869.56 751.633 2848.96 756.786 2828.35 761.931C2819.92 764.034 2811.5 766.138 2803.08 768.243C2790.08 771.491 2777.08 774.738 2764.08 777.984C2747.12 782.22 2730.16 786.459 2713.2 790.699C2712.08 790.978 2710.97 791.256 2709.82 791.544C2703.88 793.029 2697.94 794.514 2692 796C2692.95 797.28 2693.91 798.56 2694.86 799.838C2695.39 800.551 2695.92 801.264 2696.47 801.998C2698.3 804.39 2700.26 806.608 2702.31 808.812C2706.22 813.093 2709.9 817.51 2713.55 822.015C2716.32 825.387 2719.15 828.696 2722 832C2726.3 836.989 2730.5 842.042 2734.66 847.156C2737.39 850.477 2740.19 853.74 2743 857C2747.3 861.989 2751.5 867.042 2755.66 872.156C2758.39 875.477 2761.19 878.74 2764 882C2768.3 886.989 2772.5 892.042 2776.66 897.156C2779.39 900.477 2782.19 903.74 2785 907C2789.3 911.989 2793.5 917.042 2797.66 922.156C2800.39 925.477 2803.19 928.74 2806 932C2810.3 936.989 2814.5 942.042 2818.66 947.156C2821.39 950.477 2824.19 953.74 2827 957C2831.3 961.989 2835.5 967.042 2839.66 972.156C2842.39 975.477 2845.19 978.74 2848 982C2852.32 987.016 2856.56 992.089 2860.73 997.234C2862.35 999.205 2863.98 1001.15 2865.65 1003.08C2898.63 1041.22 2902.79 1079.37 2899.26 1128.24C2899.07 1130.91 2898.88 1133.58 2898.69 1136.26C2898.29 1141.96 2897.89 1147.67 2897.48 1153.38C2896.89 1161.64 2896.31 1169.9 2895.73 1178.16C2894.78 1191.58 2893.84 1204.99 2892.88 1218.41C2891.96 1231.41 2891.04 1244.41 2890.12 1257.41C2890.06 1258.22 2890 1259.02 2889.95 1259.85C2889.33 1268.62 2888.71 1277.39 2888.09 1286.16C2888.03 1286.93 2887.98 1287.7 2887.92 1288.49C2887.71 1291.57 2887.49 1294.65 2887.27 1297.73C2886.64 1306.74 2886 1315.74 2885.36 1324.74C2884.96 1330.38 2884.56 1336.02 2884.16 1341.65C2883.93 1344.9 2883.7 1348.15 2883.47 1351.4C2883.22 1354.93 2882.97 1358.45 2882.72 1361.97C2882.65 1363 2882.57 1364.02 2882.5 1365.08C2882.15 1370.07 2881.92 1375 2882 1380C2891.14 1377.59 2899.78 1373.96 2908.5 1370.37C2910.13 1369.71 2911.77 1369.04 2913.4 1368.37C2916.85 1366.96 2920.3 1365.56 2923.75 1364.15C2931.42 1361.01 2939.1 1357.9 2946.78 1354.8C2949.4 1353.74 2952.03 1352.68 2954.65 1351.62C2976.76 1342.67 2998.87 1333.73 3020.99 1324.79C3026.94 1322.38 3032.9 1319.98 3038.85 1317.57C3041.81 1316.38 3044.77 1315.18 3047.72 1313.99C3057.93 1309.86 3068.13 1305.73 3078.33 1301.6C3082.63 1299.85 3086.94 1298.11 3091.24 1296.37C3092.09 1296.03 3092.93 1295.69 3093.8 1295.34C3095.52 1294.64 3097.24 1293.95 3098.96 1293.25C3104.64 1290.96 3110.3 1288.65 3115.97 1286.33C3120.01 1284.67 3124.07 1283.03 3128.12 1281.38C3130.05 1280.6 3131.97 1279.81 3133.89 1279.02C3178 1260.84 3215.03 1266.79 3257.98 1284.64C3263.28 1286.85 3268.59 1289.02 3273.89 1291.21C3275.02 1291.67 3276.15 1292.14 3277.31 1292.61C3290.56 1298.07 3303.85 1303.41 3317.14 1308.76C3320.46 1310.1 3323.78 1311.44 3327.1 1312.78C3328.42 1313.31 3329.74 1313.84 3331.06 1314.37C3331.71 1314.63 3332.36 1314.89 3333.02 1315.16C3334.97 1315.95 3336.92 1316.73 3338.87 1317.51C3350.73 1322.29 3362.58 1327.08 3374.44 1331.87C3375.85 1332.45 3375.85 1332.45 3377.3 1333.03C3381.99 1334.93 3386.68 1336.82 3391.37 1338.72C3397.14 1341.06 3402.92 1343.39 3408.69 1345.73C3409.67 1346.12 3410.64 1346.51 3411.65 1346.92C3416.53 1348.89 3421.41 1350.87 3426.29 1352.84C3435.49 1356.56 3444.69 1360.28 3453.89 1364.02C3458.25 1365.8 3462.61 1367.57 3466.97 1369.34C3469.06 1370.19 3471.14 1371.04 3473.23 1371.89C3476.11 1373.07 3479 1374.24 3481.88 1375.41C3482.74 1375.76 3483.59 1376.11 3484.47 1376.47C3485.26 1376.79 3486.05 1377.11 3486.86 1377.44C3487.55 1377.72 3488.23 1378 3488.93 1378.29C3491.26 1379.09 3493.58 1379.54 3496 1380C3495.39 1363.76 3494.41 1347.56 3493.23 1331.35C3493.06 1328.87 3492.88 1326.39 3492.7 1323.91C3492.32 1318.62 3491.94 1313.33 3491.56 1308.05C3490.96 1299.66 3490.36 1291.28 3489.76 1282.89C3489.55 1280.01 3489.35 1277.12 3489.14 1274.24C3489.09 1273.52 3489.04 1272.8 3488.98 1272.05C3488.4 1263.9 3487.82 1255.74 3487.23 1247.58C3487.15 1246.47 3487.15 1246.47 3487.07 1245.33C3486.21 1233.27 3485.34 1221.22 3484.47 1209.17C3483.58 1196.72 3482.69 1184.28 3481.8 1171.83C3481.26 1164.19 3480.71 1156.56 3480.16 1148.92C3479.73 1143.05 3479.31 1137.18 3478.9 1131.31C3478.73 1128.93 3478.55 1126.55 3478.38 1124.16C3477.53 1112.6 3476.86 1101.08 3476.83 1089.48C3476.82 1088.56 3476.82 1087.64 3476.82 1086.69C3476.99 1056.05 3490.15 1027.61 3510.8 1005.41C3513.07 1002.93 3515.2 1000.37 3517.31 997.75C3520.8 993.435 3524.38 989.203 3528 985C3531.55 980.875 3535.07 976.728 3538.5 972.5C3542.43 967.654 3546.48 962.919 3550.56 958.191C3553.59 954.667 3556.57 951.109 3559.5 947.5C3563.43 942.654 3567.48 937.919 3571.56 933.191C3574.59 929.667 3577.57 926.109 3580.5 922.5C3584.43 917.654 3588.48 912.919 3592.56 908.191C3595.59 904.667 3598.57 901.109 3601.5 897.5C3605.89 892.099 3610.41 886.825 3614.95 881.551C3621.19 874.29 3627.4 866.994 3633.44 859.562C3637.4 854.699 3641.47 849.941 3645.56 845.191C3648.59 841.667 3651.57 838.109 3654.5 834.5C3657.93 830.272 3661.45 826.125 3665 822C3671.23 814.759 3677.41 807.484 3683.13 799.831C3683.67 799.113 3684.21 798.395 3684.76 797.655C3685.17 797.109 3685.58 796.563 3686 796C3647.92 786.31 3609.83 776.681 3571.71 767.152C3570.79 766.924 3569.88 766.695 3568.94 766.46C3557.73 763.658 3546.52 760.859 3535.32 758.061C3525.77 755.678 3516.23 753.294 3506.69 750.91C3491.59 747.137 3491.59 747.137 3476.49 743.365C3475.66 743.157 3474.83 742.949 3473.97 742.735C3472.32 742.323 3470.67 741.91 3469.01 741.498C3465.02 740.5 3461.02 739.5 3457.02 738.498C3449.89 736.712 3442.76 734.937 3435.62 733.208C3432.38 732.422 3429.14 731.629 3425.9 730.836C3424.4 730.469 3422.89 730.105 3421.38 729.746C3380.76 720.064 3353.74 698.314 3331.86 662.997C3330.01 660.021 3328.16 657.052 3326.3 654.086C3323.15 649.072 3320.02 644.053 3316.89 639.032C3313.76 634.019 3310.63 629.01 3307.5 624C3306.25 622 3305 620 3303.75 618C3303.13 617.01 3302.51 616.02 3301.88 615C3250.06 532.094 3250.06 532.094 3198.24 449.187C3197.69 448.308 3197.14 447.429 3196.57 446.523C3195.54 444.871 3194.53 443.21 3193.53 441.539C3192.41 439.662 3191.21 437.825 3190 436C3189.34 436 3188.68 436 3188 436Z" fill="#6520B9"/>
<path d="M1194.37 1681.62C1196.58 1681.62 1198.79 1681.61 1201 1681.61C1207.04 1681.6 1213.09 1681.6 1219.14 1681.61C1225.04 1681.62 1230.95 1681.61 1236.86 1681.61C1249.08 1681.59 1261.3 1681.59 1273.51 1681.6C1285.89 1681.61 1298.26 1681.61 1310.63 1681.61C1311.42 1681.61 1312.2 1681.61 1313.01 1681.6C1316.2 1681.6 1319.39 1681.6 1322.57 1681.6C1352.25 1681.58 1381.92 1681.58 1411.59 1681.59C1412.47 1681.59 1413.35 1681.59 1414.25 1681.59C1415.57 1681.59 1415.57 1681.59 1416.92 1681.59C1443.73 1681.6 1470.55 1681.6 1497.37 1681.6C1499.17 1681.6 1500.96 1681.6 1502.76 1681.6C1509.98 1681.6 1517.2 1681.6 1524.42 1681.6C1544.6 1681.59 1564.79 1681.59 1584.97 1681.59C1585.89 1681.59 1586.81 1681.59 1587.76 1681.59C1617.04 1681.59 1646.32 1681.59 1675.6 1681.6C1676.55 1681.6 1677.5 1681.6 1678.47 1681.6C1693.89 1681.6 1709.31 1681.61 1724.73 1681.61C1785.88 1681.62 1847.02 1681.62 1908.17 1681.61C1923.58 1681.61 1938.99 1681.6 1954.4 1681.6C1955.83 1681.6 1955.83 1681.6 1957.28 1681.6C1986.53 1681.59 2015.78 1681.59 2045.03 1681.59C2046.41 1681.59 2046.4 1681.59 2047.81 1681.59C2067.97 1681.59 2088.13 1681.59 2108.3 1681.6C2115.51 1681.6 2122.72 1681.6 2129.94 1681.6C2131.73 1681.6 2133.53 1681.6 2135.32 1681.6C2162.13 1681.6 2188.94 1681.6 2215.75 1681.59C2217.07 1681.59 2217.07 1681.59 2218.41 1681.59C2219.72 1681.59 2219.73 1681.59 2221.07 1681.59C2250.65 1681.58 2280.24 1681.59 2309.83 1681.6C2313.01 1681.6 2316.19 1681.6 2319.37 1681.61C2320.54 1681.61 2320.54 1681.61 2321.73 1681.61C2334.07 1681.61 2346.41 1681.61 2358.75 1681.6C2370.89 1681.59 2383.03 1681.6 2395.17 1681.61C2401.66 1681.62 2408.15 1681.62 2414.64 1681.61C2420.55 1681.6 2426.46 1681.6 2432.38 1681.62C2434.49 1681.62 2436.61 1681.62 2438.73 1681.61C2455.4 1681.56 2471.91 1682.57 2487.75 1688.19C2488.62 1688.49 2489.5 1688.79 2490.4 1689.11C2521.24 1700.18 2544.27 1722.97 2558.73 1751.98C2566.26 1767.96 2569.4 1785.18 2569.31 1802.75C2569.31 1803.98 2569.3 1805.21 2569.3 1806.48C2568.88 1838.98 2554.37 1868.93 2531.38 1891.6C2511.29 1910.48 2482.67 1923.2 2454.96 1923.13C2453.6 1923.13 2453.6 1923.13 2452.22 1923.13C2449.16 1923.14 2446.11 1923.14 2443.06 1923.13C2440.85 1923.14 2438.64 1923.14 2436.42 1923.14C2430.31 1923.15 2424.19 1923.15 2418.07 1923.15C2412.12 1923.15 2406.16 1923.15 2400.2 1923.16C2387.87 1923.17 2375.53 1923.17 2363.2 1923.17C2350.69 1923.18 2338.19 1923.18 2325.68 1923.19C2324.5 1923.19 2324.5 1923.19 2323.29 1923.19C2320.08 1923.19 2316.86 1923.19 2313.65 1923.19C2274.67 1923.21 2235.69 1923.23 2196.71 1923.23C2184.07 1923.24 2171.43 1923.24 2158.79 1923.24C2157.9 1923.24 2157.01 1923.24 2156.09 1923.25C2152.48 1923.25 2148.87 1923.25 2145.27 1923.25C2083.55 1923.27 2021.84 1923.28 1960.13 1923.29C1955.28 1923.29 1950.43 1923.29 1945.58 1923.29C1944.62 1923.29 1943.66 1923.29 1942.67 1923.29C1932.92 1923.29 1923.18 1923.29 1913.44 1923.29C1911.48 1923.3 1909.53 1923.3 1907.58 1923.3C1844.85 1923.3 1782.12 1923.33 1719.39 1923.36C1674.32 1923.38 1629.25 1923.4 1584.18 1923.41C1583.26 1923.41 1582.33 1923.41 1581.37 1923.41C1561.02 1923.41 1540.67 1923.42 1520.31 1923.42C1512.12 1923.42 1503.93 1923.42 1495.74 1923.42C1494.85 1923.42 1493.95 1923.42 1493.03 1923.42C1464.17 1923.42 1435.31 1923.43 1406.45 1923.46C1377.37 1923.48 1348.29 1923.48 1319.22 1923.47C1315.2 1923.47 1311.18 1923.47 1307.16 1923.47C1305.97 1923.47 1305.97 1923.47 1304.77 1923.47C1292.3 1923.47 1279.84 1923.48 1267.38 1923.49C1255.11 1923.51 1242.85 1923.51 1230.58 1923.5C1224.02 1923.49 1217.47 1923.49 1210.91 1923.51C1204.94 1923.52 1198.96 1923.52 1192.99 1923.5C1190.85 1923.5 1188.71 1923.5 1186.57 1923.51C1152.14 1923.68 1121.71 1913.08 1096.29 1889.32C1073.52 1866.24 1060.52 1835.8 1060.69 1803.31C1060.69 1802.18 1060.7 1801.04 1060.7 1799.87C1061.2 1765.55 1076.26 1736.82 1100.18 1712.82C1126.32 1688.34 1159.66 1681.5 1194.37 1681.62Z" fill="#F97316"/>
<path d="M1181.42 2263.75C1182.6 2263.74 1183.79 2263.74 1185.01 2263.74C1188.27 2263.73 1191.53 2263.73 1194.8 2263.74C1198.35 2263.74 1201.91 2263.73 1205.47 2263.73C1211.7 2263.72 1217.93 2263.72 1224.16 2263.72C1233.42 2263.73 1242.69 2263.72 1251.95 2263.71C1269.46 2263.7 1286.97 2263.7 1304.48 2263.7C1318 2263.7 1331.53 2263.7 1345.05 2263.69C1347 2263.69 1348.94 2263.69 1350.88 2263.69C1353.81 2263.69 1356.74 2263.69 1359.67 2263.69C1386.91 2263.68 1414.14 2263.68 1441.38 2263.68C1442.4 2263.68 1443.43 2263.68 1444.49 2263.68C1449.69 2263.68 1454.89 2263.68 1460.09 2263.68C1461.64 2263.68 1461.64 2263.68 1463.22 2263.68C1465.31 2263.68 1467.4 2263.68 1469.49 2263.69C1501.99 2263.69 1534.49 2263.68 1566.99 2263.66C1603.52 2263.64 1640.06 2263.63 1676.59 2263.64C1680.49 2263.64 1684.38 2263.64 1688.28 2263.64C1689.72 2263.64 1689.72 2263.64 1691.19 2263.64C1705.66 2263.64 1720.13 2263.63 1734.6 2263.62C1751.06 2263.61 1767.52 2263.61 1783.98 2263.62C1793.19 2263.63 1802.4 2263.63 1811.6 2263.61C1817.76 2263.6 1823.92 2263.61 1830.08 2263.62C1833.58 2263.62 1837.08 2263.63 1840.59 2263.61C1879.6 2263.51 1912.21 2272.88 1940.7 2300.63C1963.11 2324.24 1974.47 2355.65 1974.15 2388.02C1973.16 2414.61 1964.05 2440.4 1947 2461C1946.54 2461.55 1946.09 2462.1 1945.62 2462.67C1925.74 2486.23 1896.86 2502.05 1866 2505C1862.1 2505.14 1858.2 2505.14 1854.3 2505.13C1853.12 2505.13 1851.94 2505.14 1850.73 2505.14C1847.45 2505.14 1844.17 2505.14 1840.9 2505.14C1837.33 2505.14 1833.77 2505.15 1830.21 2505.15C1823.14 2505.16 1816.07 2505.16 1809 2505.16C1800.53 2505.16 1792.06 2505.17 1783.59 2505.17C1763.13 2505.19 1742.66 2505.2 1722.19 2505.2C1712.51 2505.2 1702.82 2505.21 1693.14 2505.21C1659.98 2505.22 1626.83 2505.23 1593.67 2505.24C1591.59 2505.24 1589.51 2505.24 1587.43 2505.24C1585.34 2505.24 1583.26 2505.24 1581.17 2505.24C1576.99 2505.24 1572.8 2505.24 1568.62 2505.24C1567.58 2505.24 1566.54 2505.24 1565.47 2505.24C1531.83 2505.24 1498.19 2505.26 1464.55 2505.28C1428.98 2505.31 1393.4 2505.32 1357.83 2505.32C1353.92 2505.32 1350.02 2505.32 1346.11 2505.32C1345.15 2505.32 1344.19 2505.32 1343.2 2505.32C1327.73 2505.33 1312.26 2505.34 1296.79 2505.35C1281.24 2505.37 1265.69 2505.37 1250.13 2505.36C1240.9 2505.36 1231.66 2505.36 1222.43 2505.38C1216.25 2505.39 1210.07 2505.38 1203.9 2505.37C1200.38 2505.37 1196.87 2505.37 1193.36 2505.38C1176.06 2505.43 1159.44 2505.13 1142.94 2499.31C1142.2 2499.06 1141.46 2498.8 1140.7 2498.54C1109.73 2487.46 1085.3 2465.12 1071.21 2435.36C1059.45 2409.41 1056.47 2377.36 1065 2350C1065.21 2349.31 1065.43 2348.62 1065.65 2347.91C1070.7 2332.22 1078.5 2318.64 1089 2306C1089.67 2305.18 1090.34 2304.36 1091.03 2303.51C1105.73 2286.13 1126.16 2274.71 1147.69 2268.19C1148.33 2267.99 1148.97 2267.8 1149.63 2267.6C1160.05 2264.63 1170.62 2263.7 1181.42 2263.75Z" fill="#F97316"/>
</svg>
